<svg xmlns="http://www.w3.org/2000/svg" viewBox="0 0 179.56 494.61"><defs><style>.cls-1{isolation:isolate;}.cls-2{fill:#55a184;}.cls-3{fill:#7bc68b;}.cls-4{fill:#650e81;mix-blend-mode:multiply;}.cls-18,.cls-4{opacity:0.2;}.cls-5{fill:#001823;}.cls-6{fill:#5c7e93;}.cls-7{fill:#ddaf99;}.cls-8{fill:#2b190d;}.cls-9{fill:#62a06f;}.cls-10{fill:#466474;}.cls-11{fill:#a86b5d;}.cls-12{fill:#1e120d;}.cls-13{fill:#d5958c;}.cls-14{fill:#c55865;}.cls-15{fill:#1b0a00;}.cls-16{fill:#345a6d;}.cls-17{fill:#db737a;opacity:0.3;}.cls-18{fill:#fff;mix-blend-mode:soft-light;}</style></defs><title>character</title><g class="cls-1"><g id="Capa_1" data-name="Capa 1"><path class="cls-2" d="M94.37,162.1s0,.24,0,.69l-.62,0c-1.66,1.48-4.44,10.38-4.44,10.38s-8.09-3.3-11.71-8.4-.65-11.87-.65-11.87v0c.73,0,1.14,0,1.14,0h.74V155s3.79,7.34,15.58,6.94Z" transform="translate(-3.25 -2.39)"/><path class="cls-2" d="M113,148.26c1,1.14,6.9,8.72-1.26,16.15-4.65,4.21-9.73,8.07-9.73,8.07s-4.79-8.56-6.43-10l0-.53c12.05-.89,15.45-10.1,15.45-10.1l-.24-2.69.14,0A18.69,18.69,0,0,1,113,148.26Z" transform="translate(-3.25 -2.39)"/><path class="cls-3" d="M94.33,162.79c0-.45,0-.69,0-.69V162c.23,0,.49,0,.75,0a2.33,2.33,0,0,0,.37,0l0,.53c1.64,1.49,6.43,10,6.43,10s5.08-3.86,9.73-8.07c8.16-7.43,2.25-15,1.26-16.15,5.66-2.06,21.55-6,33.81,7.25,15.17,16.47,24.07,45.82,24.07,45.82a20.57,20.57,0,0,1-5.32,7.53c-3.84,3.58-10.2,7.18-20.39,7.61h0c5.26,32,11.31,83.62,11.31,83.62a53.07,53.07,0,0,0,.28,7.3l-.22,0a166.74,166.74,0,0,1-56.67,9.23c-1.14,0-2.31-.06-3.48-.1l0-.65C89.48,248.52,93.83,170.9,94.33,162.79Z" transform="translate(-3.25 -2.39)"/><path class="cls-4" d="M169.05,204.69c-11.08,6.52-15.37,8-27-4.94,2.64,5.57,2.3,11.15,3.08,16.72,10.17-.44,16.53-4,20.36-7.61A23.05,23.05,0,0,0,169.05,204.69Z" transform="translate(-3.25 -2.39)"/><path class="cls-3" d="M94.33,162.79c-.5,8.11-4.85,85.73,2,153.12l0,.65c-15.28-.57-31.57-2.81-41-5.24-4.69-1.2-7.68-2.45-7.93-3.56-1.19-4.9-.64-15.78.81-29,0,0,0,0,0,0,2.19-20.49,6.52-46.51,9.69-64.36l-.38-.06C50.21,216.71,43.61,213,39.83,210a28.11,28.11,0,0,1-3.3-3.07s4.81-26.28,15.66-40.53a34.49,34.49,0,0,1,24.72-13.56v0s-3,6.75.65,11.87,11.71,8.4,11.71,8.4,2.78-8.9,4.44-10.38Z" transform="translate(-3.25 -2.39)"/><path class="cls-4" d="M36.55,206.83a.66.66,0,0,1,0,.09,28.11,28.11,0,0,0,3.3,3.07c3.78,3,10.38,6.72,17.72,4.35h0c2.33-7.42,2.69-12.73,3.8-20.52-3.69,4.32-4.78,12.57-9.35,15.08C48.35,210.93,41.44,207.8,36.55,206.83Z" transform="translate(-3.25 -2.39)"/><path class="cls-5" d="M165.79,483.46c.25,5.78.41,9.32.41,9.83,0,3.95-41.52,5.28-42.17,1.32s10.53-9.88,10.53-9.88S153.84,489.14,165.79,483.46Z" transform="translate(-3.25 -2.39)"/><path class="cls-5" d="M109.29,484.77c.22,3.72.32,6.05.24,6.54-.67,4.63-39.54,3.3-39.54.67s9.88-9.88,9.88-9.88S94.21,487,109.29,484.77Z" transform="translate(-3.25 -2.39)"/><path class="cls-6" d="M156.69,307.39a9.6,9.6,0,0,0,.57,2.35c.93,18.71,6.88,138.27,8.53,173.72-11.95,5.68-31.23,1.27-31.23,1.27l-19.1-154.88c-5.33,1.07-11.88.95-17.75.41.61,7.77,9.94,125.09,11.58,154.51C94.21,487,79.87,482.1,79.87,482.1L55.34,311.32c9.41,2.43,25.7,4.67,41,5.24,1.17,0,2.34.08,3.48.1a166.74,166.74,0,0,0,56.67-9.23Z" transform="translate(-3.25 -2.39)"/><path class="cls-4" d="M156.82,308.11c0-.24-.09-.46-.13-.72l-.22,0a166.74,166.74,0,0,1-56.67,9.23c-1.14,0-2.31-.06-3.48-.1-15.28-.57-31.57-2.81-41-5.24l1.5,10.49C91.2,324.72,125.91,322.69,156.82,308.11Z" transform="translate(-3.25 -2.39)"/><path class="cls-4" d="M106.85,448.88c-3.31-45.24-8.56-111.29-9.12-118.38-3.23,0-6.08-1.23-9.17-1.23C92.88,369.72,101.11,409.49,106.85,448.88Z" transform="translate(-3.25 -2.39)"/><path class="cls-7" d="M157.26,309.74a9.6,9.6,0,0,1-.57-2.35,53.07,53.07,0,0,1-.28-7.3s-6-51.58-11.31-83.62h0c10.19-.43,16.55-4,20.39-7.61l0,0s14.41,49.39,16.31,83c.65,11.7-3,23.07-5.44,23.72s-2-4.29-2-4.29l-.12,0c-.64,2.73-1.7,5.06-3.5,5.8-2.14.87-2.81-2.32-2.81-2.32l-.12,0c-.55,1.43-1.32,2.3-2.35,2.2-1.68-.16-3.62-16.81-3.62-16.81,0,7.24-3.8,10.3-3.8,10.3C157.78,310.55,157.48,310.25,157.26,309.74Z" transform="translate(-3.25 -2.39)"/><path class="cls-4" d="M166.1,210.84l-.55-1.94,0,0c-3.84,3.58-10.2,7.18-20.39,7.61h0c.46,2.77.92,5.69,1.38,8.71C154.11,221.6,161.11,216.91,166.1,210.84Z" transform="translate(-3.25 -2.39)"/><path class="cls-7" d="M181.86,292c-1.68-29.73-13.11-71.7-15.76-81.11-5,6.07-12,10.76-19.62,14.34,4.88,31.86,9.93,74.91,9.93,74.91a53.07,53.07,0,0,0,.28,7.3,9.6,9.6,0,0,0,.57,2.35c.22.51.52.81.87.75,0,0,3.8-3.06,3.8-10.3,0,0,1.94,16.65,3.62,16.81,1,.1,1.8-.77,2.35-2.2l.12,0s.67,3.19,2.81,2.32c1.8-.74,2.86-3.07,3.5-5.8l.12,0s-.5,4.94,2,4.29S182.51,303.65,181.86,292Z" transform="translate(-3.25 -2.39)"/><path class="cls-7" d="M12.29,309.27c-.33.45-6.44,8.54-7.89,6.74C2.48,313.6,9,303.39,9.33,302.84c-.42.22-5,2.69-5.92.47-1.56-3.65,8.74-8.56,8.74-8.56,13.51-25.05,27.51-84.53,27.51-84.53l.17-.23c3.78,3,10.38,6.72,17.72,4.35l.38.06c-3.17,17.85-7.5,43.87-9.69,64.36,0,0,0,0,0,0-7.91,23.05-27.54,44.88-30,42.8s1.64-9.55,1.64-9.55-7.53,11.73-10.2,9.22C7.27,319,12,309.76,12.29,309.27Z" transform="translate(-3.25 -2.39)"/><path class="cls-7" d="M38.71,214.13c-3.36,13.62-15.13,59.43-26.56,80.62,0,0-10.3,4.91-8.74,8.56,1,2.22,5.5-.25,5.92-.47C9,303.39,2.48,313.6,4.4,316c1.45,1.8,7.56-6.29,7.89-6.74-.26.49-5,9.76-2.61,12,2.67,2.51,10.2-9.22,10.2-9.22s-3.95,7.58-1.64,9.55,20.51-18,29-40c1.27-20.11,2.79-40.22,4.87-60.33A27.4,27.4,0,0,1,38.71,214.13Z" transform="translate(-3.25 -2.39)"/><path class="cls-4" d="M57.55,214.34a15.43,15.43,0,0,1-4.84.73c-5.33,0-10-2.79-12.88-5.08l-.17.23s-.34,1.43-.95,3.91a27.4,27.4,0,0,0,13.36,7.1c-2.08,20.11-3.6,40.22-4.87,60.33.36-.91.7-1.84,1-2.76,0,0,0,0,0,0,1.9-17.77,5.41-39.7,8.37-56.85.46-2.63.9-5.15,1.32-7.51Z" transform="translate(-3.25 -2.39)"/><path class="cls-7" d="M110.7,149.11l.24,2.69s-3.4,9.21-15.45,10.1a2.33,2.33,0,0,1-.37,0c-.26,0-.52,0-.75,0-11.79.4-15.58-6.94-15.58-6.94V142.11a52.12,52.12,0,0,0,9.31.55,51.27,51.27,0,0,0,21.59-5.12Z" transform="translate(-3.25 -2.39)"/><path class="cls-4" d="M109.83,139.09l-.14-1.55a51.27,51.27,0,0,1-21.59,5.12,52.12,52.12,0,0,1-9.31-.55v6.41C90.21,149.19,101.62,146.7,109.83,139.09Z" transform="translate(-3.25 -2.39)"/><path class="cls-7" d="M109.83,139.09c-8.21,7.61-19.62,10.1-31,9.43V155s3.79,7.34,15.58,6.94c.23,0,.49,0,.75,0a2.33,2.33,0,0,0,.37,0c12.05-.89,15.45-10.1,15.45-10.1l-.24-2.69Z" transform="translate(-3.25 -2.39)"/><path class="cls-7" d="M109.69,137.54a51.27,51.27,0,0,1-21.59,5.12,52.12,52.12,0,0,1-9.31-.55c-20.23-2.91-36.6-16.51-38.56-26.38C38.43,106.42,42.72,97.94,44,96c.83-1.35,1.72-42.77,2-46.17,9.95-1.33,18.75-7.57,19.26-7.95-.53.52-8.34,8.38,7.2,8.64,16.06.24,50.16-17.32,50.16-17.32s-2.71,32.63,7.91,53.64l.22.48c2.23-2,6.8-4.92,12.14-2A12.33,12.33,0,0,1,145,86.8c8.72,7.28-.06,30-12.87,25.83l-.22.87A46.07,46.07,0,0,1,109.69,137.54Z" transform="translate(-3.25 -2.39)"/><path class="cls-8" d="M39.16,35.2c-1,.47-10.83,5.2-11.53,1.68C26.9,33.16,48.14,4.75,85.47,2.51S130.71,29,130.71,29s7.91-.75,11.35,5.44.85,49.37.75,50.87c-5.34-2.92-9.91,0-12.14,2l-.22-.48c-10.62-21-7.91-53.64-7.91-53.64S88.44,50.72,72.38,50.48c-15.54-.26-7.73-8.12-7.2-8.64-.51.38-9.31,6.62-19.26,7.95a23.62,23.62,0,0,1-7.41-.06C26.21,47.61,38.13,36.17,39.16,35.2Z" transform="translate(-3.25 -2.39)"/><path class="cls-9" d="M46.89,307.86l-.33-1.79c-.12-.59-.14-1.23-.22-1.84-.15-1.25-.15-2.46-.2-3.69s0-2.44,0-3.66.07-2.43.1-3.65c.23-4.86.64-9.7,1.11-14.53a.83.83,0,0,1,.08-.28v0l0,0-.09.3,2.81-21.41,1.45-10.7c.23-1.78.58-3.55.87-5.32l.9-5.32,3.68-21.26c1.33-7.08,2.78-14.11,4.17-21.17a.52.52,0,0,1,1,.19l-3.59,21.26-3.42,21.28-.87,5.32c-.28,1.77-.62,3.54-.84,5.32l-1.44,10.67-3,21.33v0a1,1,0,0,1-.09.26l0,0,.09-.3c-.56,4.8-1.05,9.61-1.37,14.43-.07,1.2-.17,2.4-.22,3.61s-.1,2.4-.1,3.6,0,2.41.09,3.58c0,.59,0,1.17.14,1.76l.28,1.8a.52.52,0,0,1-.43.6A.53.53,0,0,1,46.89,307.86Z" transform="translate(-3.25 -2.39)"/><path class="cls-9" d="M95.2,162.22s-.47,9.6-.88,24c-.11,3.6-.22,7.51-.35,11.63s-.14,8.49-.21,13c-.21,9,0,18.62-.11,28.23.07,4.8.13,9.61.19,14.34s.06,9.38.27,13.88.37,8.85.54,13,.27,8,.53,11.62c1,14.38,1.68,24,1.68,24v0a.52.52,0,0,1-.48.56.55.55,0,0,1-.56-.48s-.87-9.58-2.17-24c-.3-3.6-.41-7.51-.63-11.64s-.42-8.48-.64-13-.25-9.17-.39-13.91-.2-9.55-.3-14.36.07-9.62.1-14.36.06-9.4.21-13.91.22-8.87.33-13,.3-8,.44-11.65c.24-7.21.72-13.21.93-17.42s.46-6.59.46-6.59a.51.51,0,0,1,.55-.49A.53.53,0,0,1,95.2,162.22Z" transform="translate(-3.25 -2.39)"/><path class="cls-10" d="M82,327.36l5.25.71c1.57.17,3.41.32,5.35.57l3,.37c1,.11,2,.29,3.1.33,2.11.18,4.22.34,6.16.36,1,0,1.92.11,2.81.06l2.53-.05c1.57,0,2.85-.21,3.77-.26l1.43-.11h.06a.52.52,0,0,1,.15,1l-1.45.29-1.67.32a12.34,12.34,0,0,1-2.18.3l-2.59.2a25,25,0,0,1-2.9.07c-2,0-4.15-.09-6.26-.23-1,0-2.15-.26-3.17-.39l-3-.44c-2-.27-3.82-.61-5.4-.86a21.29,21.29,0,0,1-2.12-.47l-1.62-.4-1.41-.37a.51.51,0,0,1-.37-.63A.52.52,0,0,1,82,327.36Z" transform="translate(-3.25 -2.39)"/><path class="cls-9" d="M155.8,299.35,153.5,283c-.65-4.9-1.41-10.61-2.22-16.74s-1.84-12.62-2.79-19.13-1.82-13-2.67-19.16c-.42-3.06-.81-6-1.19-8.82s-.84-5.42-1.23-7.87-.76-4.67-1.09-6.65-.76-3.65-1-5.06l-.94-4.4v-.06a.52.52,0,0,1,.4-.62.51.51,0,0,1,.61.38s.4,1.61,1.11,4.43c.33,1.4.81,3.11,1.22,5.08s.81,4.2,1.27,6.63,1,5.06,1.39,7.87.86,5.75,1.32,8.81c.89,6.12,1.85,12.64,2.8,19.16s1.82,13.06,2.68,19.19c.71,6.13,1.38,11.86,1.95,16.77,1.06,9.82,1.77,16.38,1.77,16.38a.52.52,0,0,1-1,.12Z" transform="translate(-3.25 -2.39)"/><path class="cls-11" d="M169.53,301a42.36,42.36,0,0,1,.36,4.39,36.25,36.25,0,0,1-.11,4.42c-.05.74-.17,1.48-.26,2.22a18.33,18.33,0,0,1-.51,2.23,8.85,8.85,0,0,1-.93,2.22,3.66,3.66,0,0,1-1,1.05,2.71,2.71,0,0,1-1.63.44h0l-.24-.05h0l-.07,0a1.11,1.11,0,0,1-.28-.16,1.85,1.85,0,0,1-.33-.29l-.12-.17a3.6,3.6,0,0,1-.34-.63,9.06,9.06,0,0,1-.42-1.12c-.23-.73-.41-1.45-.58-2.17-.33-1.44-.61-2.88-.86-4.32-.51-2.88-.86-5.76-1.2-8.66l1.89-.11-.1,1.48a10.46,10.46,0,0,1-.15,1.47l-.3,1.46a8.36,8.36,0,0,1-.43,1.43,7.22,7.22,0,0,1-.56,1.39,11.18,11.18,0,0,1-.71,1.32,10.71,10.71,0,0,1-.88,1.24,7.35,7.35,0,0,1-1.1,1.15.71.71,0,0,1-.38.18,1.49,1.49,0,0,1-1.34-.57,2.49,2.49,0,0,1-.47-.87,9.39,9.39,0,0,1-.36-1.37l-.12-.75,0-.18,0-.15V307l0-1.37-.08-2.74c0-.93.06-1.88.09-2.81v.09l-.07-.81a.52.52,0,0,1,1-.12l.12.8h0v.07c0,.9,0,1.78.08,2.68l.25,2.73.13,1.36,0,.34v.09c0-.08,0,0,0,0l0,.15.12.6a7.76,7.76,0,0,0,.37,1.27,1,1,0,0,0,.18.33c.08.11,0-.07-.16,0l-.39.17a7.58,7.58,0,0,0,.81-.92,11.32,11.32,0,0,0,.71-1.09,12.72,12.72,0,0,0,.58-1.17,8.76,8.76,0,0,0,.46-1.24,7.7,7.7,0,0,0,.36-1.27l.25-1.3a8.43,8.43,0,0,0,.12-1.33l.08-1.34v-.05a1,1,0,0,1,1-.89.93.93,0,0,1,.88.83c.36,2.86.8,5.72,1.25,8.56.23,1.42.48,2.83.78,4.22.15.69.32,1.38.52,2a8.92,8.92,0,0,0,.33.92,1.42,1.42,0,0,0,.17.33l0,.06a.28.28,0,0,0-.13-.11c-.06,0-.15,0-.07,0l.06,0h.05l-.22-.05h0c.28,0,.59-.15.94-.65a6.9,6.9,0,0,0,.79-1.75,15.69,15.69,0,0,0,.53-2c.12-.69.25-1.39.33-2.09a45.14,45.14,0,0,0,.26-8.55.52.52,0,0,1,.48-.56.53.53,0,0,1,.56.45Z" transform="translate(-3.25 -2.39)"/><path class="cls-11" d="M168.53,314.73a5.4,5.4,0,0,0,.37.81,2.69,2.69,0,0,0,.56.73.81.81,0,0,0,.74.23.55.55,0,0,0,.23-.07l.06,0,0,0,.05,0,.18-.12.39-.23.21-.23a6.24,6.24,0,0,0,.94-1.31,11,11,0,0,0,.72-1.78,13.5,13.5,0,0,0,.48-1.95c.12-.72.24-1.44.36-2.14a15.68,15.68,0,0,0,.29-2.06c.08-1.32.26-2.53.31-3.6l.2-3.6v0a.53.53,0,0,1,.55-.5.53.53,0,0,1,.49.46s0,.36.13,1,.14,1.56.19,2.66c0,.55,0,1.17,0,1.81s0,1.33,0,2a16.83,16.83,0,0,1-.24,2.11c-.1.71-.19,1.43-.29,2.15a12.78,12.78,0,0,1-.61,2.25,13.29,13.29,0,0,1-.92,2.08,5.87,5.87,0,0,1-1.48,1.76l-.49.36-.4.2-.2.09-.05,0a1.07,1.07,0,0,1-.15.06l-.14,0a2.35,2.35,0,0,1-2.49-.74,4.15,4.15,0,0,1-.66-1.19,4.56,4.56,0,0,1-.27-1.08v0a.52.52,0,0,1,1-.2Z" transform="translate(-3.25 -2.39)"/><path class="cls-11" d="M175,311.43a8.85,8.85,0,0,0,0,1.23,7.42,7.42,0,0,0,.2,1.42c.14.51.42,1.07.78,1,0,.05.34-.06.27,0,.15-.1.44-.19.48-.31a6,6,0,0,0,.65-.86,15.82,15.82,0,0,0,1.22-2.67,42.38,42.38,0,0,0,1.76-7,53.92,53.92,0,0,0,.74-8.55,38.56,38.56,0,0,0-.19-4.66q-.24-2.43-.48-5c-.37-3.35-.55-6.86-1.18-10.33s-1.08-7-1.62-10.57l-2-10.54c-.61-3.49-1.39-6.88-2.1-10.18s-1.35-6.49-2.08-9.49-1.37-5.86-2-8.49c-1.31-5.24-2.33-9.62-3.15-12.66s-1.25-4.78-1.25-4.78v0a.52.52,0,0,1,1-.28l1.4,4.76c.9,3,2.11,7.37,3.51,12.6s2.94,11.35,4.36,18c.72,3.3,1.53,6.7,2.16,10.2s1.36,7,2,10.58c.53,3.58,1.06,7.17,1.59,10.69s.77,7,1.12,10.37c.15,1.68.3,3.34.45,4.95a44.35,44.35,0,0,1,.11,4.86,57.38,57.38,0,0,1-.93,8.8,38.31,38.31,0,0,1-2,7.22,16,16,0,0,1-1.42,2.87,5.57,5.57,0,0,1-1.09,1.24,2.53,2.53,0,0,1-.6.34,1.91,1.91,0,0,1-.93.11,1.76,1.76,0,0,1-1.32-.87,3.52,3.52,0,0,1-.43-1.09,8,8,0,0,1-.18-1.66,9.71,9.71,0,0,1,.06-1.36v0a.52.52,0,0,1,.59-.44A.53.53,0,0,1,175,311.43Z" transform="translate(-3.25 -2.39)"/><path class="cls-11" d="M130.94,98.19a9.49,9.49,0,0,1,.68-2.31,10.4,10.4,0,0,1,1.25-2.15,11.81,11.81,0,0,1,.94-1.09,9.17,9.17,0,0,1,1.16-1,8,8,0,0,1,2.75-1.17,5,5,0,0,1,1.37-.15,5.15,5.15,0,0,1,1.2.08,4.49,4.49,0,0,1,1,.18l.73.24.62.23a.52.52,0,0,1-.22,1h-.08l-.6,0-.67-.06a8.21,8.21,0,0,0-.86,0,3.71,3.71,0,0,0-1,.08,6.7,6.7,0,0,0-1.06.23,6,6,0,0,0-2.07,1,8.2,8.2,0,0,0-1.77,1.6,15.93,15.93,0,0,0-1.3,1.73c-.7,1.1-1.08,1.87-1.08,1.87a.53.53,0,0,1-.71.24A.56.56,0,0,1,130.94,98.19Z" transform="translate(-3.25 -2.39)"/><path class="cls-8" d="M132.1,25c.76.35,1.94-8.77-.66-8.4C129.81,16.84,130.29,24.19,132.1,25Z" transform="translate(-3.25 -2.39)"/><path class="cls-8" d="M141.66,24.19c-.35-2-7.75-.16-7.58,2C134.16,27.24,142.15,27,141.66,24.19Z" transform="translate(-3.25 -2.39)"/><circle class="cls-12" cx="55.85" cy="90.34" r="4.94"/><circle class="cls-12" cx="99.35" cy="88.37" r="4.94"/><path class="cls-13" d="M75.25,69.67s-3.79,28.83-2.63,31.47c1,2.3,10.23,2.52,12.6,1,2.56-1.65-.22-6.49-2.22-12.85C80.28,80.63,78.55,67.53,75.25,69.67Z" transform="translate(-3.25 -2.39)"/><path class="cls-14" d="M75.92,122.24s2.43-3.5,8.56-4.63c6.41-1.15,10.24,1.15,11,1.7a21.26,21.26,0,0,1-8.74,3.74,21.49,21.49,0,0,1-11-.5Z" transform="translate(-3.25 -2.39)"/><path class="cls-15" d="M100.14,105.43c3.24,2.27,1.58,9.27-4.61,13.88-.81-.55-4.64-2.85-11-1.7-6.13,1.13-8.56,4.63-8.56,4.63l-.12.31c-5.56-1.88-8.09-6-7.3-8.06,2-5.11,7.72-1.92,14.66-3.46C90.57,109.38,95.69,102.29,100.14,105.43Z" transform="translate(-3.25 -2.39)"/><path class="cls-8" d="M100.38,70.7c2.87-2.74,12.23.84,12.36,5.41.1,3.54-4.43,1.07-7.74-.07C103.12,75.38,97.44,73.5,100.38,70.7Z" transform="translate(-3.25 -2.39)"/><path class="cls-8" d="M65.57,70.84c-2.73-2.87-12.25.24-12.6,4.8-.28,3.53,4.36,1.28,7.73.3C62.61,75.38,68.37,73.77,65.57,70.84Z" transform="translate(-3.25 -2.39)"/><path class="cls-2" d="M105.57,196.38c-.91,1-1.15,21.75,14.17,21.09s11.37-23.23,10.55-24.06C128.48,191.6,108.87,192.92,105.57,196.38Z" transform="translate(-3.25 -2.39)"/><circle class="cls-16" cx="84.36" cy="194.15" r="2.31"/><circle class="cls-16" cx="83.21" cy="213.92" r="2.31"/><circle class="cls-16" cx="82.55" cy="234.03" r="2.31"/><circle class="cls-16" cx="82.96" cy="255.69" r="2.31"/><circle class="cls-16" cx="83.04" cy="275.71" r="2.31"/><circle class="cls-16" cx="82.8" cy="297.88" r="2.31"/><path class="cls-11" d="M75.77,69.74l-.6,7c-.37,4.2-1,9.78-1.41,15.36-.12,1.39-.25,2.78-.32,4.15a34.78,34.78,0,0,0-.07,3.92c-.24.76.83,1.3,1.89,1.61a16.76,16.76,0,0,0,3.17.59,18.55,18.55,0,0,0,4.87-.11,6.39,6.39,0,0,0,1.24-.35l.36-.18.12-.07a.51.51,0,0,1,.69.23.5.5,0,0,1-.17.66l-.5.33a6.82,6.82,0,0,1-1.46.57,18.07,18.07,0,0,1-5.26.47,17.36,17.36,0,0,1-3.53-.49,7,7,0,0,1-2-.8,5.68,5.68,0,0,1-.6-.5,4.28,4.28,0,0,1-.32-.41l0,0c.07.12-.1-.18-.08-.16v-.06l0-.16-.08-.32a4.41,4.41,0,0,1-.11-.63,34.45,34.45,0,0,1,0-4.19c0-1.4.15-2.81.25-4.22.5-5.62,1.19-11.2,1.81-15.38s1.14-6.94,1.14-6.94a.52.52,0,0,1,1,.14Z" transform="translate(-3.25 -2.39)"/><circle class="cls-17" cx="111.55" cy="104.35" r="9.23"/><circle class="cls-17" cx="52.56" cy="107.32" r="9.23"/><path class="cls-4" d="M161.43,190.26a1,1,0,0,0-1,0,2.24,2.24,0,0,0,.76,3.9,1.47,1.47,0,0,0,1.79-1C163.39,191.82,162.55,190.84,161.43,190.26Z" transform="translate(-3.25 -2.39)"/><path class="cls-4" d="M165.15,197.72v0a1.46,1.46,0,0,0-2.47-1l-.1.11a1.49,1.49,0,0,0-.38,1.46c0,.07,0,.14.07.21A1.49,1.49,0,0,0,165.15,197.72Z" transform="translate(-3.25 -2.39)"/><path class="cls-4" d="M158.77,195.25a.93.93,0,0,0-1.6,0,1.89,1.89,0,0,0-.1,2,1,1,0,0,0,1.8,0A1.91,1.91,0,0,0,158.77,195.25Z" transform="translate(-3.25 -2.39)"/><path class="cls-4" d="M55,298c-.09-.3-.19-.59-.3-.88a1.54,1.54,0,0,0-2.95,0c-.11.29-.22.58-.31.88A1.84,1.84,0,1,0,55,298Z" transform="translate(-3.25 -2.39)"/><path class="cls-4" d="M57.44,301.4a1.51,1.51,0,0,0-2.75,1.16,8.93,8.93,0,0,1,.13,1.55,1.66,1.66,0,0,0,3.31,0A4.8,4.8,0,0,0,57.44,301.4Z" transform="translate(-3.25 -2.39)"/><path class="cls-4" d="M55.74,295.24c0,.14,0,.28,0,.41a1.67,1.67,0,0,0,3.34,0c0-.13,0-.27,0-.41C59.43,293,55.49,293,55.74,295.24Z" transform="translate(-3.25 -2.39)"/><path class="cls-4" d="M170.16,245.58a.23.23,0,0,0,0,.46A.23.23,0,0,0,170.16,245.58Z" transform="translate(-3.25 -2.39)"/><path class="cls-4" d="M170.56,248.43a25.78,25.78,0,0,1-.84,3.78c-.42,1.25-1.46,2.07-2,3.28-.22.5.3,1,.75,1,3.36.21,4.4-5.28,4.6-7.7A1.3,1.3,0,0,0,170.56,248.43Z" transform="translate(-3.25 -2.39)"/><path class="cls-4" d="M82.25,409.42a31.39,31.39,0,0,1-3.36-2.09,10.33,10.33,0,0,1-3-2.88c-.23-.45-.91-.05-.68.4a15.2,15.2,0,0,1,.58,2.13,18.32,18.32,0,0,0,.86,2,10.15,10.15,0,0,0,3,3.71C82.19,414.68,84.85,410.79,82.25,409.42Z" transform="translate(-3.25 -2.39)"/><path class="cls-4" d="M77.65,416.75c-.55-.66-1.37-1-2-1.6a4,4,0,0,1-1.07-2.92c0-.39-.62-.48-.68-.09a7.18,7.18,0,0,0,0,3.71,3.78,3.78,0,0,0,3,2.72C77.92,418.69,78.18,417.37,77.65,416.75Z" transform="translate(-3.25 -2.39)"/><path class="cls-4" d="M142.58,412.34c-1.54-.27-3.08-.11-4.63-.27s-3.87-.26-5.15-1.19c-.38-.28-.86.34-.5.65.62.55,1.11,1.23,1.73,1.8a9.16,9.16,0,0,0,2.63,1.42c1.76.75,4.06,1.33,5.92.67C143.92,414.94,144.27,412.63,142.58,412.34Z" transform="translate(-3.25 -2.39)"/><path class="cls-4" d="M138.77,417.92c-1-1-2.91-.61-4.2-.48-.57.06-1,.77-.51,1.23,1.19,1.07,3.25,2.34,4.71,1.05A1.28,1.28,0,0,0,138.77,417.92Z" transform="translate(-3.25 -2.39)"/><path class="cls-4" d="M152.45,330.06c-.15-.74-.31-1.48-.46-2.22a1.33,1.33,0,0,0-2.55,0,6.06,6.06,0,0,0,0,3.05A1.56,1.56,0,0,0,152.45,330.06Z" transform="translate(-3.25 -2.39)"/><path class="cls-4" d="M153.93,337.56a4.11,4.11,0,0,0-1.6-2.19,1.24,1.24,0,0,0-1.81.74,12.91,12.91,0,0,1-.38,1.45,2,2,0,1,0,3.79,0Z" transform="translate(-3.25 -2.39)"/><path class="cls-4" d="M147.64,332.11c-.7-1.09-2.7-.76-2.6.7a11.42,11.42,0,0,0,.49,3.4,1.64,1.64,0,0,0,3.13,0C149.13,334.78,148.39,333.29,147.64,332.11Z" transform="translate(-3.25 -2.39)"/><path class="cls-4" d="M84.94,477.11a1.87,1.87,0,0,0-2-.82,4,4,0,0,0-.51.25,1.72,1.72,0,0,0-.79,1.47,2.61,2.61,0,0,0,.61,1.74l.39.38.55.34a1.29,1.29,0,0,0,1.26,0A2.36,2.36,0,0,0,84.94,477.11Z" transform="translate(-3.25 -2.39)"/><path class="cls-4" d="M82.42,476.54l.09-.07C82.27,476.63,82.3,476.61,82.42,476.54Z" transform="translate(-3.25 -2.39)"/><path class="cls-4" d="M83.18,480.47h-.07C83.39,480.61,83.33,480.57,83.18,480.47Z" transform="translate(-3.25 -2.39)"/><path class="cls-4" d="M84,471a1,1,0,0,0-1.72,0,1.27,1.27,0,0,0-.32.81c0,.09.13.45.07.56-.34.73.43,1.81,1.24,1.23A1.88,1.88,0,0,0,84,471Z" transform="translate(-3.25 -2.39)"/><path class="cls-4" d="M88.11,474.83a1.65,1.65,0,0,0-1.41,2.46,1.93,1.93,0,0,0,.47.63,1.35,1.35,0,0,0,1.88,0,2.08,2.08,0,0,0,.47-.63A1.65,1.65,0,0,0,88.11,474.83Z" transform="translate(-3.25 -2.39)"/><path class="cls-4" d="M162.23,471.43c-.46-1-.88-2.05-1.38-3.05a1.05,1.05,0,0,0-1.8,0,5,5,0,0,0,.27,4.75A1.69,1.69,0,0,0,162.23,471.43Z" transform="translate(-3.25 -2.39)"/><path class="cls-4" d="M162.54,477.3a6,6,0,0,0-.5-.8,1.31,1.31,0,0,0-2.21,0,6,6,0,0,0-.5.8,1.86,1.86,0,1,0,3.21,0Z" transform="translate(-3.25 -2.39)"/><path class="cls-18" d="M103.36,29.76c-3-.73-5.19,1.88-7.43,3.43-2.6,1.78-5.69,3.06-8,5.17a1.13,1.13,0,0,0,.23,1.77c2.92,1.44,6.26-.19,8.92-1.57s7.56-3.74,7.45-7.28A1.59,1.59,0,0,0,103.36,29.76Z" transform="translate(-3.25 -2.39)"/><path class="cls-18" d="M128.72,47.59a1.29,1.29,0,0,0-1.25.33c-1.25,1.09-1,3.77-.87,5.27A2.39,2.39,0,0,0,129,55.54a2.37,2.37,0,0,0,2.35-2.35C131.25,51.29,130.68,48.39,128.72,47.59Z" transform="translate(-3.25 -2.39)"/><path class="cls-18" d="M137.7,52.14a5.55,5.55,0,0,0-2-3.07,1.55,1.55,0,0,0-1.85.24c-1.21,1-1.24,3.43-.41,4.64A2.36,2.36,0,0,0,137.7,52.14Z" transform="translate(-3.25 -2.39)"/><path class="cls-18" d="M140.85,47.3A3.9,3.9,0,0,0,139.3,46a.82.82,0,0,0-1,.13,2.91,2.91,0,0,0-.74,2,1.7,1.7,0,0,0,.87,1.51,2.59,2.59,0,0,0,1.38.36,1,1,0,0,0,.84-.49A2.29,2.29,0,0,0,140.85,47.3Z" transform="translate(-3.25 -2.39)"/><path class="cls-18" d="M86.79,22.26c-2.63.18-5.85,1.43-8.86,1.86,1.63-1.13,3.29-2.22,4.81-3.48,1.81-1.5.79-4.74-1.38-5.24C75.08,14,68.11,16.73,61.63,17.09c.44-.3.89-.58,1.32-.85a38.09,38.09,0,0,1,8-3.57c1.08-.37,6.7-.83,5.76-3.29a2.77,2.77,0,0,0-.1-.26A2.09,2.09,0,0,0,74.7,7.66c-5.65-.66-23.8,4.4-20,13,1.86,4.17,8.58,3.18,14.8,2-.4.36-.79.72-1.16,1.12-1.56,1.62-1,3.83.66,5.08,3.6,2.67,7.28,2.24,11.08,1.46a3.59,3.59,0,0,0,5.83,1.79,20.56,20.56,0,0,0,3.82-4.65C91,25.29,89.39,22.07,86.79,22.26Z" transform="translate(-3.25 -2.39)"/><path class="cls-18" d="M96.53,26.44c-1.78-.78-3.47.54-4.7,1.72S89.4,31,89.73,32.64a1.21,1.21,0,0,0,1.47.84,5.49,5.49,0,0,0,1.87-1.18c.69-.61,1.47-1.13,2.2-1.7a4.68,4.68,0,0,0,1.61-2.14C97.09,27.88,97.27,26.77,96.53,26.44Z" transform="translate(-3.25 -2.39)"/></g></g></svg>