<svg xmlns="http://www.w3.org/2000/svg" viewBox="0 0 334.02 490.53"><defs><style>.cls-1{isolation:isolate;}.cls-2{fill:#1e1d21;}.cls-3{fill:#516a8e;}.cls-4{fill:#5e5d6b;}.cls-23,.cls-42,.cls-46,.cls-5,.cls-8{opacity:0.2;}.cls-25,.cls-29,.cls-31,.cls-38,.cls-42,.cls-5,.cls-8{mix-blend-mode:multiply;}.cls-29,.cls-6,.cls-8{fill:#650e81;}.cls-7{fill:#7c8fb5;}.cls-9{fill:#f2cabb;}.cls-10{fill:#e1dee2;}.cls-11,.cls-21{fill:#ce8d7e;}.cls-12{fill:#414048;}.cls-13{fill:#44403e;}.cls-14{fill:#3c2e2b;}.cls-15{fill:#a0beea;}.cls-16{fill:#425b7a;}.cls-17{fill:#3e5063;}.cls-18{fill:#1e120d;}.cls-19,.cls-41,.cls-46{fill:#fff;}.cls-19,.cls-45{opacity:0.8;}.cls-19,.cls-46{mix-blend-mode:soft-light;}.cls-20{fill:#d3ced6;}.cls-21,.cls-22,.cls-38{opacity:0.4;}.cls-22{fill:#db6e83;}.cls-23{fill:#c5e6f8;}.cls-24{fill:#434040;}.cls-25{fill:#e38394;opacity:0.3;}.cls-26{fill:#5b5b5f;}.cls-27{fill:#eac2b5;}.cls-28{fill:#4f3209;}.cls-29,.cls-31{opacity:0.1;}.cls-30{fill:#e49c52;}.cls-32{fill:#7b797c;}.cls-33,.cls-45{fill:#656268;}.cls-34{fill:#f9c658;}.cls-35{fill:#b77a70;}.cls-36{fill:#646466;}.cls-37{fill:#e7908c;opacity:0.5;}.cls-38,.cls-42{fill:#ea7f7f;}.cls-39{fill:#291d19;}.cls-40{fill:#494f7e;}.cls-41{opacity:0.7;}.cls-43{fill:#dd7f37;}.cls-44{fill:#4f3327;}</style></defs><title>pareja-viejos-1</title><g class="cls-1"><g id="Capa_1" data-name="Capa 1"><path class="cls-2" d="M105.48,479.18s12.33,8.4,9.94,13.3-38.1-.11-41.09-3-1.56-11.06-1.56-11.06l0-.66c5.85.57,23.52,2.11,32.65,1Z" transform="translate(-9.98 -4)"/><path class="cls-3" d="M105.66,185.15c11.36-2.2,9.89-11,9.89-11l-.13-1.78.5,0c1.3.4,2.44,1.69,3.41,3.43,2.62,4.7,3.89,12.55,2.82,14.16-1.41,2.13-15.7-4.4-16.47-4.75Z" transform="translate(-9.98 -4)"/><path class="cls-3" d="M67.56,319.78a25.28,25.28,0,0,0,3.89,6.7l0,0-.29-.3c-8,6.42-28.84,6-28.84,6-.75-1.71-1.45-3.49-2.11-5.32l.46-.17s14.57.81,26.67-6.88Z" transform="translate(-9.98 -4)"/><path class="cls-3" d="M105.66,185.15s-9.52,11.36-13.19,11.36-13.06-12.4-12.62-17.17A21.21,21.21,0,0,1,83,180.4S94.31,187.34,105.66,185.15Z" transform="translate(-9.98 -4)"/><path class="cls-4" d="M76.9,330.61c6.55,2.62,34.19,2.75,60.28.07,1.34-.13,2.69-.29,4-.44,16.95-1.93,29.19-2.95,37.7-13.56l0,0c11.72,91.41-.37,160.66-.37,160.66a8.55,8.55,0,0,1-2.35,1.49c-8.29,3.74-28.41,2.37-35.35.68-1.5-.35-2.38-.72-2.42-1.08C134.39,445.59,135.71,357,135.71,357l-.15-.37a127.53,127.53,0,0,1-16,5.5l-9.55,115.41c.19,2.76-3.07,2.88-5.12,3.13-9.12,1.12-25.34-1.08-31.19-1.66-2.61-.06-2.88-1.47-2.88-1.47-4.55-31.61-8.8-125.2-8.8-125.2,2.75-.28,3.85-6.59,3.85-6.59s4.42,5.51,7.41,2.72c1.52-1.38.46-5.58-.75-8.94l.31-.11a5.4,5.4,0,0,0,4.4-1.83c2-1.95-4.44-9.43-5.87-11.06l0,0A13.46,13.46,0,0,0,76.9,330.61Z" transform="translate(-9.98 -4)"/><path class="cls-4" d="M179.09,317.81c-1.1.74-2.19,1.47-3.3,2.17a29.6,29.6,0,0,1-10.65,6.12c-27.95,14.52-59.63,19.32-91.1,19.45,0,.23,0,.43,0,.64,0-.06.07-.12.1-.19s-.07.13-.1.19a3.07,3.07,0,0,1-.73,2.27,2.83,2.83,0,0,1-.88.56,21.07,21.07,0,0,1-10.12,8.69c1,20.34,4.64,92.77,8.54,119.82,0,0,.27,1.41,2.88,1.47,5.85.58,22.07,2.78,31.19,1.66,2-.25,5.31-.37,5.12-3.13l9.55-115.41a127.53,127.53,0,0,0,16-5.5l.15.37s0,.45,0,1.27c4.15-2.08,7.53-5.68,11.48-8.15-.14-1.37-.29-2.74-.47-4.11.18,1.37.33,2.74.47,4.11a18.8,18.8,0,0,1,3.93-1.91,18.8,18.8,0,0,0-3.93,1.91c4.35,43.16-10.85,86.33-6,129.49,7.2,1.66,26.86,2.94,35-.75a8.55,8.55,0,0,0,2.35-1.49S190.56,408.66,179.09,317.81Z" transform="translate(-9.98 -4)"/><g class="cls-5"><path class="cls-6" d="M65.91,345.74s-1.1,6.31-3.85,6.59c0,0,.09,2,.26,5.38A21.07,21.07,0,0,0,72.44,349C69.54,350.25,65.91,345.74,65.91,345.74Z" transform="translate(-9.98 -4)"/><path class="cls-6" d="M137.18,330.68c-26.09,2.68-53.73,2.55-60.28-.07a13.46,13.46,0,0,1-5.45-4.13l0,0c1.43,1.63,7.82,9.11,5.87,11.06a5.4,5.4,0,0,1-4.4,1.83l-.31.11a24.06,24.06,0,0,1,1.47,6c31.47-.13,63.15-4.93,91.1-19.45-6.65,2.28-14.57,3.07-23.93,4.14C139.87,330.39,138.52,330.55,137.18,330.68Z" transform="translate(-9.98 -4)"/><path class="cls-6" d="M179,316.7l0,0a29,29,0,0,1-3.12,3.3c1.11-.7,2.2-1.43,3.3-2.17C179,317.44,179,317.07,179,316.7Z" transform="translate(-9.98 -4)"/><path class="cls-6" d="M147.17,350.11c-3.95,2.47-7.33,6.07-11.48,8.15-.14,10.89-1,89.63,2.77,120.19,0,.36.92.73,2.42,1.08l.31.07C136.32,436.44,151.52,393.27,147.17,350.11Z" transform="translate(-9.98 -4)"/></g><path class="cls-7" d="M142.31,176.35c-13.37-6.68-22.71-.72-22.71-.72l-.27.13c2.62,4.7,3.89,12.55,2.82,14.16-1.41,2.13-15.7-4.4-16.47-4.75l0,0s-9.52,11.36-13.19,11.36-13.06-12.4-12.62-17.17c-5.45-1.41-17.35-2.64-28.78,8.38-19.39,18.68-27.92,93-10.9,139.22l.46-.17s14.57.81,26.67-6.88l.26-.11a25.28,25.28,0,0,0,3.89,6.7,13.46,13.46,0,0,0,5.45,4.13c6.55,2.62,33.81,4.88,59.91,2.2,16.95-1.93,33.59-5.52,42.1-16.13a36,36,0,0,0,3.8-5.85c5.08-9.65,5-34.36-11-61.07a70.92,70.92,0,0,0,26.34,20.4c1.1.48,2.48-.44,4-2.16,4.59-5.23,10.24-17.94,12.13-22.33.42-1,.64-1.52.64-1.52C180.23,224.36,169.41,189.92,142.31,176.35Z" transform="translate(-9.98 -4)"/><path class="cls-8" d="M152.49,207.9c4,16.45,12.84,31.43,22.37,45.4a69.24,69.24,0,0,0,23.24,16.86c1.1.48,2.48-.44,4-2.16,2.37-2.7,5-7.38,7.29-11.89C185.12,248.12,165.08,230.43,152.49,207.9Z" transform="translate(-9.98 -4)"/><path class="cls-8" d="M67.56,216.3c1.87,33.7-10.63,49.09-1.83,98.37.16-.1,1.4,5.32,1.57,5.22l.26-.11a25.28,25.28,0,0,0,3.89,6.7,13.46,13.46,0,0,0,5.45,4.13c5.12,2.05,22.89,3.87,42.86,3.29-1.27-.34-2.55-.7-3.84-1.09C63.16,317.42,78.55,258.07,67.56,216.3Z" transform="translate(-9.98 -4)"/><path class="cls-9" d="M223.16,260.57c.68.53,6.18,4.68,6.53,6.55s-.15,4.51-3,4.69-9.32-2.88-10.09-3.26c.7.57,5.41,4.22,5.12,5.74-.44,2.46-3.28,3.72-5.21,3.39-6.15-1.08-13.8-9-14.42-9.68,4.59-5.23,10.24-17.94,12.13-22.33l.09,0s7.41-2.2,11.54-.83c2,.68,3.79,4.44,1.94,5.49s-4.4,2.2-4.4,2.2,9.85,2.84,10.71,4.77c.61,1.36.92,4.7-2.27,5.06C228.86,262.73,223.82,260.81,223.16,260.57Z" transform="translate(-9.98 -4)"/><path class="cls-2" d="M176.23,478.85c.57.26,10.37,5.08,8.57,10-1.82,5.12-39,3.84-42.32,1.27s-1.65-10.44-1.65-10.44l0-.2C147.82,481.22,167.94,482.59,176.23,478.85Z" transform="translate(-9.98 -4)"/><path class="cls-10" d="M117.29,21.48s23,4.66,15.12,10.42a10.08,10.08,0,0,1-7.91,1.45,21.08,21.08,0,0,1-6.6-2.49C111,27,105.61,25.23,99.7,27.5c-7.12,2.77-3.3,9.08-11.52,6.33s-22.27-10.16-36-3.56A19.73,19.73,0,0,0,40.92,47s9,28.82-5.22,58.21a14.3,14.3,0,0,0-8.28-3.34c-.71-1.65-10.86-26.11-7.68-44.43,1.1-6.28,9.61-6.88,9.61-6.88s-4.66-18.11,20.36-33,34.34-8.8,28.58-4.4C78.29,13.21,130.76,8.81,117.29,21.48Z" transform="translate(-9.98 -4)"/><path class="cls-9" d="M149.74,120.12c-1.1-8-6.89-14-6.89-14s-5.49-58.83-18.4-72.54l0-.22a28.5,28.5,0,0,0-6-4.05c-6.92-3.89-12.92-4.07-18.83-1.8-7.12,2.77-3.3,9.08-11.52,6.33s-22.27-10.16-36-3.56A19.73,19.73,0,0,0,40.92,47s9,28.82-5.22,58.21a14.3,14.3,0,0,0-8.28-3.34,18.86,18.86,0,0,0-9.15,1.92c-13.54,6.24-9.25,32.42,4,38.84C32.39,147.6,42,139.9,42,139.9s12.56,22.69,39.53,27.61L83,180.4s11.36,6.94,22.71,4.75,9.89-11,9.89-11l-.13-1.78-.55-7.93C143.14,154,150.68,127,149.74,120.12Z" transform="translate(-9.98 -4)"/><path class="cls-8" d="M115.27,170.24l-.4-5.8a64.53,64.53,0,0,1-14.33,3.49,60.21,60.21,0,0,1-19-.42l.08.76C92.32,172.6,104,172.78,115.27,170.24Z" transform="translate(-9.98 -4)"/><path class="cls-9" d="M72.57,339.52c1.21,3.36,2.27,7.56.75,8.94-3,2.79-7.41-2.72-7.41-2.72s-1.1,6.31-3.85,6.59-5.76-3.58-5.76-3.58-.83,5.78-5.49,3.58-8.53-20.07-8.53-20.07,20.8.38,28.84-6l.29.3c1.43,1.63,7.82,9.11,5.87,11.06a5.4,5.4,0,0,1-4.4,1.83Z" transform="translate(-9.98 -4)"/><path class="cls-11" d="M42.84,332.14c.62,2.41,1.33,4.81,2.12,7.17a66.33,66.33,0,0,0,2.63,6.93,24.42,24.42,0,0,0,1.73,3.15,8.12,8.12,0,0,0,1,1.3,1.69,1.69,0,0,0,.56.47l.28.2c-.05,0,.24.1.34.14l.44.17.31.06a2.6,2.6,0,0,0,.63,0,1.84,1.84,0,0,0,1.06-.48,3.41,3.41,0,0,0,.8-1.19,6.12,6.12,0,0,0,.45-1.5,1.09,1.09,0,0,1,1.26-.9,1.12,1.12,0,0,1,.66.37h0a13.46,13.46,0,0,0,2.5,2.33l.69.41a4.25,4.25,0,0,0,.68.28,1.58,1.58,0,0,0,.65.12l.15,0H62l-.15,0h0l.46-.11a.14.14,0,0,1,.09-.08,2.65,2.65,0,0,0,.22-.17,3.14,3.14,0,0,0,.47-.54,7.88,7.88,0,0,0,.79-1.44,17,17,0,0,0,1-3.37,1,1,0,0,1,1.23-.82,1.11,1.11,0,0,1,.6.35,9.71,9.71,0,0,0,4,3.09,2.05,2.05,0,0,0,1,.07,1.9,1.9,0,0,0,.87-.42,1.28,1.28,0,0,0,.44-.74,4.11,4.11,0,0,0,.12-1.2,21.84,21.84,0,0,0-1.07-5.43c-.14-.47-.27-.87-.45-1.33l-.51-1.36-1-2.72a.57.57,0,0,1,.34-.74.59.59,0,0,1,.74.3l1.16,2.66L73,338.6c.2.43.41.94.57,1.38A20.7,20.7,0,0,1,75,345.84a6.52,6.52,0,0,1-.13,1.68,3.23,3.23,0,0,1-1,1.72,3.74,3.74,0,0,1-1.69.87,3.88,3.88,0,0,1-1.86,0,7.91,7.91,0,0,1-2.93-1.51,15.89,15.89,0,0,1-2.25-2.17l1.83-.47a19.06,19.06,0,0,1-1.11,3.83,9.65,9.65,0,0,1-1,1.86,4.69,4.69,0,0,1-.76.88,5.69,5.69,0,0,1-.51.41,6.18,6.18,0,0,1-.73.36l-.46.11h0l-.17,0h-.25l-.31,0a3.51,3.51,0,0,1-1.2-.2,5.75,5.75,0,0,1-1-.42l-.93-.54a15.18,15.18,0,0,1-3-2.8l1.92-.52a8.34,8.34,0,0,1-.64,2.09,5.46,5.46,0,0,1-1.33,1.87,4,4,0,0,1-2.32,1,5.31,5.31,0,0,1-2.28-.42,3.08,3.08,0,0,1-.52-.23l-.51-.33a3.51,3.51,0,0,1-.86-.74,9.59,9.59,0,0,1-1.28-1.64,24.53,24.53,0,0,1-1.78-3.5,76.31,76.31,0,0,1-4.14-14.61.58.58,0,0,1,1.13-.25Z" transform="translate(-9.98 -4)"/><path class="cls-12" d="M119.28,361s.51-.25,1.42-.63l1.66-.68c.62-.29,1.38-.53,2.13-.89,1.52-.7,3.29-1.48,5.21-2.25,1-.39,1.94-.8,3-1.17l1.53-.58.38-.15.1,0h0l0,0h0l.05,0,.19-.09.76-.35,3.07-1.37c1-.45,1.9-.93,2.82-1.37s1.83-.81,2.61-1.32l2.29-1.28a14.76,14.76,0,0,0,1.88-1.14l1.41-1c.79-.53,1.26-.81,1.27-.81l.17-.11a1.15,1.15,0,0,1,1.46,1.75s-.38.44-1.09,1.19l-1.3,1.34-.82.83c-.3.26-.64.5-1,.77l-2.28,1.7a24.05,24.05,0,0,1-2.68,1.69c-.95.53-1.94,1.16-2.95,1.65l-3,1.43-.76.35-.2.08-.15.07-.1,0-.41.14-1.61.57c-1.07.39-2.13.73-3.15,1.07-2.05.68-4,1.26-5.63,1.72a18.24,18.24,0,0,1-2.27.48l-1.75.32c-1,.17-1.54.24-1.54.24a1.17,1.17,0,0,1-.66-2.22Z" transform="translate(-9.98 -4)"/><path class="cls-11" d="M18.61,120v-.35a9,9,0,0,1,.09-1,10.86,10.86,0,0,1,1-3.31,8.79,8.79,0,0,1,1.41-2,7.45,7.45,0,0,1,2.25-1.68,9.25,9.25,0,0,1,4.34-1c.29,0,.41,0,.84,0l.63.09a11.27,11.27,0,0,1,2.85.75,11.56,11.56,0,0,1,4.4,3.17,10.86,10.86,0,0,1,1.36,1.84,14.68,14.68,0,0,1,1.4,3.06,9.06,9.06,0,0,1,.33,1.26.88.88,0,0,1-1.63.56l0-.06-.52-1a17.3,17.3,0,0,0-1.67-2.35,11.74,11.74,0,0,0-1.3-1.36,10.05,10.05,0,0,0-1.61-1.23,9,9,0,0,0-1.89-.93,6.8,6.8,0,0,0-1-.3,5.4,5.4,0,0,0-1.13-.2l-.64-.08h-.45a5.33,5.33,0,0,0-1.06,0,6.38,6.38,0,0,0-1.9.46,5.82,5.82,0,0,0-1.55,1A8.62,8.62,0,0,0,22,116.76a11.08,11.08,0,0,0-1.31,2.45c-.25.66-.36,1-.36,1a.87.87,0,0,1-.82.91.88.88,0,0,1-.91-.83V120Z" transform="translate(-9.98 -4)"/><path class="cls-13" d="M73.41,68.69c-1.44-5.91-9.2-5.36-15.55-2S50,77.05,50.8,78.62c1.37,2.75,5.12-1.94,11.05-3.54C68.62,73.25,74.41,72.8,73.41,68.69Z" transform="translate(-9.98 -4)"/><path class="cls-13" d="M109.78,66.79c.23-5.37,7.07-6.24,13.15-4.44s10.64,5.95,9.85,9.4c-.55,2.38-6.44-1-11.87-1.4C114.72,69.93,109.62,70.54,109.78,66.79Z" transform="translate(-9.98 -4)"/><path class="cls-10" d="M21.76,46.47c.12-1.65-6.59-6.23-9.53-1.83S21.58,49,21.76,46.47Z" transform="translate(-9.98 -4)"/><path class="cls-10" d="M19.38,31.63c-2.49,1.39,4,13.93,5.49,13.19S27.26,27.24,19.38,31.63Z" transform="translate(-9.98 -4)"/><path class="cls-14" d="M78.73,133.86s2.39.6,6.06,1.2c1.83.29,4,.55,6.27.73,1.15.11,2.33.14,3.54.16s2.43-.07,3.65-.08,2.43-.19,3.62-.33,2.35-.36,3.43-.67,2.19-.51,3.14-.93,1.91-.68,2.7-1.12l2.18-1.17c.64-.37,1.13-.8,1.57-1.09l1.37-1,.07-.06a.59.59,0,0,1,.81.14.57.57,0,0,1-.09.76l-1.31,1.18c-.44.36-.92.86-1.56,1.32L112,134.35a31.28,31.28,0,0,1-2.83,1.36,23.66,23.66,0,0,1-3.3,1.14c-1.16.36-2.4.52-3.64.79s-2.53.32-3.81.42-2.56.11-3.82,0-2.49-.1-3.68-.24a51.75,51.75,0,0,1-6.42-1.06A43.58,43.58,0,0,1,78.37,135a.59.59,0,0,1-.32-.76A.58.58,0,0,1,78.73,133.86Z" transform="translate(-9.98 -4)"/><path class="cls-11" d="M58.21,113.28l2.16.66c.64.21,1.41.37,2.2.6a20.07,20.07,0,0,0,2.52.51,13.43,13.43,0,0,0,2.48.22l1.12,0,1-.17c.29-.1.56-.18.8-.24a2.62,2.62,0,0,0,.6-.26c.32-.16.53-.24.53-.24l.12,0a.58.58,0,0,1,.74.32.6.6,0,0,1-.12.63l-.52.47a4.21,4.21,0,0,1-.65.5c-.27.15-.58.35-.94.51a9.54,9.54,0,0,1-2.54.63,15.22,15.22,0,0,1-2.93-.11,17.26,17.26,0,0,1-5-1.65,12.88,12.88,0,0,1-2-1.25.6.6,0,0,1-.1-.83A.63.63,0,0,1,58.21,113.28Z" transform="translate(-9.98 -4)"/><path class="cls-11" d="M63.33,119.7l1.63,0a16,16,0,0,0,3.41-.26A6.33,6.33,0,0,0,70,119a6.06,6.06,0,0,0,1.27-.73,5.32,5.32,0,0,0,.82-.72c.2-.2.32-.3.32-.3l.09-.08a.58.58,0,0,1,.82.07.59.59,0,0,1,.11.57s-.07.18-.21.48a4.53,4.53,0,0,1-.73,1.21,4.75,4.75,0,0,1-.67.68,3.76,3.76,0,0,1-.87.64,8.34,8.34,0,0,1-2.15.83,10.6,10.6,0,0,1-2.22.14,9,9,0,0,1-1.87-.29,7.44,7.44,0,0,1-1.71-.67.6.6,0,0,1-.22-.82.6.6,0,0,1,.53-.29Z" transform="translate(-9.98 -4)"/><path class="cls-11" d="M120.15,107.58s.76.44,2,1a14.68,14.68,0,0,0,4.46,1.29,6.93,6.93,0,0,0,2.37-.08,6,6,0,0,0,1.07-.25,3.67,3.67,0,0,0,.93-.36,8.36,8.36,0,0,0,1.37-.72l.53-.3.08,0a.58.58,0,0,1,.79.21.57.57,0,0,1-.08.68l-.46.5a6.55,6.55,0,0,1-1.38,1.18,5.09,5.09,0,0,1-1.08.62,5.3,5.3,0,0,1-1.32.49,9,9,0,0,1-3,.25,11.23,11.23,0,0,1-5.12-2,9.93,9.93,0,0,1-1.84-1.62.59.59,0,0,1,.08-.83A.61.61,0,0,1,120.15,107.58Z" transform="translate(-9.98 -4)"/><path class="cls-11" d="M120.72,111.1a9.11,9.11,0,0,0,1,1.11,6.54,6.54,0,0,0,1.15.87,3.4,3.4,0,0,0,.69.34,6.25,6.25,0,0,0,.74.21,5.05,5.05,0,0,0,1.6.07,7.18,7.18,0,0,1,.78-.09l.72-.17c.45-.09.83-.24,1.1-.31s.44-.11.44-.11l.08,0a.6.6,0,0,1,.69.47.61.61,0,0,1-.19.56l-.39.3a7,7,0,0,1-1.1.72,7.14,7.14,0,0,1-1.81.68,7,7,0,0,1-2.34,0,6,6,0,0,1-2.18-1,5.41,5.41,0,0,1-1.35-1.49,4.66,4.66,0,0,1-.72-1.76.59.59,0,0,1,.51-.67A.62.62,0,0,1,120.72,111.1Z" transform="translate(-9.98 -4)"/><path class="cls-3" d="M105.3,221.79c-1.35-1.12-4.19.38-12.82,1.28-7,.74-10.34-1-11.36.19-2,2.38-.22,21,1.28,23.63,4.95,8.61,21.43,5.31,25.65.73S106.4,222.71,105.3,221.79Z" transform="translate(-9.98 -4)"/><path class="cls-3" d="M162.46,234.62s-4.77,10.44-18.69,6.23C135,238.2,134.06,215,134.06,215a26.3,26.3,0,0,0,18.32-4.77s3.39,9.62,5.31,14.29S162.46,234.62,162.46,234.62Z" transform="translate(-9.98 -4)"/><path class="cls-15" d="M123.57,207.83a2.41,2.41,0,1,0-1.32,3.46A2.65,2.65,0,0,0,123.57,207.83Z" transform="translate(-9.98 -4)"/><path class="cls-15" d="M130.4,225.82a2.41,2.41,0,1,0-1.32,3.46A2.65,2.65,0,0,0,130.4,225.82Z" transform="translate(-9.98 -4)"/><path class="cls-15" d="M138.28,245.79a2.41,2.41,0,1,0-1.32,3.46A2.64,2.64,0,0,0,138.28,245.79Z" transform="translate(-9.98 -4)"/><path class="cls-15" d="M147.25,268a2.41,2.41,0,1,0-1.32,3.46A2.63,2.63,0,0,0,147.25,268Z" transform="translate(-9.98 -4)"/><path class="cls-15" d="M152.33,293.92a2.41,2.41,0,1,0-2.26,2.93A2.65,2.65,0,0,0,152.33,293.92Z" transform="translate(-9.98 -4)"/><path class="cls-11" d="M219.91,255.86a14.06,14.06,0,0,1-.36,2.12,19.94,19.94,0,0,1-1.66,4.42,18,18,0,0,1-1.41,2.17,9.81,9.81,0,0,1-1.63,1.65,4.37,4.37,0,0,1-.79.53,3.34,3.34,0,0,1-.67.32c-.4.15-.62.21-.62.21a.57.57,0,0,1-.54-1l.1-.09.4-.33a2,2,0,0,0,.43-.38c.15-.17.33-.32.51-.55a12.25,12.25,0,0,0,1.14-1.58,15.21,15.21,0,0,0,1.14-2c.38-.7.74-1.42,1.06-2.1s.65-1.32.89-1.88c.52-1.11.89-1.84.89-1.84a.59.59,0,0,1,.8-.26A.6.6,0,0,1,219.91,255.86Z" transform="translate(-9.98 -4)"/><path class="cls-16" d="M178.44,316.33l.81-1.15a25,25,0,0,0,2.08-3.32,21.27,21.27,0,0,0,2.27-5.51,44.21,44.21,0,0,0,1.09-7.76,57.31,57.31,0,0,0-.29-9.33,83.74,83.74,0,0,0-1.75-10.3,93.79,93.79,0,0,0-3.25-10.7c-.68-1.78-1.33-3.59-2.15-5.34s-1.57-3.54-2.45-5.26-1.76-3.46-2.72-5.14c-.47-.83-.94-1.72-1.41-2.49l-1.56-2.45c-2.08-3.24-4.07-6.5-6-9.62-1-1.53-1.72-3.26-2.55-4.83s-1.66-3.15-2.27-4.73c-1.32-3.12-2.64-6-3.61-8.83l-1.47-4c-.41-1.28-.8-2.5-1.17-3.64-.76-2.27-1.3-4.29-1.79-5.94-.93-3.31-1.37-5.24-1.37-5.24a.57.57,0,0,1,.43-.69.58.58,0,0,1,.69.42s.5,1.87,1.53,5.13c.53,1.62,1.13,3.61,2,5.84s1.71,4.76,2.8,7.47,2.37,5.6,3.73,8.66c.64,1.55,1.51,3,2.29,4.57s1.54,3.15,2.55,4.7c1.94,3.12,3.92,6.33,6,9.56l1.57,2.44c.55.88,1,1.72,1.49,2.58,1,1.7,1.94,3.44,2.79,5.22s1.73,3.56,2.5,5.38,1.48,3.64,2.16,5.47a95.25,95.25,0,0,1,3.25,11,73.71,73.71,0,0,1,1.66,10.58,57.69,57.69,0,0,1,.11,9.62,40.19,40.19,0,0,1-1.34,8.06,23.06,23.06,0,0,1-2.61,5.8,26.92,26.92,0,0,1-2.26,3.33l-.84,1.13a.58.58,0,0,1-.94-.69Z" transform="translate(-9.98 -4)"/><path class="cls-16" d="M67.77,215.93s0,1.63,0,4.5c0,1.43,0,3.18-.06,5.18s-.17,4.25-.29,6.7-.24,5.12-.59,7.93-.57,5.8-1,8.82c-.83,6-1.38,12.54-1.79,19-.21,3.25-.37,6.5-.45,9.7s-.11,6.36-.06,9.41.15,6,.29,8.78.38,5.42.73,7.83.67,4.6,1,6.55.83,3.59,1.14,5c.86,2.69,1.39,4.21,1.39,4.21v.05a.58.58,0,0,1-.36.73A.59.59,0,0,1,67,320s-.6-1.54-1.58-4.28c-.37-1.39-.92-3.07-1.36-5s-.93-4.19-1.23-6.64-.63-5.11-.91-7.92-.4-5.8-.45-8.88-.08-6.27,0-9.5.2-6.51.39-9.78.47-6.55.79-9.77.69-6.39,1.14-9.43.75-6,1.1-8.73.59-5.4.76-7.84.35-4.68.5-6.66.19-3.71.26-5.13c.16-2.85.18-4.49.18-4.49a.58.58,0,0,1,1.15,0Z" transform="translate(-9.98 -4)"/><path class="cls-17" d="M107,186.73l9,21.94,9.26,22.45c1.69,4.11,3.42,8.36,5.31,12.63s3.73,8.65,5.4,13.11a149,149,0,0,1,7.65,26.88,87,87,0,0,1,1,24.39,62.08,62.08,0,0,1-4.24,16.75c-.82,1.93-1.5,3.42-2,4.41l-.77,1.53a.44.44,0,0,1-.78-.39v0s.25-.53.74-1.52,1.15-2.47,1.92-4.37a66.09,66.09,0,0,0,2.24-7.07,75,75,0,0,0,1.65-9.46,85.84,85.84,0,0,0-1.19-24,147.31,147.31,0,0,0-7.75-26.56c-1.7-4.41-3.49-8.79-5.33-13.07s-3.55-8.56-5.22-12.68c-3.33-8.25-6.44-15.94-9.1-22.54s-4.72-12.15-6.24-16l-2.34-6.09a.43.43,0,0,1,.8-.32Z" transform="translate(-9.98 -4)"/><path class="cls-18" d="M74.51,109.84a4.59,4.59,0,1,1-4.92-4.41A4.68,4.68,0,0,1,74.51,109.84Z" transform="translate(-9.98 -4)"/><path class="cls-18" d="M127.45,103.84a4.58,4.58,0,1,1-4.92-4.41A4.67,4.67,0,0,1,127.45,103.84Z" transform="translate(-9.98 -4)"/><path class="cls-11" d="M79.64,129.68s0,.15,0,.42-.06.61-.14,1.05-.09.95-.21,1.47-.14,1.1-.2,1.66a16.12,16.12,0,0,0-.13,1.65c0,.51-.07,1,0,1.44a11.82,11.82,0,0,1,0,1.43v.12a.58.58,0,0,1-1.09.25,13.92,13.92,0,0,1-.65-1.52,11.36,11.36,0,0,1-.31-1.67,17.56,17.56,0,0,1,0-1.92,11.87,11.87,0,0,1,.91-3.41,7.52,7.52,0,0,1,.55-1.05,2.13,2.13,0,0,1,.24-.36l0,0a.6.6,0,0,1,.85,0A.59.59,0,0,1,79.64,129.68Z" transform="translate(-9.98 -4)"/><path class="cls-11" d="M115.67,125.46a3.09,3.09,0,0,1,.33.31,7.23,7.23,0,0,1,.79.94,10.23,10.23,0,0,1,.9,1.46,18.3,18.3,0,0,1,.75,1.85l.19,1a5.79,5.79,0,0,1,.15,1c0,.33,0,.65,0,.95a4.36,4.36,0,0,1-.08.84,13,13,0,0,1-.55,1.67.56.56,0,0,1-.75.3.57.57,0,0,1-.35-.46l0-.15a13.24,13.24,0,0,1-.06-1.46,3,3,0,0,0-.1-.69c0-.24-.1-.49-.11-.75a4.24,4.24,0,0,0-.18-.81l-.22-.82c-.2-.55-.33-1.12-.54-1.64s-.34-1-.54-1.43-.28-.79-.39-1l-.15-.41a.6.6,0,0,1,.9-.7Z" transform="translate(-9.98 -4)"/><path class="cls-19" d="M64.81,100.58A13,13,0,0,0,60,104a1.38,1.38,0,0,0,1.33,2.28,5.49,5.49,0,0,0,4.36-5A.7.7,0,0,0,64.81,100.58Z" transform="translate(-9.98 -4)"/><path class="cls-19" d="M71.45,100.43a3.35,3.35,0,0,0-4.2,3.93.71.71,0,0,0,.86.49A5.71,5.71,0,0,0,70,103.68c.63-.59,1.16-1.24,1.78-1.83A.85.85,0,0,0,71.45,100.43Z" transform="translate(-9.98 -4)"/><path class="cls-19" d="M118.52,95a10.77,10.77,0,0,0-2.2,2.17,6.46,6.46,0,0,0-1.71,2.28.73.73,0,0,0,.69.91,3.52,3.52,0,0,0,2.57-1.22,7.18,7.18,0,0,0,2.3-2.87A1.13,1.13,0,0,0,118.52,95Z" transform="translate(-9.98 -4)"/><path class="cls-19" d="M126.13,95.37a3.78,3.78,0,0,0-3.35,1.31,7.3,7.3,0,0,0-2.4,3.55,1.1,1.1,0,0,0,1.33,1.33A8.26,8.26,0,0,0,125,99.48a4.31,4.31,0,0,0,2-3A1.14,1.14,0,0,0,126.13,95.37Z" transform="translate(-9.98 -4)"/><path class="cls-20" d="M27.94,63.16a9,9,0,0,0-1,.74,8.81,8.81,0,0,1-.26-4,.18.18,0,0,0-.33-.14,6.43,6.43,0,0,0-.64,6.06.94.94,0,0,0,1.26.33,5.1,5.1,0,0,0,2.08-1.85A.83.83,0,0,0,27.94,63.16Z" transform="translate(-9.98 -4)"/><path class="cls-20" d="M36.16,74.1a4.16,4.16,0,0,1-3-3.83c-.09-.68-1.08-.7-1.38-.18l-.12.2A7.09,7.09,0,0,1,31.73,69a.08.08,0,0,0-.15,0c-.42,1.31-1.2,2.25-1.08,3.69.07.82,1.4,1.14,1.54.21a2.64,2.64,0,0,1,.12-.4c.65,1.65,1.87,2.91,4,2.42A.42.42,0,0,0,36.16,74.1Z" transform="translate(-9.98 -4)"/><path class="cls-20" d="M30.48,83.21c-.23-1.25-.93-2.4-1.19-3.63a.21.21,0,0,0-.35-.1c-2.39,2.85-1.53,6,1,8.43a.83.83,0,0,0,1.38-.8A30.51,30.51,0,0,1,30.48,83.21Z" transform="translate(-9.98 -4)"/><path class="cls-20" d="M35,59.37a.11.11,0,0,0,0,.22A.11.11,0,0,0,35,59.37Z" transform="translate(-9.98 -4)"/><path class="cls-20" d="M60,15.13c-1.18.29-1.93,1.39-2.65,2.29a.93.93,0,0,0,1.31,1.31c.9-.72,2-1.47,2.29-2.65A.78.78,0,0,0,60,15.13Z" transform="translate(-9.98 -4)"/><path class="cls-20" d="M67.21,13.19c-.72.38-2.49.86-2.35,2a.77.77,0,0,0,0,.15,1.58,1.58,0,0,0,1.55,1.55,3,3,0,0,0,2.72-1.71A1.43,1.43,0,0,0,67.21,13.19Z" transform="translate(-9.98 -4)"/><path class="cls-20" d="M105,14.58a3.76,3.76,0,0,0-3.73.95c-.42.34,0,.9.47.82A4.33,4.33,0,0,1,106.25,18a.6.6,0,0,0,1.09-.46A3.41,3.41,0,0,0,105,14.58Z" transform="translate(-9.98 -4)"/><path class="cls-20" d="M111.31,19c-.48-.57-1.19,0-1.19.58a1.76,1.76,0,0,0-.4.32,1,1,0,0,0,0,1.42l.12.1a1.2,1.2,0,0,0,1.42.18C112.39,20.91,112,19.89,111.31,19Z" transform="translate(-9.98 -4)"/><path class="cls-20" d="M129.64,28.91a5.75,5.75,0,0,0-4.7-3.2c-1-.17-1.49,1.31-.44,1.59A4.52,4.52,0,0,1,127.86,30C128.39,31.17,130.16,30.12,129.64,28.91Z" transform="translate(-9.98 -4)"/><path class="cls-19" d="M39.32,58.38c-.11-1.09-1.58-2.12-2.46-1-1.09,1.37-2.29,3.24-1.07,4.91a2,2,0,0,0,3.45,0C40.23,61,39.47,59.78,39.32,58.38Z" transform="translate(-9.98 -4)"/><path class="cls-19" d="M32.17,57.22c-1.19.31-1.62,1.89-1.84,2.93A1.87,1.87,0,0,0,30.81,62a2.29,2.29,0,0,0,1.33.55A1.88,1.88,0,0,0,34,61.15C34.33,60.08,34,56.73,32.17,57.22Z" transform="translate(-9.98 -4)"/><path class="cls-19" d="M93.87,14.31a15,15,0,0,1-5.43,1.11,1.93,1.93,0,0,0-1.35,3.28c.08.09.14.19.22.28-1.08,0-2.17-.12-3.26-.16a2.21,2.21,0,0,0-1.89,3.29c.31.55.76,1.17,1.19,1.83-2.22-1.13-4.55-2-6.8-1.36a.65.65,0,0,0-.16,1.18c3.42,1.61,5.92,4.2,9.16,6a2.12,2.12,0,0,0,3.08-1.25,8.4,8.4,0,0,0-.87-5.27A25.37,25.37,0,0,0,91,23.09a2.11,2.11,0,0,0,1.47-3.56c-.2-.25-.38-.5-.55-.76a8.82,8.82,0,0,0,3.2-1.49C96.47,16.26,95.76,13.66,93.87,14.31Z" transform="translate(-9.98 -4)"/><path class="cls-21" d="M101.47,45.76c-3.87,4.17-6.82,5.85-12.45,4-3.83-1.22-7.31-3.15-11.18-4.32-.08,0-.14.1-.06.14,7.42,3.58,19.56,12.85,24.87,1C103,45.94,102.09,45.09,101.47,45.76Z" transform="translate(-9.98 -4)"/><path class="cls-21" d="M103.4,54.28c-4,3.2-7.34,4.69-12.56,3.51a55.82,55.82,0,0,1-10.4-3.9c-.12,0-.22.11-.11.18,6.88,4.33,18.36,10.77,24,1C104.74,54.38,103.92,53.86,103.4,54.28Z" transform="translate(-9.98 -4)"/><path class="cls-22" d="M64.84,127.89a6.91,6.91,0,0,0-1.67-.75,4.85,4.85,0,0,0-4.85-.61,5.76,5.76,0,0,0-2,1.27,6.62,6.62,0,0,0-.64.44,10.82,10.82,0,0,0-1.51,1.07c-3.25,2.83-3.32,8.14-.87,11.47a8.38,8.38,0,0,0,7.29,3.4c.14,0,.28,0,.43,0a8.69,8.69,0,0,0,7.55-5.84,6.24,6.24,0,0,0,.28-1.48A9,9,0,0,0,64.84,127.89Z" transform="translate(-9.98 -4)"/><path class="cls-22" d="M134.05,118.81c-3.2-1-6.21.93-8,3.48a8,8,0,0,0-2.83,7.61c.94,4.64,5.47,8.59,10.34,7.61,4.38-.88,7.18-4.88,7.53-9.15S137.9,120,134.05,118.81Z" transform="translate(-9.98 -4)"/><path class="cls-23" d="M107.31,95c3.38-4,24.14-7.66,28.78-2.1,5.12,6.13,3.47,28.11-10.64,28.85C106.89,122.73,104.87,98,107.31,95Z" transform="translate(-9.98 -4)"/><path class="cls-24" d="M124.41,122.62c-9,0-13.66-5.9-16-10.85-3.32-7.08-3.35-15.36-1.75-17.28,2.5-3,12.32-5.24,19.42-5.24,3.65,0,8.46.54,10.63,3.14,3.48,4.18,3.82,14,.73,21.14-2.43,5.57-6.68,8.78-12,9.06ZM126.1,90.9c-7.91,0-16.4,2.54-18.15,4.65-1,1.17-1.25,8.63,2,15.53,2.2,4.69,6.72,10.3,15.49,9.86,5.93-.31,9-4.56,10.54-8.07,3.09-7.08,2.29-16.09-.49-19.42C134.09,91.8,130.76,90.9,126.1,90.9Z" transform="translate(-9.98 -4)"/><path class="cls-25" d="M96.52,84s14.66,28.67,11.84,34.87S91,131.8,85.2,124.28c-2.73-3.55,2.41-32.6,4.86-36.52S95.43,82.52,96.52,84Z" transform="translate(-9.98 -4)"/><path class="cls-11" d="M97.29,83.6s2,3.42,4.69,8.77c1.29,2.68,2.84,5.81,4.22,9.29A72.17,72.17,0,0,1,109.9,113a21.37,21.37,0,0,1,.41,3.19,7.18,7.18,0,0,1-.68,3.71,9.74,9.74,0,0,1-.82,1.31,9.63,9.63,0,0,1-1.14,1.33,13.69,13.69,0,0,1-2.47,2,17.58,17.58,0,0,1-5.3,2.25,21.15,21.15,0,0,1-5,.73,18.4,18.4,0,0,1-4.27-.31,17,17,0,0,1-3.19-.87,12.32,12.32,0,0,1-1.94-.86l-.66-.35a.86.86,0,0,1-.38-1.16.87.87,0,0,1,1.08-.42l.09,0,.63.23a14.58,14.58,0,0,0,1.8.59,16.8,16.8,0,0,0,2.89.52,20.92,20.92,0,0,0,3.8,0,18.87,18.87,0,0,0,8.8-3,11.17,11.17,0,0,0,1.91-1.57,7.52,7.52,0,0,0,1.42-2,4.33,4.33,0,0,0,.23-2,18.91,18.91,0,0,0-.39-2.67,76.73,76.73,0,0,0-3.37-10.81c-1.34-3.42-2.57-6.64-3.73-9.35l-3.85-9.06a.87.87,0,0,1,.46-1.14A.86.86,0,0,1,97.29,83.6Z" transform="translate(-9.98 -4)"/><path class="cls-18" d="M105.47,97.15c-1.48-1-.9-5.86,12.28-9.24s23.48,1,23.09,4.94-7.85-2.74-17-1.67C108.06,93,107.63,98.63,105.47,97.15Z" transform="translate(-9.98 -4)"/><path class="cls-26" d="M83.08,106.34a18.21,18.21,0,0,1,3-2.87,21.93,21.93,0,0,1,3.54-2.32c.68-.37,1.44-.67,2.19-1a20.76,20.76,0,0,1,2.39-.75,16,16,0,0,1,2.48-.4,13.24,13.24,0,0,1,2.43-.07,10.83,10.83,0,0,1,2.26.28,9.84,9.84,0,0,1,2,.51,12.65,12.65,0,0,1,2.76,1.2l1,.55a.58.58,0,0,1-.46,1l-.07,0-1-.33-1.14-.41c-.44-.15-1-.21-1.51-.36a8.25,8.25,0,0,0-1.8-.3,13.21,13.21,0,0,0-2-.1,11.22,11.22,0,0,0-2.15.12,13.65,13.65,0,0,0-2.19.42,22.29,22.29,0,0,0-2.16.62c-.69.28-1.39.53-2,.85a33.26,33.26,0,0,0-3.44,1.89,27.94,27.94,0,0,0-3.13,2.26.6.6,0,0,1-.83-.07.59.59,0,0,1,0-.73Z" transform="translate(-9.98 -4)"/><path class="cls-26" d="M35.27,105.28a1.1,1.1,0,0,1-1.1-1,1.11,1.11,0,0,1,1-1.15l14.88-.66a1.1,1.1,0,0,1,.09,2.2l-14.87.66Z" transform="translate(-9.98 -4)"/><path class="cls-23" d="M80.15,96.23c-4.3-3.07-24.68-3.48-28.91,4.87s1,29.39,19.51,27.29S83.73,98.79,80.15,96.23Z" transform="translate(-9.98 -4)"/><path class="cls-24" d="M68.39,129.5h0a17.84,17.84,0,0,1-16-9.17c-4.1-7.09-3.88-15.94-1.3-20.41,3.31-5.74,13-6.36,17-6.36,5.79,0,11.3,1.16,13.38,2.83,2.42,1.93,4.79,13.12,1.94,22.08-2.16,6.79-6.84,10.59-13.53,11C69.33,129.49,68.86,129.5,68.39,129.5ZM68,95.2c-7.74,0-13.55,2.07-15.55,5.54-2.34,4.07-2.49,12.19,1.3,18.76a16.08,16.08,0,0,0,14.62,8.35h0c.43,0,.87,0,1.32,0,6-.35,10.1-3.67,12.06-9.84,2.65-8.34.32-18.92-1.4-20.29C78.87,96.48,74,95.2,68,95.2Z" transform="translate(-9.98 -4)"/><path class="cls-18" d="M82.66,98.12c1.21-1.32-.43-5.91-14-6.3S46,98.05,47.21,101.76s7-4.42,16.21-5.39C79.21,94.69,80.87,100.05,82.66,98.12Z" transform="translate(-9.98 -4)"/><path class="cls-8" d="M106.92,412.15c-1.7.74-3,2.66-4.48,3.86a13.76,13.76,0,0,1-6.77,3c-2.26.37-1.3,3.8.94,3.43a13.19,13.19,0,0,0,6.62-3.63c1.66-1.5,4.08-4,4.31-6.33C107.58,412.16,107.17,412,106.92,412.15Z" transform="translate(-9.98 -4)"/><path class="cls-8" d="M177.7,402.48a.25.25,0,0,0-.35-.09c-3.42,2-4.54,6.14-7.81,8.37-2.83,1.94,0,6.6,2.68,4.58C175.92,412.61,180,407.22,177.7,402.48Z" transform="translate(-9.98 -4)"/><path class="cls-8" d="M177,416.33c-1.3,1.1-2.34,2.47-3.57,3.64-1.62,1.52.44,3.88,2.28,2.95a7.17,7.17,0,0,0,3.95-5.05A1.6,1.6,0,0,0,177,416.33Z" transform="translate(-9.98 -4)"/><path class="cls-8" d="M76.35,451.25a4.41,4.41,0,0,0-1.1-3,.79.79,0,0,0-1.09,0,4.41,4.41,0,0,0-1.1,3,5.26,5.26,0,0,0,0,1.68c.16.59.67.92,1.07,1.34a.77.77,0,0,0,1.09,0,5.7,5.7,0,0,0,.9-.94A3.68,3.68,0,0,0,76.35,451.25Z" transform="translate(-9.98 -4)"/><path class="cls-8" d="M75.86,460.74a1.35,1.35,0,0,0-2.45,1,14.83,14.83,0,0,1,.24,2.58,1.61,1.61,0,0,0,3.21,0A5.81,5.81,0,0,0,75.86,460.74Z" transform="translate(-9.98 -4)"/><path class="cls-8" d="M80.85,455.19a.68.68,0,0,0-1.3,0,6.61,6.61,0,0,0-.64,3.48,1.29,1.29,0,0,0,2.58,0A6.51,6.51,0,0,0,80.85,455.19Z" transform="translate(-9.98 -4)"/><path class="cls-8" d="M81.92,470.44a1,1,0,0,0-.88-.84c-.53-.62-1.71-.68-1.88.32a2.43,2.43,0,0,0,.49,2.27,1.41,1.41,0,0,0,1.92,0A1.67,1.67,0,0,0,81.92,470.44Z" transform="translate(-9.98 -4)"/><path class="cls-8" d="M50.52,198.53c-2.38-1.35-4,4-4.72,5.39-.79,1.6,1.3,3.49,2.59,2a16.74,16.74,0,0,0,2.4-3.17C51.38,201.59,52,199.37,50.52,198.53Z" transform="translate(-9.98 -4)"/><path class="cls-8" d="M53.23,191.36c-1.33.61-1.92,2.4-2.3,3.71s1.29,2.25,2.15,1.25c1-1.18,2.43-1.88,2.51-3.61A1.59,1.59,0,0,0,53.23,191.36Z" transform="translate(-9.98 -4)"/><path class="cls-8" d="M56.18,196.44c-2,0-2,3.19-.24,3.21-.25,0-.22,0,.09,0h0l.14,0a1.62,1.62,0,1,0,0-3.24Z" transform="translate(-9.98 -4)"/><path class="cls-8" d="M183,223.67a.65.65,0,0,0-1.11,0,3.06,3.06,0,0,0-.29,2.18,1.94,1.94,0,0,0,2,1.5c.55-.11.8-.77.8-1.27C184.41,225.06,183.49,224.42,183,223.67Z" transform="translate(-9.98 -4)"/><path class="cls-8" d="M191.68,230.38c-.71-1.52-2.33-1.58-3.76-1.26a2.1,2.1,0,0,0,0,4,5.54,5.54,0,0,0,1.93.43A2.16,2.16,0,0,0,191.68,230.38Z" transform="translate(-9.98 -4)"/><path class="cls-8" d="M184.54,233.05a4,4,0,0,0-1-1.71,7.92,7.92,0,0,1-1.35-1.47.33.33,0,0,0-.28-.17c-3.8.22-1.42,6.65,2.18,4.55A1.07,1.07,0,0,0,184.54,233.05Z" transform="translate(-9.98 -4)"/><g id="_Grupo_" data-name="&lt;Grupo&gt;"><path class="cls-27" d="M304.26,120.8c.22-9.72-5.21-13.74-5.21-14.84s-.53-31.57-5.19-44.74c-12.44,1-25.59-9.67-25.59-9.67-7.69,14.55-31.61,6.05-31.61,6.05a21.81,21.81,0,0,1-6.31,13.74c-9.69,9.25-24.18,10.15-24.18,10.15s1.65,19.24-1.65,26.93c0,0-5.14-5.58-11.54.84a13.79,13.79,0,0,0-3.56,8c-1.17,8.79,4.09,19.83,20.05,18.42a62.1,62.1,0,0,0,29,18.51c.14.68,2.18,11.76,1.48,12.82,0,0,7,11.71,19.78,11s11-6.25,11-6.25l-.68-16.42C292.08,150.61,304,135,304.26,120.8Z" transform="translate(-9.98 -4)"/><path class="cls-28" d="M243.25,478.39s8.07,4.42,4.78,8.44c-1.57,1.89-19.79.72-24.93-3.67-.75-.64-1.48-2.55-2.18-5.36C222.72,478.26,236.35,481.55,243.25,478.39Z" transform="translate(-9.98 -4)"/><path class="cls-28" d="M299.31,476.39s8.42,4.94,5.13,9c-1.54,1.91-19.79,2.19-24.91-2.2-.86-.75-1.65-3-2.35-6.16C279.77,477.42,294.32,479.62,299.31,476.39Z" transform="translate(-9.98 -4)"/><path class="cls-7" d="M259.74,178c12.82-.75,11-6.25,11-6.25a49.73,49.73,0,0,1,7.46.27l-2,.83s.18,34.69-9.72,58.14l-1.89-2.19c-13-20.6-33.08-62.17-33.08-62.17l.06-1A37.32,37.32,0,0,1,240,167S246.93,178.68,259.74,178Z" transform="translate(-9.98 -4)"/><path class="cls-29" d="M265.56,222.59c-8.8-19.38-20.17-38-29.64-56.53-1.22-.2-2.66-.39-4.32-.5l-.06,1s18.62,38.49,31.58,59.75c.51.83,1,1.64,1.5,2.42l1.89,2.19c.46-1.08.89-2.2,1.31-3.33a123.79,123.79,0,0,0,5.48-21.47A91,91,0,0,1,265.56,222.59Z" transform="translate(-9.98 -4)"/><path class="cls-7" d="M276.23,172.81l2-.83a49.73,49.73,0,0,0-7.46-.27s1.83,5.5-11,6.25S240,167,240,167a31.27,31.27,0,0,0-4-.91c9.47,18.55,20.84,37.15,29.64,56.53a91,91,0,0,0,7.74-16.44A216.51,216.51,0,0,0,276.23,172.81Z" transform="translate(-9.98 -4)"/><path class="cls-30" d="M193.77,279.43a95.09,95.09,0,0,1-6.2-14.29c-5.69-16.59-7.65-69.24,12.82-88.66a40.48,40.48,0,0,1,31.21-10.92l-.06,1s20.11,41.57,33.08,62.17c.57,1,1.17,1.85,1.72,2.68,0,0,9.52,54.24,10.62,108.45l.06.88c-24.95,1.69-55.77-.42-79.56-15.57-1.62-1-3.21-2.08-4.77-3.25Z" transform="translate(-9.98 -4)"/><path class="cls-29" d="M224.25,310.39c-13.74-6.91-23-18.26-30.66-31.3l.18.34-.34,13.33C199.55,302.63,212.4,308.79,224.25,310.39Z" transform="translate(-9.98 -4)"/><path class="cls-30" d="M277,339.89c-1.1-54.21-10.62-108.45-10.62-108.45-.55-.83-1.15-1.73-1.72-2.68-13-20.6-33.08-62.17-33.08-62.17l.06-1a40.48,40.48,0,0,0-31.21,10.92c-20.47,19.42-18.51,72.07-12.82,88.66a97.09,97.09,0,0,0,6,13.95c7.62,13,16.92,24.39,30.66,31.3a44.26,44.26,0,0,0,6,.44,44.26,44.26,0,0,1-6-.44,60.23,60.23,0,0,0,6,2.64,60.23,60.23,0,0,1-6-2.64c-11.85-1.6-24.7-7.76-30.82-17.63L192.69,322c1.56,1.17,3.15,2.24,4.77,3.25,23.79,15.15,54.61,17.26,79.56,15.57Z" transform="translate(-9.98 -4)"/><path class="cls-30" d="M317.45,334.5A242,242,0,0,1,277,340.77l-.06-.88c-1.1-54.21-10.62-108.45-10.62-108.45-.55-.83.57.95,0,0l.91-1c9.89-23.45,9-57.59,9-57.59l2-.83c8.48.88,22,4.15,28.09,15.87,19,36.62,27.11,84.26,34.25,111.57a14.41,14.41,0,0,1-1.78,1.76c-2.72,2.33-8.81,6.37-20.05,8.64.05.28.09.57.14.85-.36,2.09-1.65,10.89,1.69,14.2,0,0,0,0,0,0,.28,2.88.55,5.73.77,8.59C321.3,333.49,319.93,333.89,317.45,334.5Z" transform="translate(-9.98 -4)"/><path class="cls-30" d="M340.53,299.42c-7.14-27.31-15.21-75-34.25-111.57-6.09-11.72-19.61-15-28.09-15.87l-2,.83s.91,34.14-9,57.59l-.91,1c.28.48.14.26,0,0,.15.83,9.53,54.62,10.62,108.41l.06.88a242,242,0,0,0,40.43-6.27c2.48-.61,3.85-1,3.85-1-.22-2.86-.49-5.71-.77-8.59,0,0,0,0,0,0-3.34-3.31-2-12.11-1.69-14.2,0-.28-.09-.57-.14-.85l.3-.07c-.32-1.75-.67-3.5-1-5.25-.68-.07-1.35-.16-2-.27.67.11,1.34.2,2,.27-6.29-33.32-15.11-66.64-22.68-100q-1.72-4-3.52-8,1.8,4,3.52,8c-.44-1.94-.89-3.89-1.33-5.83.44,1.94.89,3.89,1.33,5.83a444.88,444.88,0,0,1,30,100.13,36.26,36.26,0,0,0,13.69-3.76A15.07,15.07,0,0,0,340.53,299.42Z" transform="translate(-9.98 -4)"/><g class="cls-31"><path class="cls-6" d="M325.36,304.67a444.88,444.88,0,0,0-30-100.13c7.57,33.32,16.39,66.64,22.68,100,.33,1.75.68,3.5,1,5.25a63.16,63.16,0,0,0,6.94-1.85,38,38,0,0,0,12.81-6.72l.3-.27A36.26,36.26,0,0,1,325.36,304.67Z" transform="translate(-9.98 -4)"/></g><path class="cls-7" d="M304.77,416.31c-9.19,4.24-20.89,6.22-33,6.77a184.49,184.49,0,0,1-24.16-.57c-14.16-1.21-26.77-3.72-34.05-6.05-3.08-1-5.19-1.91-6.07-2.73-6.59-6-10.44-87.93-10.44-87.93l.37-.6c23.79,15.15,54.61,17.26,79.56,15.57a242,242,0,0,0,40.43-6.27c0,6.22-.33,72.93-1.65,74.29A37.27,37.27,0,0,1,304.77,416.31Z" transform="translate(-9.98 -4)"/><path class="cls-7" d="M303.72,416.74c.35-.15.71-.28,1-.43a37.27,37.27,0,0,0,11-7.52c1.32-1.36,1.63-68.07,1.65-74.29-2.46.61-6,1.43-10.44,2.3-32.76,10.41-70.82,11.39-102.25-1,2.18,23.08,5.18,50.16,14.44,71.87C244.86,418.8,274.68,420.55,303.72,416.74Z" transform="translate(-9.98 -4)"/><path class="cls-8" d="M219.2,407.66c-9.26-21.71-12.26-48.79-14.44-71.87,31.43,12.4,69.49,11.42,102.25,1a245,245,0,0,1-30,4c-22.69,1.54-50.21-.1-72.9-11.79-2.27-1.17-4.5-2.4-6.66-3.78l-.37.6s.12,2.59.35,6.84c.79,14.19,2.85,47.23,5.95,66.58,1.23,7.61,2.61,13.11,4.14,14.51.88.82,3,1.76,6.07,2.73a109.46,109.46,0,0,0,11.53,2.88,205.59,205.59,0,0,0,22.52,3.17C255.46,423.19,222.82,415,219.2,407.66Z" transform="translate(-9.98 -4)"/><path class="cls-32" d="M236.64,13.94c6.55,3.12,10,8.59,7.71,9C241.83,23.43,236.84,18.71,236.64,13.94Z" transform="translate(-9.98 -4)"/><path class="cls-32" d="M281.18,18.62c3.91,3.91,5.95,7.23,5.23,7.65C282.74,28.42,277.42,22.07,281.18,18.62Z" transform="translate(-9.98 -4)"/><path class="cls-32" d="M209.55,27.89c6.8.12,11.57,4,10.07,5S212.17,31.68,209.55,27.89Z" transform="translate(-9.98 -4)"/><path class="cls-32" d="M193,109.26a13.79,13.79,0,0,0-3.56,8h0s-5.76-1.92-7.69-11.55a16.29,16.29,0,0,1,4.4-15.1,16.29,16.29,0,0,1-6-17.59c3-11.27,9.08-14,9.08-14s-4.7-14,5.5-24.45c5-5.16,10.44-6.72,14.92-6.62,2.62,3.79,8.69,5.9,10.07,5s-3.27-4.85-10.07-5c-2-2.94-2-6.92,4-11.25,8.83-6.38,17.19-5.48,23.06-2.7.2,4.77,5.19,9.49,7.71,9,2.31-.44-1.16-5.91-7.71-9-.2-3.57,2.31-7.13,10.46-8.56,14.07-2.46,27.09,6.31,34.08,13.24-3.76,3.45,1.56,9.8,5.23,7.65.72-.42-1.32-3.74-5.23-7.65,1-1,2.79-1.72,5.49-2C303.71,15,318,45,304,57.05a17.22,17.22,0,0,1-10.14,4.17c-12.44,1-25.59-9.67-25.59-9.67-7.69,14.55-31.61,6.05-31.61,6.05a21.81,21.81,0,0,1-6.31,13.74c-9.69,9.25-24.18,10.15-24.18,10.15s1.65,19.24-1.65,26.93C204.52,108.42,199.38,102.84,193,109.26Z" transform="translate(-9.98 -4)"/><path class="cls-27" d="M337.94,326.94a9.27,9.27,0,0,1-2.75,5.52c-3.16,2.64-3.25-3.91-3.25-4.57l-.79-.27c-.73,2.33-1.74,4.11-2.84,4.44-2.79.84-3.89-17.08-3.89-17.08s-1.32,11.94-3.5,10.27c-.13-.11-.26-.22-.39-.35s0,0,0,0c-.49-4.7-1.06-9.45-1.69-14.2,0-.28-.09-.57-.14-.85,11.24-2.27,17.33-6.31,20.05-8.64l.51.06s7.39,18.62,1.21,29C339.61,331.69,338.42,328.37,337.94,326.94Z" transform="translate(-9.98 -4)"/><path class="cls-27" d="M304.77,416.31l-5.46,60.08c-5,3.23-19.54,1-22.13.61-3.52-15.47-5.35-53.57-5.35-53.57l0-.35C283.88,422.53,295.58,420.55,304.77,416.31Z" transform="translate(-9.98 -4)"/><path class="cls-27" d="M247.65,422.51v0l-4.4,55.86c-6.9,3.16-20.53-.13-22.33-.59-3.83-15.15-6.93-56.24-7.32-61.34C220.88,418.79,233.49,421.3,247.65,422.51Z" transform="translate(-9.98 -4)"/><path class="cls-8" d="M271.81,423.08l0,.35v.06c10.33,2.75,22.29,4.29,32.19.92l.74-8.1C295.58,420.55,283.88,422.53,271.81,423.08Z" transform="translate(-9.98 -4)"/><path class="cls-8" d="M247.65,422.51c-14.16-1.21-26.77-3.72-34.05-6.05,0,.4.08,1,.14,1.85,10.58,6,21.89,9.61,33.47,9.89l.44-5.67Z" transform="translate(-9.98 -4)"/><path class="cls-8" d="M270.25,160.13l-.2-4.84a65.77,65.77,0,0,1-13.23,1.41,62.37,62.37,0,0,1-18.34-2.55c0,.15.16.83.33,1.79C248,161.21,259.71,162.6,270.25,160.13Z" transform="translate(-9.98 -4)"/><path class="cls-33" d="M211.44,28.82c.37.3.79.66,1.3,1A17.07,17.07,0,0,0,216,31.41a9.73,9.73,0,0,0,1.9.52c.62.13,1.32,0,1.12,0a.47.47,0,0,0-.21.47,0,0,0,0,0,0,0s0-.1-.11-.19a3.75,3.75,0,0,0-.59-.62,10.66,10.66,0,0,0-1.63-1.07,16.87,16.87,0,0,0-3.38-1.35C212.49,29,211.93,28.93,211.44,28.82Zm-1.88-1.51,1.08,0a17.8,17.8,0,0,1,2.85.23,16.08,16.08,0,0,1,3.91,1.22,11.57,11.57,0,0,1,2,1.26,6,6,0,0,1,1,1,2.78,2.78,0,0,1,.44.79,3,3,0,0,1,.12.61,2.06,2.06,0,0,1-.34,1l-.2.22h0l-.2.18h0l-.06,0-.13.06-.26.12a2.94,2.94,0,0,1-.86.15,6.5,6.5,0,0,1-1.37-.11,11.91,11.91,0,0,1-2.28-.7,14.77,14.77,0,0,1-3.53-2.1,11.24,11.24,0,0,1-2.05-2.1,8.8,8.8,0,0,1-.58-.89l0-.07a.59.59,0,0,1,.25-.8A.78.78,0,0,1,209.56,27.31Z" transform="translate(-9.98 -4)"/><path class="cls-33" d="M237.55,15.21a6.15,6.15,0,0,0,.3.83,10,10,0,0,0,.71,1.37A13.08,13.08,0,0,0,241,20.36a8.16,8.16,0,0,0,1.71,1.18,2.3,2.3,0,0,0,1.44.33l.12-.05a.27.27,0,0,0-.17.06c-.11.09-.13.2-.15.18s0,0,0-.06a3.3,3.3,0,0,0-.28-.79,9.41,9.41,0,0,0-1.2-1.73,19.28,19.28,0,0,0-2.86-2.76C238.83,16.09,238.11,15.58,237.55,15.21Zm-.66-1.8,1.07.44a20.23,20.23,0,0,1,2.7,1.46A18.67,18.67,0,0,1,244,18.12a12,12,0,0,1,1.54,2.11,4.73,4.73,0,0,1,.53,1.49,2.14,2.14,0,0,1-.11,1.14,1.41,1.41,0,0,1-.46.68,2.07,2.07,0,0,1-.39.29l-.16.07a3.93,3.93,0,0,1-3.23-.46,10.11,10.11,0,0,1-2.12-1.56,10.35,10.35,0,0,1-1.55-1.81A11.8,11.8,0,0,1,237,18.24a9.73,9.73,0,0,1-.91-3.09,6,6,0,0,1,0-.86V14a.6.6,0,0,1,.6-.6A.59.59,0,0,1,236.89,13.41Z" transform="translate(-9.98 -4)"/><path class="cls-33" d="M281.21,19.59l-.14.19a4.23,4.23,0,0,0-.25.78,3.44,3.44,0,0,0,0,1.12,3.81,3.81,0,0,0,.42,1.29,5.67,5.67,0,0,0,.9,1.27,3.82,3.82,0,0,0,2.75,1.36,2.2,2.2,0,0,0,.67-.12l.32-.13h0c.22-.17-.28.23-.23.19l0,0,0-.05c.08-.07,0,0-.13.15a.85.85,0,0,0-.08.33h0a5.12,5.12,0,0,0-.65-1.38,32.18,32.18,0,0,0-1.94-2.83C282.18,20.8,281.58,20.06,281.21,19.59Zm.38-1.38a25.36,25.36,0,0,1,2.61,2.4,23.06,23.06,0,0,1,2.37,2.85,6.23,6.23,0,0,1,1,2.25l0,.27a1.38,1.38,0,0,1-.13.57,1.48,1.48,0,0,1-.23.38l0,0,0,0c.05,0-.46.36-.25.19h0l-.63.29a4.46,4.46,0,0,1-1.36.29,5.14,5.14,0,0,1-2.52-.66,6.81,6.81,0,0,1-1.83-1.51A6.13,6.13,0,0,1,279,21.79a4.05,4.05,0,0,1,.3-1.69,4.8,4.8,0,0,1,.69-1.2c.45-.45.71-.67.71-.67h0A.68.68,0,0,1,281.59,18.21Z" transform="translate(-9.98 -4)"/><path class="cls-33" d="M206.12,80.91a44.7,44.7,0,0,0,5.12-.82l2.52-.64c.85-.19,1.65-.53,2.47-.79s1.66-.51,2.44-.88L221,76.72l1.18-.54,1.11-.66,2.21-1.33a14.68,14.68,0,0,0,2-1.56l2-1.63a25,25,0,0,0,1.73-1.88,13,13,0,0,0,1.44-2.06,14.14,14.14,0,0,0,1.18-2.21,19.37,19.37,0,0,0,.92-2.37,25.17,25.17,0,0,0,.64-2.45,18.15,18.15,0,0,0,.34-2.46.84.84,0,0,1,1.13-.77,51.13,51.13,0,0,0,8.33,1.93c1.42.21,2.84.32,4.26.42l2.13,0c.71,0,1.41-.09,2.11-.12a13.13,13.13,0,0,0,2.09-.27,13.81,13.81,0,0,0,2.05-.43c.66-.21,1.34-.38,2-.62l1.87-.88a16.31,16.31,0,0,0,1.71-1.13A7.51,7.51,0,0,0,265,54.38a8.15,8.15,0,0,0,1.32-1.55l1.12-1.71,0-.06a.94.94,0,0,1,1.31-.27l.06,0a54.51,54.51,0,0,0,10.4,6.26,43.53,43.53,0,0,0,5.67,2.12,27.75,27.75,0,0,0,5.89,1,24.36,24.36,0,0,0,3,0c.86-.16,2.06-.25,3-.51a15.8,15.8,0,0,0,5.2-2.42A14,14,0,0,0,306,53.2a16,16,0,0,0,2.18-5.36,23.92,23.92,0,0,0-.71-11.74A31.11,31.11,0,0,0,302,25.54a21.31,21.31,0,0,0-9.27-7.06,13.69,13.69,0,0,0-5.66-.8,9.37,9.37,0,0,0-5.13,1.7l0,0a1.06,1.06,0,0,1-1.41-.05,54.31,54.31,0,0,0-10.2-7.91,46.19,46.19,0,0,0-5.76-2.88,35.57,35.57,0,0,0-6.12-1.91,30.9,30.9,0,0,0-3.15-.53C254.15,6,253.09,6,252,5.94a28,28,0,0,0-3.17.19l-1.54.19-1.6.36a19.79,19.79,0,0,0-3,.9,11.64,11.64,0,0,0-1.38.66,5.19,5.19,0,0,0-1.27.81A4.36,4.36,0,0,0,239,10l-.48.53-.33.62a5.54,5.54,0,0,0-.6,2.7v0a1,1,0,0,1-1,.94,1,1,0,0,1-.34-.08l-2.1-.86c-.72-.23-1.45-.41-2.18-.62s-1.49-.25-2.23-.38a13,13,0,0,0-2.25-.13l-1.14,0c-.37,0-.75.09-1.12.14a17.09,17.09,0,0,0-2.24.35l-2.18.61a18.36,18.36,0,0,0-2.11.87,12.14,12.14,0,0,0-2,1l-2,1.22-.48.3-.12.07-.08.06-.23.19-.92.74a10.94,10.94,0,0,0-1.62,1.55A10.32,10.32,0,0,0,210,21.61a7.16,7.16,0,0,0-.41.95,2.51,2.51,0,0,0-.26,1,4.61,4.61,0,0,0,.08,2c.13.32.19.65.35,1l.52.91v0a.87.87,0,0,1-.32,1.19,1,1,0,0,1-.41.11,19.21,19.21,0,0,0-5.08.62,21.16,21.16,0,0,0-2.42.87,15.55,15.55,0,0,0-2.29,1.19,16.55,16.55,0,0,0-2.14,1.47,22.76,22.76,0,0,0-2,1.71,24.13,24.13,0,0,0-1.79,1.93,19.55,19.55,0,0,0-1.54,2.08c-.49.7-.86,1.5-1.29,2.25s-.72,1.59-1,2.41a21.91,21.91,0,0,0-.71,2.52,20.44,20.44,0,0,0-.44,2.58,25.42,25.42,0,0,0-.17,2.62c0,.88,0,1.75.08,2.63a25.82,25.82,0,0,0,.91,5.15v0a.58.58,0,0,1-.39.72.59.59,0,0,1-.72-.39,26.75,26.75,0,0,1-1-5.41c-.09-.92-.12-1.83-.12-2.75s0-1.84.14-2.75A22.8,22.8,0,0,1,188,45.5a25.07,25.07,0,0,1,.72-2.67c.29-.87.67-1.72,1-2.57s.83-1.66,1.36-2.44a25.56,25.56,0,0,1,1.63-2.26,24.46,24.46,0,0,1,1.85-2,21.26,21.26,0,0,1,2.07-1.84,18.23,18.23,0,0,1,2.27-1.61,17.56,17.56,0,0,1,2.46-1.31,20.29,20.29,0,0,1,2.63-1,21.62,21.62,0,0,1,2.75-.56,22,22,0,0,1,2.81-.17l-.71,1.33-.66-1.15a11,11,0,0,1-.46-1.25,6.27,6.27,0,0,1-.13-2.69,4.08,4.08,0,0,1,.33-1.3,10,10,0,0,1,.52-1.21A11.85,11.85,0,0,1,210,18.71,13.06,13.06,0,0,1,211.77,17l.92-.75.23-.19.15-.12.13-.08.52-.33,2.06-1.3a13.1,13.1,0,0,1,2.18-1.1,21.2,21.2,0,0,1,2.26-.95l2.37-.67a19.85,19.85,0,0,1,2.43-.4c.41,0,.82-.11,1.23-.14h1.23a13.49,13.49,0,0,1,2.46.13c.81.13,1.64.19,2.44.4s1.59.42,2.37.67l2.28.93-1.32.89a7.28,7.28,0,0,1,.79-3.66L237,9.5l.61-.71a5.82,5.82,0,0,1,1.34-1.24,6.69,6.69,0,0,1,1.5-1A11.08,11.08,0,0,1,242,5.82a22.39,22.39,0,0,1,3.29-1l1.61-.36,1.74-.23A29.53,29.53,0,0,1,252,4c1.14,0,2.28.06,3.4.18s2.25.28,3.35.55a38.12,38.12,0,0,1,6.47,2,48.3,48.3,0,0,1,6,3,55.54,55.54,0,0,1,10.64,8.17l-1.45,0a11.35,11.35,0,0,1,6.4-2.29,15.92,15.92,0,0,1,6.54.89,23.62,23.62,0,0,1,10.27,7.71,32.86,32.86,0,0,1,5.84,11.33,26,26,0,0,1,.7,12.78,18.16,18.16,0,0,1-2.5,6A16,16,0,0,1,303.09,59a17.64,17.64,0,0,1-6,2.72c-1.1.29-2,.33-3.16.53a26.94,26.94,0,0,1-3.24,0,30.25,30.25,0,0,1-6.3-1.12,45,45,0,0,1-5.93-2.25,53.93,53.93,0,0,1-5.57-3,54.83,54.83,0,0,1-5.21-3.59l1.4-.29-1.27,1.94a9,9,0,0,1-1.51,1.75,9,9,0,0,1-1.74,1.52,21.25,21.25,0,0,1-1.93,1.26l-2.09,1c-.71.26-1.45.45-2.18.68a16.68,16.68,0,0,1-2.21.46,15.56,15.56,0,0,1-2.24.27c-.75,0-1.49.15-2.24.11l-2.23,0c-1.49-.1-3-.23-4.43-.45a51,51,0,0,1-8.64-2.06l1.13-.77a19.79,19.79,0,0,1-.39,2.75A24.38,24.38,0,0,1,236.4,63a20.43,20.43,0,0,1-1,2.52,15.72,15.72,0,0,1-1.32,2.41,14.41,14.41,0,0,1-1.62,2.22c-.62.65-1.09,1.29-1.85,2l-2.11,1.69a16,16,0,0,1-2.16,1.59L224,76.74l-1.16.68-1.22.54L219.16,79c-.81.37-1.68.58-2.52.88s-1.68.59-2.55.77l-2.59.62a47.33,47.33,0,0,1-5.28.78.58.58,0,0,1-.1-1.16Z" transform="translate(-9.98 -4)"/><path class="cls-34" d="M232.58,166.08l8.58,16.27,4.3,8.13,4.39,8.07,4.39,8.06c.74,1.34,1.44,2.71,2.24,4l2.31,3.95,4.61,7.9,2.31,3.95c.74,1.33,1.61,2.6,2.43,3.9a2.16,2.16,0,0,1,.3.76c.77,4.52,1.51,9,2.18,13.52s1.27,9,1.83,13.54,1.15,9,1.62,13.57,1.06,9,1.42,13.59l1.13,13.61c.3,4.55.53,9.1.8,13.65l.36,6.82.13,6.83.2,13.67a1.16,1.16,0,0,1-2.31.09v0L275,326.33l-.41-6.78-.57-6.78c-.38-4.52-.71-9-1.13-13.55l-1.43-13.53c-.39-4.51-1-9-1.52-13.51s-1.09-9-1.72-13.49l-.91-6.74-1-6.72c-.62-4.48-1.32-9-2-13.42l.29.77c-.81-1.3-1.67-2.57-2.41-3.93l-2.3-4-4.6-8-2.3-4c-.78-1.33-1.45-2.72-2.16-4.08l-4.19-8.22-4.2-8.21c-1.41-2.73-2.71-5.52-4-8.29-2.65-5.55-5.33-11.08-7.83-16.68a1.15,1.15,0,0,1,.57-1.53A1.17,1.17,0,0,1,232.58,166.08Z" transform="translate(-9.98 -4)"/><path class="cls-34" d="M277.39,172.82s.1.94.15,2.6.19,4.05.09,6.89-.16,6.16-.42,9.71c-.09,1.78-.31,3.61-.53,5.46s-.46,3.75-.69,5.63-.69,3.75-1,5.59-.65,3.66-1.12,5.39-1,3.4-1.4,5-.85,3.07-1.32,4.43c-1.06,2.68-2,4.87-2.67,6.42s-1.05,2.4-1.05,2.4a1.15,1.15,0,0,1-2.17-.77l0-.13.66-2.48c.46-1.56,1.05-3.8,1.87-6.44.37-1.34.62-2.83,1-4.39s.66-3.21,1.06-4.89.58-3.5.91-5.29.62-3.63.93-5.46.49-3.69.72-5.51.54-3.6.7-5.34.38-3.42.59-5,.33-3.11.47-4.5c.57-5.58.94-9.31.94-9.31a1.17,1.17,0,0,1,2.32,0Z" transform="translate(-9.98 -4)"/><path class="cls-35" d="M319.49,310.31a48.72,48.72,0,0,0-.16,7.43,17,17,0,0,0,.51,3.53,9.33,9.33,0,0,0,.59,1.56,5.94,5.94,0,0,0,.85,1.28l.05,1.48a1.09,1.09,0,0,0,.21-1.06,1.61,1.61,0,0,0-.12-.23.83.83,0,0,0-.16-.18,1.08,1.08,0,0,0-.71-.3l.73.32.24.2.05.06,0,0h0l-.15-.11h0l.16.1c-.43-.22-.59,0-.54,0a2.83,2.83,0,0,0,.52-.9,24.27,24.27,0,0,0,.89-2.73c.49-1.91.91-3.89,1.32-5.85h0a.57.57,0,0,1,.68-.45.6.6,0,0,1,.47.59,41,41,0,0,1-.65,6.13,16.46,16.46,0,0,1-.8,3.1,4.59,4.59,0,0,1-1,1.69,1.68,1.68,0,0,1-1.92.32l-.17-.1h0l-.17-.12,0,0-.09-.08-.34-.29.74.31a1.06,1.06,0,0,1-.73-.3.59.59,0,0,1-.15-.19.71.71,0,0,1-.12-.23,1.1,1.1,0,0,1,.22-1.09l0,1.48a7.81,7.81,0,0,1-1.31-1.83,13.34,13.34,0,0,1-.7-2,18.87,18.87,0,0,1-.46-4,29.13,29.13,0,0,1,1.05-7.7.6.6,0,0,1,.72-.41A.58.58,0,0,1,319.49,310.31Z" transform="translate(-9.98 -4)"/><path class="cls-35" d="M339.8,301a40.44,40.44,0,0,1,2,5.25,47.14,47.14,0,0,1,2.2,12.21c0,1.15,0,2.29-.11,3.42a22,22,0,0,1-.49,3.3,16.51,16.51,0,0,1-.93,3,9,9,0,0,1-.64,1.32c-.25.46-.36.74-.72,1.3a1.2,1.2,0,0,1-.37.37,1.24,1.24,0,0,1-.93.23,1.6,1.6,0,0,1-.95-.62,4.51,4.51,0,0,1-.64-1.11,14.7,14.7,0,0,1-.63-1.72,9.42,9.42,0,0,1-.3-1.14l-.09-.39a.59.59,0,0,1,.46-.69.57.57,0,0,1,.66.38l.14.38c.07.26.21.52.4,1a14.42,14.42,0,0,0,.73,1.5,3.82,3.82,0,0,0,.5.71c.07.09.18.09,0,0s-.58.33-.31,0c.18-.53.68-1.42.93-2.22a20.23,20.23,0,0,0,.7-2.76,20.85,20.85,0,0,0,.39-3c.07-1,.06-2.12,0-3.19s-.08-2.16-.21-3.21-.26-2.11-.41-3.11c-.36-2-.67-3.9-1.08-5.49-.74-3.21-1.39-5.3-1.39-5.3a.58.58,0,0,1,1.07-.43Z" transform="translate(-9.98 -4)"/><path class="cls-35" d="M325,315s.31,2.18.77,5.47c.23,1.63.57,3.54.93,5.54.2,1,.42,2,.71,3a11.39,11.39,0,0,0,.51,1.4c.13.42.6.8.31.62a.52.52,0,0,0-.31,0,2.3,2.3,0,0,0,.35-.17c0-.06.11-.09.27-.29a5.6,5.6,0,0,0,.76-1.15,12.94,12.94,0,0,0,1-2.8c.23-1,.64-2,.74-2.86s.35-1.74.45-2.54.15-1.54.22-2.2a10.93,10.93,0,0,0,0-1.69v-1.58a.58.58,0,0,1,1.15-.07s.07.56.21,1.56a11.59,11.59,0,0,1,.14,1.81c0,.69,0,1.48,0,2.34s-.2,1.79-.31,2.78a22.37,22.37,0,0,1-.61,3,14.86,14.86,0,0,1-1.14,3.23,7.77,7.77,0,0,1-1,1.62,4.09,4.09,0,0,1-.95.83c-.16.1-.26.13-.39.2a1.76,1.76,0,0,1-1.12.1,2.25,2.25,0,0,1-1.27-.93,6.53,6.53,0,0,1-.5-.92,12.78,12.78,0,0,1-.58-1.71,31.91,31.91,0,0,1-.69-3.24c-.37-2.09-.49-4.05-.64-5.72-.23-3.35-.19-5.59-.19-5.59A.58.58,0,0,1,325,315Z" transform="translate(-9.98 -4)"/><path class="cls-35" d="M332.52,327.84l.14,1.05a10.86,10.86,0,0,0,.66,2.56c.18.47.54.76.53.66a2.09,2.09,0,0,0,.37-.21c.07,0,.3-.24.23-.15l.38-.41a6.18,6.18,0,0,0,1.11-1.62,14.81,14.81,0,0,0,.69-2c.08-.34.22-.77.26-1l.17-1.17a15.14,15.14,0,0,0,.22-2.24c0-.7.1-1.38.1-2s0-1.3,0-1.89c0-1.17-.08-2.15-.09-2.84s0-1.09,0-1.09v0a.57.57,0,0,1,.56-.59.56.56,0,0,1,.58.46s.09.39.23,1.08.38,1.68.47,2.9a29.51,29.51,0,0,1,.22,4.21,15.08,15.08,0,0,1-.16,2.34l-.13,1.18c-.08.52-.19.86-.28,1.3a13.55,13.55,0,0,1-.89,2.42,8.79,8.79,0,0,1-1.54,2.1l-.38.4a4.54,4.54,0,0,1-.66.47,2.72,2.72,0,0,1-1.6.4,2.14,2.14,0,0,1-1.46-.88,3.75,3.75,0,0,1-.54-1.08,10.11,10.11,0,0,1-.38-3.09,8.74,8.74,0,0,1,.06-1.14.58.58,0,0,1,.65-.5A.6.6,0,0,1,332.52,327.84Z" transform="translate(-9.98 -4)"/><path class="cls-35" d="M193.81,116.3a8.18,8.18,0,0,1,2.09-1.51,8.8,8.8,0,0,1,2.57-.87,7.7,7.7,0,0,1,1.6,0,5.3,5.3,0,0,1,1.65.32,8.17,8.17,0,0,1,1.51.75c.42.35.85.67,1.21,1s.62.78.9,1.14l.6,1.1a9.39,9.39,0,0,1,.66,1.71l.19.66a.58.58,0,0,1-.39.72.6.6,0,0,1-.65-.23l0-.06-.35-.54a13.28,13.28,0,0,0-.91-1.37l-.64-.86c-.26-.25-.55-.5-.81-.8s-.61-.47-.92-.72a6,6,0,0,0-1.07-.46,4.9,4.9,0,0,0-1.13-.27,6.42,6.42,0,0,0-1.16,0,11.91,11.91,0,0,0-2.14.43,16,16,0,0,0-2.07.83.59.59,0,0,1-.79-.26.57.57,0,0,1,.09-.66Z" transform="translate(-9.98 -4)"/><path class="cls-36" d="M244,80.49c-.55-4.58-6.59-4.76-12.09-2.38-4.67,2-8.58,6-7.33,7.69,1.47,2,6-.11,11-1.28C240.15,83.44,244.27,82.81,244,80.49Z" transform="translate(-9.98 -4)"/><path class="cls-36" d="M272.75,78.78c0-4.61,5.34-5.42,10.53-3.63,4.41,1.52,8.36,5,7.44,6.87-1.07,2.16-5.38.52-10-.12C276.53,81.31,272.78,81.12,272.75,78.78Z" transform="translate(-9.98 -4)"/><path class="cls-37" d="M246.1,127.85a12.55,12.55,0,1,1-12.55-12.55A12.55,12.55,0,0,1,246.1,127.85Z" transform="translate(-9.98 -4)"/><path class="cls-37" d="M301.06,123.17a11.45,11.45,0,1,1-11.45-11.44A11.45,11.45,0,0,1,301.06,123.17Z" transform="translate(-9.98 -4)"/><circle class="cls-18" cx="227.32" cy="103.05" r="3.94"/><path class="cls-18" d="M238.63,99.71s0,.33-.11.83a8.66,8.66,0,0,1-.37,1.68,3.15,3.15,0,0,1-.37.76,2.68,2.68,0,0,1-.44.58,4,4,0,0,1-.42.37l-.17.15a.36.36,0,0,0-.22.48.37.37,0,0,0,.47.22,3,3,0,0,0,1.84-1,4.53,4.53,0,0,0,.64-1.08,5.19,5.19,0,0,0,.22-1.18,4,4,0,0,0,0-1,3.45,3.45,0,0,0-.29-.94.39.39,0,0,0-.52-.17.39.39,0,0,0-.21.29Z" transform="translate(-9.98 -4)"/><path class="cls-18" d="M241,100.68s-.07.33-.17.83a9.25,9.25,0,0,1-.51,1.64,2.86,2.86,0,0,1-.43.72,2.34,2.34,0,0,1-.49.54,2.5,2.5,0,0,1-.44.34l-.19.14a.37.37,0,0,0-.26.46.39.39,0,0,0,.46.26,3.27,3.27,0,0,0,1-.24,2.91,2.91,0,0,0,.91-.61,4.42,4.42,0,0,0,.72-1,5.44,5.44,0,0,0,.33-1.15,4.34,4.34,0,0,0,0-1,3.42,3.42,0,0,0-.2-1,.39.39,0,0,0-.51-.21.41.41,0,0,0-.23.27Z" transform="translate(-9.98 -4)"/><path class="cls-18" d="M235.41,100.25s0,.34.11.84a8.71,8.71,0,0,1,.06,1.72,2.66,2.66,0,0,1-.15.82,3,3,0,0,1-.29.68,2.42,2.42,0,0,1-.31.46l-.12.19a.37.37,0,0,0-.1.52.38.38,0,0,0,.52.1A2.9,2.9,0,0,0,236,105a2.85,2.85,0,0,0,.65-.89,4.36,4.36,0,0,0,.34-1.2,5.19,5.19,0,0,0-.08-1.2,4.33,4.33,0,0,0-.31-1,3.53,3.53,0,0,0-.52-.84.38.38,0,0,0-.67.31Z" transform="translate(-9.98 -4)"/><circle class="cls-18" cx="275.14" cy="100.17" r="3.94"/><path class="cls-18" d="M286.44,96.82s0,.33-.11.84a7.89,7.89,0,0,1-.37,1.67,2.54,2.54,0,0,1-.36.76,2.48,2.48,0,0,1-.45.58,2.51,2.51,0,0,1-.41.37,1.84,1.84,0,0,0-.18.15.38.38,0,0,0-.22.48.38.38,0,0,0,.48.23,3.16,3.16,0,0,0,1-.32,2.93,2.93,0,0,0,.86-.69,4.44,4.44,0,0,0,.63-1.08,5.23,5.23,0,0,0,.23-1.18,4.57,4.57,0,0,0-.06-1,3.41,3.41,0,0,0-.28-.94.39.39,0,0,0-.53-.17.38.38,0,0,0-.2.29Z" transform="translate(-9.98 -4)"/><path class="cls-18" d="M288.79,97.8s-.07.33-.18.82a7.67,7.67,0,0,1-.51,1.64,3,3,0,0,1-.42.73,2.91,2.91,0,0,1-.5.54,2.5,2.5,0,0,1-.44.33l-.19.14a.37.37,0,0,0-.25.46.36.36,0,0,0,.45.26,2.78,2.78,0,0,0,1-.23,2.89,2.89,0,0,0,.91-.62,4.36,4.36,0,0,0,.72-1,5.31,5.31,0,0,0,.32-1.16,3.89,3.89,0,0,0,0-1,3.48,3.48,0,0,0-.21-1,.38.38,0,0,0-.51-.21.39.39,0,0,0-.23.27Z" transform="translate(-9.98 -4)"/><path class="cls-18" d="M283.22,97.37s0,.33.11.83a8.71,8.71,0,0,1,.07,1.72,2.78,2.78,0,0,1-.16.83,2.93,2.93,0,0,1-.28.67,3.83,3.83,0,0,1-.31.47,1.15,1.15,0,0,0-.13.19.37.37,0,1,0,.43.61,2.92,2.92,0,0,0,.87-.56,3,3,0,0,0,.65-.88,4.09,4.09,0,0,0,.33-1.21,4.61,4.61,0,0,0-.08-1.19,3.82,3.82,0,0,0-.31-1,3.5,3.5,0,0,0-.51-.83.38.38,0,0,0-.55,0,.38.38,0,0,0-.13.33Z" transform="translate(-9.98 -4)"/><path class="cls-38" d="M266.07,107.33c-2-.84-9.48-.76-10.86,4.94-1.1,4.54,2.89,6.6,5.22,7.15,2.71.64,8.38-.14,9.62-4A6.65,6.65,0,0,0,266.07,107.33Z" transform="translate(-9.98 -4)"/><path class="cls-39" d="M245.32,125s.52.23,1.45.6,2.3.85,3.91,1.41c.83.24,1.7.56,2.66.76s1.95.46,3,.65,2.13.3,3.22.48,2.21.15,3.32.15a22.45,22.45,0,0,0,3.29-.24l1.59-.22c.53-.09,1-.26,1.52-.39l1.48-.38,1.35-.54a11.3,11.3,0,0,0,2.42-1.15c.71-.44,1.42-.77,2-1.14l1.42-1.08,1.28-.92.1-.08a.87.87,0,0,1,1.14,1.3l-1.16,1.22-1.37,1.38c-.57.5-1.27,1-2,1.53a13.93,13.93,0,0,1-2.61,1.54l-1.49.75c-.53.19-1.08.37-1.64.54a18.48,18.48,0,0,1-3.54.85,25.46,25.46,0,0,1-3.72.31,30.11,30.11,0,0,1-7.21-.85,23.7,23.7,0,0,1-3.18-.94c-1-.32-1.9-.74-2.75-1.07a28.93,28.93,0,0,1-5.31-3,.87.87,0,0,1,.88-1.5Z" transform="translate(-9.98 -4)"/><path class="cls-23" d="M252.78,105.5A14.84,14.84,0,1,1,238,90.29,15,15,0,0,1,252.78,105.5Z" transform="translate(-9.98 -4)"/><path class="cls-23" d="M301.52,102.57a14.84,14.84,0,1,1-14.84-15.21A15,15,0,0,1,301.52,102.57Z" transform="translate(-9.98 -4)"/><path class="cls-40" d="M253,102.93a11.94,11.94,0,0,1,2.25-2.3A15,15,0,0,1,258,98.85q.84-.37,1.77-.69a10.42,10.42,0,0,1,1.93-.45,8.86,8.86,0,0,1,2-.1,10,10,0,0,1,1.92.2,8.47,8.47,0,0,1,1.73.5,8.34,8.34,0,0,1,1.44.66,6.46,6.46,0,0,1,1.15.67l.8.62.69.55a.59.59,0,0,1,.08.82.58.58,0,0,1-.69.16l-.08,0-.74-.35-.82-.42a9.73,9.73,0,0,0-1.1-.43,6.94,6.94,0,0,0-1.31-.43,13.13,13.13,0,0,0-1.49-.28,8.44,8.44,0,0,0-1.6-.11,7.67,7.67,0,0,0-1.65.14,13,13,0,0,0-3.18.87,20.25,20.25,0,0,0-2.64,1.33,21.8,21.8,0,0,0-2.42,1.65.58.58,0,0,1-.82-.08.57.57,0,0,1,0-.7Z" transform="translate(-9.98 -4)"/><path class="cls-40" d="M238,121.8a16.31,16.31,0,1,1,15.93-16.3A16.14,16.14,0,0,1,238,121.8Zm0-30.41a14.11,14.11,0,1,0,13.74,14.11A13.94,13.94,0,0,0,238,91.39Z" transform="translate(-9.98 -4)"/><path class="cls-40" d="M286.68,118.87a16.31,16.31,0,1,1,15.94-16.3A16.14,16.14,0,0,1,286.68,118.87Zm0-30.41a14.11,14.11,0,1,0,13.74,14.11A13.94,13.94,0,0,0,286.68,88.46Z" transform="translate(-9.98 -4)"/><path class="cls-41" d="M236.6,95.6c-1.34-1.33-3.38,1.09-4.22,2-1,1-2.37,2.18-2.11,3.78a.86.86,0,0,0,.82.63c1.45.14,2.54-1.34,3.45-2.25S237.91,96.91,236.6,95.6Z" transform="translate(-9.98 -4)"/><path class="cls-41" d="M239.4,98a3.36,3.36,0,0,0-2.22,2.87.19.19,0,0,0,.15.2c1.18.32,2.77-1.09,2.92-2.21A.71.71,0,0,0,239.4,98Z" transform="translate(-9.98 -4)"/><path class="cls-41" d="M286.16,92a1.57,1.57,0,0,0-1.5-1.14c-1.56-.16-2.57,1.51-3.52,2.51a19.74,19.74,0,0,0-2.68,3.23,1.45,1.45,0,0,0,2,2A22.47,22.47,0,0,0,283.77,96C285,94.9,286.56,93.81,286.16,92Z" transform="translate(-9.98 -4)"/><path class="cls-41" d="M288.6,93.82c-.43.58-.88,1.08-1.26,1.71a1.35,1.35,0,0,0,1.83,1.84,4.3,4.3,0,0,0,2-2.07A1.47,1.47,0,0,0,288.6,93.82Z" transform="translate(-9.98 -4)"/><path class="cls-42" d="M298.73,430a1.12,1.12,0,0,0-1.86-.49c-.87.93-1.42,2.06-2.33,3a9.34,9.34,0,0,1-1.46,1.13,6.4,6.4,0,0,0-1.74,1.7,1.31,1.31,0,0,0,1.13,2,4.58,4.58,0,0,0,2.31-.74,15,15,0,0,0,2.11-1.7A5.53,5.53,0,0,0,298.73,430Z" transform="translate(-9.98 -4)"/><path class="cls-42" d="M239.3,431.43c-.08-.31-.4-.55-.4-.79a.24.24,0,0,0-.35-.2l.12.17a1.45,1.45,0,0,0-.7-.2,3.19,3.19,0,0,0-1.17.32,16.62,16.62,0,0,0-2.49,1.5c-1.22.74-3.75,3.4-1.81,4.7,1.75,1.17,4-.14,5.21-1.44a6,6,0,0,0,1.57-2.66A3.15,3.15,0,0,0,239.3,431.43Z" transform="translate(-9.98 -4)"/><path class="cls-43" d="M200.39,176.48l-1.2,1.3a16.13,16.13,0,0,0-1.36,1.62,27.52,27.52,0,0,0-1.68,2.31,45,45,0,0,0-3.72,6.74,71.93,71.93,0,0,0-3.4,9.38,116,116,0,0,0-4,24.63,154.92,154.92,0,0,0,.79,28.6,69.49,69.49,0,0,0,2.92,14.05q1.31,3.39,2.6,6.7c.94,2.14,2,4.17,3,6.22l.37.76c.06.14.27.46.4.68l.89,1.45c.59,1,1.16,1.93,1.74,2.88s1.14,1.88,1.69,2.81,1.26,1.69,1.87,2.54c1.27,1.63,2.5,3.23,3.69,4.77l3.92,4.08a41.34,41.34,0,0,0,3.85,3.52,37.79,37.79,0,0,0,3.65,3l3.37,2.39,3,1.79a44.17,44.17,0,0,0,4.39,2.2c1,.43,1.6.64,1.6.64a.57.57,0,0,1,.37.73.59.59,0,0,1-.73.37s-.6-.19-1.69-.61a47.77,47.77,0,0,1-4.6-2.12L219,308.15l-3.53-2.34a39.82,39.82,0,0,1-3.84-2.92,37.07,37.07,0,0,1-4-3.54l-4.09-4.13-3.9-4.91a31.13,31.13,0,0,1-2-2.6l-1.74-2.79c-1.15-1.93-2.41-3.68-3.52-5.88s-2.1-4.25-3.06-6.44-1.73-4.44-2.6-6.69a71,71,0,0,1-3.05-14.58,152.58,152.58,0,0,1-.4-29A109.81,109.81,0,0,1,188,197.5a54.37,54.37,0,0,1,7.92-16,23.61,23.61,0,0,1,1.81-2.24,14.5,14.5,0,0,1,1.44-1.56Z" transform="translate(-9.98 -4)"/><path class="cls-43" d="M215.26,206.15s.29,5.95,1.36,14.82c.5,4.44,1.27,9.59,2.2,15.09.47,2.75,1,5.57,1.63,8.44s1.31,5.75,2.05,8.62,1.55,5.73,2.46,8.51,1.85,5.48,2.88,8.06a88.22,88.22,0,0,0,6.65,13.58c1.18,1.87,2.27,3.59,3.37,5s2.1,2.62,2.94,3.6,1.61,1.64,2.09,2.14l.75.75,0,0a.58.58,0,0,1-.8.84l-.8-.73c-.51-.5-1.33-1.15-2.24-2.12s-2-2.11-3.17-3.57a49.92,49.92,0,0,1-3.64-5,85.53,85.53,0,0,1-7.08-13.74c-1.07-2.62-2.09-5.36-3-8.18s-1.77-5.7-2.55-8.61a203.23,203.23,0,0,1-5.51-32.52c-.8-9-.78-15-.78-15a.57.57,0,0,1,.57-.58A.59.59,0,0,1,215.26,206.15Z" transform="translate(-9.98 -4)"/><path class="cls-34" d="M247.21,291.71a15,15,0,0,1-.58,1.49c-.4.95-1,2.27-1.81,3.82a48.74,48.74,0,0,1-3.19,5.06,26.83,26.83,0,0,1-2.07,2.69l-2.33,2.64c-.85.82-1.77,1.6-2.64,2.39-.43.39-.87.77-1.32,1.13l-1.46.95c-1,.64-1.81,1.16-2.84,1.76a22.1,22.1,0,0,1-2.61,1.09,13.74,13.74,0,0,1-2.48.68,12.34,12.34,0,0,1-1.92.28c-1.08.07-1.68.07-1.68.07a1.16,1.16,0,0,1-.38-2.25l.16-.05s.52-.18,1.4-.43a10.15,10.15,0,0,0,1.55-.57,17.41,17.41,0,0,0,1.88-.89c.64-.27,1.49-.89,2.31-1.34.59-.47,1.44-1.14,2.21-1.7l1.21-.9,1.14-1.08c.76-.73,1.57-1.44,2.33-2.2l2.18-2.4c.75-.77,1.38-1.62,2-2.41,1.35-1.55,2.46-3.13,3.52-4.42s1.87-2.43,2.4-3.23l.91-1.25a1.17,1.17,0,0,1,1.64-.25,1.15,1.15,0,0,1,.43,1.27Z" transform="translate(-9.98 -4)"/><path class="cls-43" d="M292.17,195.91l1.63,4.76c1,3,2.49,7.38,4.09,12.64s3.41,11.4,5.3,18c.87,3.32,1.77,6.75,2.69,10.24s1.89,7,2.67,10.6,1.64,7.14,2.45,10.65,1.56,7,2.21,10.36,1.28,6.63,1.88,9.72,1.17,6,1.54,8.74l2.65,18.12a.58.58,0,0,1-.49.65.57.57,0,0,1-.65-.47v0s-1.28-7.2-3.21-18c-.88-5.41-2.4-11.63-3.72-18.34-.67-3.36-1.4-6.82-2.27-10.31s-1.66-7-2.5-10.61c-1.65-7.12-3.58-14.16-5.24-20.81-1.87-6.59-3.41-12.79-5-18s-2.74-9.66-3.68-12.71l-1.46-4.81a.58.58,0,0,1,.37-.73A.59.59,0,0,1,292.17,195.91Z" transform="translate(-9.98 -4)"/><path class="cls-35" d="M266.5,107.24a5.66,5.66,0,0,1,2.56,1,5.79,5.79,0,0,1,2,2.16,6.82,6.82,0,0,1,.57,1.61,5,5,0,0,1,.11.89,5.62,5.62,0,0,1-.07.92,6.64,6.64,0,0,1-1.49,3,10.69,10.69,0,0,1-4.44,2.91.58.58,0,0,1-.51-1l0,0,.5-.38a15.5,15.5,0,0,0,1.3-1.08,7,7,0,0,0,2.47-3.78c0-.18,0-.36,0-.54a4.66,4.66,0,0,0,0-.56,5.16,5.16,0,0,0-.32-1.06,5.57,5.57,0,0,0-1.19-1.68,7.78,7.78,0,0,0-1.25-1,4.23,4.23,0,0,0-.52-.3h0a.59.59,0,0,1,.31-1.11Z" transform="translate(-9.98 -4)"/><path class="cls-44" d="M261.94,119.37c.41-.36-3.94-2.26-4.6-1.44C256.8,118.6,260.53,120.65,261.94,119.37Z" transform="translate(-9.98 -4)"/><path class="cls-8" d="M199.65,185.63a1.48,1.48,0,0,0-2.21,1.26l0,1.65a.68.68,0,0,0,1.14.48l1.39-1.09A1.47,1.47,0,0,0,199.65,185.63Z" transform="translate(-9.98 -4)"/><path class="cls-8" d="M204.23,181.65a1.93,1.93,0,0,0-.22-.28,1.41,1.41,0,0,0-2,0l-.47.45a1.35,1.35,0,0,0,1.62,2.11l.57-.34A1.43,1.43,0,0,0,204.23,181.65Z" transform="translate(-9.98 -4)"/><path class="cls-8" d="M204.48,186.09a2.08,2.08,0,0,0-1.67-.19,1.64,1.64,0,0,0-1.24,2.27,1.76,1.76,0,0,0,2.62,1.34,3.62,3.62,0,0,0,.95-.92A1.85,1.85,0,0,0,204.48,186.09Z" transform="translate(-9.98 -4)"/><path class="cls-8" d="M197.13,263.78c-.44-.68-.73-1.38-1.23-2a.34.34,0,0,0-.57,0c-.5.66-.79,1.36-1.23,2a1.75,1.75,0,1,0,3,0Z" transform="translate(-9.98 -4)"/><path class="cls-8" d="M201.86,271.52a7.1,7.1,0,0,0-2-1.84,1.84,1.84,0,0,0-2.51,2.5,3.06,3.06,0,0,1,.53,1C198.51,276.42,203.72,274.14,201.86,271.52Z" transform="translate(-9.98 -4)"/><path class="cls-8" d="M203,262.71c-1.47-1-2.84.89-2.22,2.22s-.47-.29.26.95a2.87,2.87,0,0,0,1.05,1,1.23,1.23,0,0,0,1.28,0C205.12,265.58,204.65,263.82,203,262.71Z" transform="translate(-9.98 -4)"/><path class="cls-8" d="M333.54,283.5c-1.07-2.19-4.27-.28-3.25,1.9a9.34,9.34,0,0,1,.82,3,1.93,1.93,0,0,0,1.89,1.89,1.9,1.9,0,0,0,1.9-1.89A12.7,12.7,0,0,0,333.54,283.5Z" transform="translate(-9.98 -4)"/><path class="cls-8" d="M332.88,293.22a2.89,2.89,0,0,0-2.25-2.39,1.37,1.37,0,0,0-1.73,1.31,4,4,0,0,1-.15,1.08,2.14,2.14,0,1,0,4.13,0Z" transform="translate(-9.98 -4)"/><path class="cls-8" d="M325.5,283.89l-.36-.21a.75.75,0,0,0-.74,0l-.36.21a1.44,1.44,0,1,0,1.46,0Z" transform="translate(-9.98 -4)"/><path class="cls-8" d="M243,321.48c-3.4,1.33-5.78,2.28-9.46,1.13-2.8-.89-5.45-2.2-8.22-3.19-.21-.07-.32.2-.2.35,4.23,5.06,13.82,11,19.34,4.2C245.32,323,244.58,320.87,243,321.48Z" transform="translate(-9.98 -4)"/><path class="cls-8" d="M233.64,329.5a6,6,0,0,0-1.92-1.06,6.77,6.77,0,0,1-1.7-.5,6.45,6.45,0,0,1-1.45-1,6.57,6.57,0,0,1-.92-.84c-.08-.17-.34-.08-.34.09s-.11.19-.18.44a2.48,2.48,0,0,0,0,1.15,4.49,4.49,0,0,0,1,2.16,7.37,7.37,0,0,0,2,1.58,4.48,4.48,0,0,0,3.22.31C234.51,331.66,234.48,330.05,233.64,329.5Z" transform="translate(-9.98 -4)"/><path class="cls-8" d="M311,350c-.79-1.57-3.69-.91-3.45.94.18,1.44-.06,2.94,0,4.39a2.4,2.4,0,0,0,4.79,0A10.27,10.27,0,0,0,311,350Z" transform="translate(-9.98 -4)"/><path class="cls-8" d="M304.44,353.57c-.15-.28-.06-.7-.44-.82-1.44-.44-2.07,1.76-2.2,2.72a1.58,1.58,0,1,0,3.08,0A5.13,5.13,0,0,0,304.44,353.57Z" transform="translate(-9.98 -4)"/><path class="cls-8" d="M310.77,365.44a4.31,4.31,0,0,0-2.54-2,1.86,1.86,0,0,0-2.35,1.77,1.55,1.55,0,0,0-.12.22,3.07,3.07,0,0,0,.45,3.52l.16.2c1.13,1.46,3.38.76,4.24-.54.05-.08.1-.17.16-.25A2.85,2.85,0,0,0,310.77,365.44Z" transform="translate(-9.98 -4)"/><path class="cls-45" d="M223.31,41.3a.81.81,0,0,0-1,1c1,3.35,2.68,6,3,9.59.32,3.46-.32,8.69-4.92,8a.31.31,0,0,0-.24.57c4.47,3.35,7.49-1.34,8.09-5.53C228.83,51.12,228.33,42.16,223.31,41.3Z" transform="translate(-9.98 -4)"/><path class="cls-45" d="M234.21,42.34c-1.12-2.63-3.18-4.75-6.17-4.62a1.06,1.06,0,0,0-.74,1.8c1.28,1.37,3,2.37,4,4s1.09,3.67,2.07,5.3a.23.23,0,0,0,.36,0C235.28,47.14,235.06,44.32,234.21,42.34Z" transform="translate(-9.98 -4)"/><path class="cls-45" d="M299,37.15c2.78-2.78-.57-8.44-4.88-9.64a.29.29,0,0,0-.36.28,6.82,6.82,0,0,0,.93,3c.81,1.55,2.66,3.36-.1,3.75-1.73.24-2.1,3.13-.5,3.81,4,1.72,4.09,4.89,2,8.25a.79.79,0,0,0,.88,1.14C302.26,46.4,301.74,40.72,299,37.15Z" transform="translate(-9.98 -4)"/><path class="cls-45" d="M263.75,16.57a6.26,6.26,0,0,0-5-1.1c-.22,0-.2.32-.06.42a14.17,14.17,0,0,1,3,2.74c.94,1.27.84,2.86,1.67,4.14a1.75,1.75,0,0,0,3.16-.41C267.44,20.15,265.42,17.77,263.75,16.57Z" transform="translate(-9.98 -4)"/><path class="cls-45" d="M196.82,81.23a3.79,3.79,0,0,1-.43-3.46,2,2,0,0,0-3.25-1.9,5,5,0,0,1-1.52,1.28,2.7,2.7,0,0,1-.25-.6c-.37-1.31-1.07-3.46-.53-4.75.08-.2-.22-.3-.33-.14-.84,1.32-1.82,2-2.35,3.57a5.72,5.72,0,0,0,.35,4.22c.87,2,2.53,2.1,4.13,1.46a5.73,5.73,0,0,0,3.85,3.75.85.85,0,0,0,1.08-.82A8.23,8.23,0,0,0,196.82,81.23Z" transform="translate(-9.98 -4)"/><path class="cls-40" d="M204.13,108a1.1,1.1,0,0,1-.26-2.17l18.68-4.67a1.1,1.1,0,1,1,.54,2.13L204.4,108A.84.84,0,0,1,204.13,108Z" transform="translate(-9.98 -4)"/><path class="cls-46" d="M213.39,46.34a1.8,1.8,0,0,0-1.78,1.78c-.07,2.14,1.44,4,.95,6.08a3.42,3.42,0,0,1-.56,1.23l-.09-.21c-.55-3.1-6-2.21-5.06,1.29a7,7,0,0,0,2,3.32c.25,1.71-.21,3.52-1.84-.15-.56-1.25-2.35-.17-1.82,1.06.84,2,3,5.61,5.61,3.51a4.15,4.15,0,0,0,1.57-3.09,5.83,5.83,0,0,0,4.26-2.51C219.35,55,219.3,46.62,213.39,46.34Z" transform="translate(-9.98 -4)"/><path class="cls-46" d="M241.3,35.75C239.2,34.38,237,37,238.05,39A22,22,0,0,1,240,42.66c.33,1,.08,2.45.71,3.35a.81.81,0,0,0,.88.36c1.65-.37,2.15-2.85,2.33-4.24A6.57,6.57,0,0,0,241.3,35.75Z" transform="translate(-9.98 -4)"/><path class="cls-46" d="M250.1,27.94c-1.95-1.41-4.34.52-4.45,2.55-.15,2.66,1.2,5.37,1.3,8.1a28,28,0,0,1-.53,8.51,1.09,1.09,0,0,0,1.81,1C252.88,43.79,256.42,32.49,250.1,27.94Z" transform="translate(-9.98 -4)"/><path class="cls-46" d="M259.74,29.61c-2.26-2.26-6.3.7-4.49,3.47a15.22,15.22,0,0,1,2.12,3.77,12.8,12.8,0,0,1,.37,5,1.45,1.45,0,0,0,2.69.73C262.46,38.4,263.44,33.3,259.74,29.61Z" transform="translate(-9.98 -4)"/><path class="cls-46" d="M268,32.31a2.14,2.14,0,0,0-2.34,1.8c-.29,1,.2,2.15,0,3.22a2,2,0,0,0,3.87,1.07C270.23,36.64,270.73,32.68,268,32.31Z" transform="translate(-9.98 -4)"/><path class="cls-46" d="M275.21,25.87a2,2,0,0,0-3.3,1.37c0,2.83,1.83,5.55,2.77,8.17a17.65,17.65,0,0,1,1.22,4.72c.1,1.4-.77,2.25-.94,3.5a.36.36,0,0,0,.25.44c3,.91,3.86-4.2,4-6.1C279.33,34.25,278.07,28.48,275.21,25.87Z" transform="translate(-9.98 -4)"/><path class="cls-46" d="M286.51,37.46a1.53,1.53,0,0,0-2.62,0c-.76,1.14-.54,2.31-.33,3.6.15.89.69,2.06,1.77,1.61.65-.28,1-1.29,1.26-1.89A3.38,3.38,0,0,0,286.51,37.46Z" transform="translate(-9.98 -4)"/></g></g></g></svg>