<svg xmlns="http://www.w3.org/2000/svg" viewBox="0 0 339.9 493.28"><defs><style>.cls-1{isolation:isolate;}.cls-2{fill:#3b2f0d;}.cls-3{fill:#f2cabb;}.cls-4{fill:#edb769;}.cls-5{fill:#fbd689;}.cls-6,.cls-9{fill:#650e81;mix-blend-mode:multiply;}.cls-6{opacity:0.2;}.cls-7{fill:#725c36;}.cls-8{fill:#7c663a;}.cls-9{opacity:0.1;}.cls-10{fill:#cfa861;}.cls-11{fill:#b57d70;}.cls-12{fill:#ac844c;}.cls-13{fill:#665028;}.cls-14{fill:#b37073;}.cls-15{fill:#5b5b5f;}.cls-16{fill:#d5958c;}.cls-16,.cls-25,.cls-36{opacity:0.7;}.cls-17{fill:#353534;}.cls-18{fill:#ddab9b;}.cls-19,.cls-25,.cls-44{fill:#fff;}.cls-19,.cls-23,.cls-41,.cls-44{mix-blend-mode:soft-light;}.cls-20{fill:#e58d9a;}.cls-21{fill:#290400;}.cls-22{fill:#1e120d;}.cls-23{fill:#56acde;}.cls-24{fill:#506472;}.cls-26{fill:#dcd4dd;}.cls-27{fill:#ccc4ce;}.cls-28{fill:#e5b9a8;}.cls-29{fill:#a47ca4;}.cls-30{fill:#3e426c;}.cls-31{fill:#151733;}.cls-32{fill:#67506c;}.cls-33{fill:#272a48;}.cls-34{fill:#aea7af;}.cls-35{fill:#a8635a;}.cls-36{fill:#da8981;}.cls-37{fill:#564f56;}.cls-38{fill:#c16868;}.cls-39{fill:#5f322d;}.cls-40{fill:#5a5b72;}.cls-41{fill:#a5ddf9;opacity:0.8;}.cls-42{fill:#db737a;opacity:0.3;}.cls-43{fill:#bfb4c1;}.cls-43,.cls-44{opacity:0.4;}</style></defs><title>pareja-viejos-2</title><g class="cls-1"><g id="Capa_1" data-name="Capa 1"><path class="cls-2" d="M320.19,482.7h1.22c-.33,4.55-.78,7.34-1.37,7.77-5.06,3.78-32.79,5.45-32.74,2.68s8.43-5.93,8.43-5.93S313.44,488.11,320.19,482.7Z" transform="translate(-9.1 -4)"/><path class="cls-3" d="M317.11,77.9a15.9,15.9,0,0,0-3.88-1.05l0-.13c1.26-8,8.18-63.82-40.89-71.62C240.11,0,215.7,12.85,207,43c-6.74,23.24-3.28,53.76-3.28,53.76s-4.42,7.89-3.36,14.92c1,6.65,15.08,24.14,40.16,29.16l-.81,13.15a27.79,27.79,0,0,0,13.91,5.7c.6.06,1.22.09,1.86.11a22.57,22.57,0,0,0,12.8-3.85c.54-.35.85-1.74,1-3.53a93.48,93.48,0,0,0,0-11.68l-.06-.2A51.11,51.11,0,0,0,302,116.12s7.19,1,12.78-2C328.15,107.11,328.63,82.61,317.11,77.9Z" transform="translate(-9.1 -4)"/><path class="cls-4" d="M329.93,195.35a15.92,15.92,0,0,1-1.68,1.82,35.6,35.6,0,0,1-8.62,5.91,37.33,37.33,0,0,1-13.42,3.85c-1.4.06-2.39-.15-2.71-.65a31.88,31.88,0,0,1-1.58-3.51l.54-.21c16.67-2.26,25.43-11.95,25.43-11.95l.32-.13C329.39,193.45,329.93,195.35,329.93,195.35Z" transform="translate(-9.1 -4)"/><path class="cls-4" d="M272.37,154c1.23.85,2.38,2,2.35,3.35-.06,3.41-11.7,12.51-12.81,12.49-.8,0-3.77-5.22-5.4-8.15-.54-1-.92-1.72-1-1.9a22.57,22.57,0,0,0,12.8-3.85c.54-.35.85-1.74,1-3.53l.34,0A15.45,15.45,0,0,1,272.37,154Z" transform="translate(-9.1 -4)"/><path class="cls-4" d="M238.28,159.92c-1.33-3.44-.46-5.64-.14-6.28a11.46,11.46,0,0,1,1.57.3,27.79,27.79,0,0,0,13.91,5.7v0s-6.92,9.4-8.32,9.63S240.22,164.94,238.28,159.92Z" transform="translate(-9.1 -4)"/><path class="cls-4" d="M193.58,189.06S207,199.5,217.51,199.53c-.46,1.94-1,4.08-1.52,6.35-6.15.12-12.22-3.08-16.79-6.38a54,54,0,0,1-7.91-6.89s.74-1.38,2.07-3.66Z" transform="translate(-9.1 -4)"/><path class="cls-5" d="M217.51,199.53c-10.48,0-23.93-10.47-23.93-10.47l-.22-.11c3.4-5.81,10.72-17.41,19.85-26.38,10.15-10,20.95-9.52,24.93-8.93-.32.64-1.19,2.84.14,6.28,1.94,5,5.64,9.61,7,9.37s8.32-9.63,8.32-9.63v0c.6.06,1.22.09,1.86.11.11.18.49.91,1,1.9l-2,.07s2.48,23.7-3.11,45.37-20.6,89,3.22,117.52v.05a190.34,190.34,0,0,1-50.79-9.18c-.46-.48-.92-1-1.35-1.49,0,0,0,0,0,0-15.19-18.59-.3-61.15,3.1-69.38,2.12-5.1,6.93-24.31,10.41-38.71C216.54,203.61,217.05,201.47,217.51,199.53Z" transform="translate(-9.1 -4)"/><path class="cls-5" d="M306.23,208.17s15.48,66.42,13,80.78c-.78,4.44-8.3,8.34-6.89,11.69s7.43-2.06,7.43-2.06-1.95,10.09,0,12.72a.79.79,0,0,0,0,.26,108.68,108.68,0,0,1-33.55,11.26,151.55,151.55,0,0,1-31.57,1.84v-.05c-23.82-28.55-8.83-95.84-3.22-117.52s3.11-45.37,3.11-45.37l2-.07c1.63,2.93,4.6,8.14,5.4,8.15,1.11,0,12.75-9.08,12.81-12.49,0-1.33-1.12-2.5-2.35-3.35l0,0s11-2,21.39,1.18c20.58,6.28,30.71,26.09,34.43,35.36l-.32.13s-8.76,9.69-25.43,11.95l-.54.21a31.88,31.88,0,0,0,1.58,3.51c.32.5,1.31.71,2.71.65Z" transform="translate(-9.1 -4)"/><path class="cls-6" d="M319.76,298.58s-6,5.42-7.43,2.06,6.11-7.25,6.89-11.69c1.71-9.85-5-44.17-9.44-64.77-1.71-8-3.07-13.9-3.44-15.54l-.11-.47,0-1.24a6.93,6.93,0,0,1-.79,0c-1,0-1.67-.26-1.92-.65a31.88,31.88,0,0,1-1.58-3.51l.54-.21.18,0c-2.16-3.26-4.31-6.53-5.4-10.87,1.42,8.52,5.73,19.21,6.84,28.81,9.38,35.71,12.35,73.1-8.33,100.32a105,105,0,0,0,24-9.23.79.79,0,0,1,0-.26C317.81,308.67,319.76,298.58,319.76,298.58Z" transform="translate(-9.1 -4)"/><path class="cls-2" d="M256.38,487.54l.4,0c-.35,4.25-.89,6.83-1.65,7.15-6.14,2.64-39.42,4.2-38.78-.22s9-7.57,9-7.57S247.43,491.8,256.38,487.54Z" transform="translate(-9.1 -4)"/><path class="cls-7" d="M319.61,344.18C294.07,347,286.23,323,286.23,323l0-.2a108.68,108.68,0,0,0,33.55-11.26c.08,2.84.45,15.37.89,32.6Z" transform="translate(-9.1 -4)"/><path class="cls-8" d="M320.63,344.16c1.06,42.88,2.5,114.8.78,138.53h-1.22c-6.75,5.41-27,5.14-27,5.14s-26.93-107-31.68-147a50.94,50.94,0,0,1-8.19-.54l-.13.93s6.24,116,3.6,146.36l-.4,0c-8.95,4.26-31-.61-31-.61S202,361.53,201.63,318a22.92,22.92,0,0,0,.85-4c.43.52.89,1,1.35,1.49a190.34,190.34,0,0,0,50.79,9.18,151.55,151.55,0,0,0,31.57-1.84l0,.2s7.84,24,33.38,21.16Z" transform="translate(-9.1 -4)"/><path class="cls-9" d="M257.39,457c-.43-45.46-4.21-115.78-4.21-115.78l.06-.4c-3.05-1.89-6.09-1.42-9.14-2.13A863.7,863.7,0,0,0,257.39,457Z" transform="translate(-9.1 -4)"/><path class="cls-8" d="M320.63,344.16l-1,0C294.07,347,286.23,323,286.23,323l0-.2a151.55,151.55,0,0,1-31.57,1.84,190.34,190.34,0,0,1-50.79-9.18c-.46-.48-.92-1-1.35-1.49a22.92,22.92,0,0,1-.85,4c.4,43.57,23.74,169,23.74,169s22.06,4.87,31,.61l.4,0c.58-6.72.73-17.64.61-30.58A863.7,863.7,0,0,1,244.1,338.68a10,10,0,0,1-2.25-.78,10,10,0,0,0,2.25.78l0-.78,0,.78c3.05.71,6.09.24,9.14,2.13l.07-.53a50.94,50.94,0,0,0,8.19.54c4.75,40,31.68,147,31.68,147s20.39,1.43,27.15-4l1.08-1.18C323.13,459,321.69,387,320.63,344.16Z" transform="translate(-9.1 -4)"/><path class="cls-9" d="M286.19,322.82a151.55,151.55,0,0,1-31.57,1.84,190.34,190.34,0,0,1-50.79-9.18c-.46-.48-.92-1-1.35-1.49a22.92,22.92,0,0,1-.85,4c0,1.1,0,2.27.07,3.48,26.75,9.89,58.73,13,86.16,5.3a89.64,89.64,0,0,0,28.29-13.35A110.68,110.68,0,0,1,286.19,322.82Z" transform="translate(-9.1 -4)"/><path class="cls-3" d="M335.52,304c0,.13,0,.28-.06.48A4.83,4.83,0,0,0,335.52,304Zm-.06.53c-.73,4.19-5.57,12.94-8.64,11.15-2.37-1.37-1-8,0-11.66a11.06,11.06,0,0,0,.65-2.29c-.07.24-.33,1.1-.65,2.29-1.54,3.87-5.15,9.29-6.9,7.47a1.15,1.15,0,0,1-.15-.2c-1.92-2.63,0-12.72,0-12.72s-6,5.42-7.43,2.06,6.11-7.25,6.89-11.69c2.49-14.36-13-80.78-13-80.78l0-1.24a37.33,37.33,0,0,0,13.42-3.85,35.6,35.6,0,0,0,8.62-5.91l.35.37a267.23,267.23,0,0,1,18.12,64.63c4.54,31.11-4.74,53.4-8.45,52.64C334.94,314.14,335.26,307,335.46,304.54Z" transform="translate(-9.1 -4)"/><path class="cls-3" d="M346.72,262.17a270.54,270.54,0,0,0-17.8-63.92,48,48,0,0,1-21.43,15.47c3.63,16.23,13.79,63.4,11.73,75.23-.78,4.44-8.3,8.34-6.89,11.69s7.43-2.06,7.43-2.06-1.95,10.09,0,12.72a1.15,1.15,0,0,0,.15.2c1.75,1.82,5.36-3.6,6.9-7.47.32-1.19.58-2,.65-2.29a11.06,11.06,0,0,1-.65,2.29c-.95,3.62-2.33,10.29,0,11.66,3.07,1.79,7.91-7,8.64-11.15-.2,2.47-.52,9.6,2.81,10.27C342,315.57,351.26,293.28,346.72,262.17Zm-11.26,42.32c0-.2,0-.35.06-.48C335.49,304.14,335.49,304.29,335.46,304.49Z" transform="translate(-9.1 -4)"/><path class="cls-9" d="M328.92,198.25l-.32-.71-.35-.37a35.6,35.6,0,0,1-8.62,5.91,37.33,37.33,0,0,1-13.42,3.85l0,1.24s.48,2.09,1.26,5.55A48,48,0,0,0,328.92,198.25Z" transform="translate(-9.1 -4)"/><path class="cls-3" d="M187.75,308.16c-.07,3.45-.48,15.19-3.62,12.84-3.67-2.73-6.06-17.62-5.13-30.19,3.25-43.35,19.91-90.89,19.91-90.89l.29-.42c4.57,3.3,10.64,6.5,16.79,6.38-3.48,14.4-8.29,33.61-10.41,38.71-3.4,8.23-18.29,50.79-3.1,69.38,0,0,0,0,0,0a22.92,22.92,0,0,1-.85,4c-.52,1.7-1.33,3.19-2.45,2.79-2.2-.8-3.09-3.92-3.41-6.92a55,55,0,0,0-.05-6.18,34.64,34.64,0,0,0,.05,6.18c-.22,4.08-1.08,8.6-3.91,8.26C188.28,321.62,187.82,311.37,187.75,308.16Z" transform="translate(-9.1 -4)"/><path class="cls-9" d="M216,205.88c-6.15.12-12.22-3.08-16.79-6.38l-.29.42-.25.71c2.56,4.57,6.77,7.85,11.6,10.25l.57-3.71-.57,3.71c1.32.66,2.68,1.26,4.07,1.8Z" transform="translate(-9.1 -4)"/><path class="cls-9" d="M205.58,244.59c1.8-4.33,5.54-18.82,8.75-31.91-1.39-.54-2.75-1.14-4.07-1.8-2,12.76-4,25.52-6.41,38.28C204.55,247.18,205.16,245.62,205.58,244.59Z" transform="translate(-9.1 -4)"/><path class="cls-6" d="M269.42,142.37c-.05-1-.09-1.68-.09-1.68l-.06-.2a59.56,59.56,0,0,1-11.6,1.61,71.14,71.14,0,0,1-17.15-1.31L240,148.6A50.64,50.64,0,0,0,269.42,142.37Z" transform="translate(-9.1 -4)"/><path class="cls-10" d="M220.54,189.25s-.43,2-1.19,5.43-1.81,8.41-3.22,14.31-3,12.8-4.89,20.16c-1,3.67-1.93,7.46-3.17,11.31s-2.72,7.58-4,11.4a154.41,154.41,0,0,0-5.86,22.82,86.14,86.14,0,0,0-1.38,20.4,45.86,45.86,0,0,0,1.2,8,30.4,30.4,0,0,0,2.07,5.87,15.67,15.67,0,0,0,1.08,2,10.59,10.59,0,0,0,.91,1.43c.54.75.82,1.16.82,1.16l0,0a.6.6,0,0,1-.14.82.59.59,0,0,1-.8-.12s-.31-.42-.91-1.19a12.09,12.09,0,0,1-1-1.48,17,17,0,0,1-1.2-2.1,38.07,38.07,0,0,1-3.81-14.35,85,85,0,0,1,1.08-20.88A156.89,156.89,0,0,1,202,251.16c1.26-3.87,2.91-7.67,4-11.37s2.15-7.55,3.19-11.17c1.9-7.34,3.68-14.18,5.2-20.05,3-11.75,5-19.59,5-19.59a.59.59,0,0,1,.71-.42A.58.58,0,0,1,220.54,189.25Z" transform="translate(-9.1 -4)"/><path class="cls-11" d="M336,304.58s0,.51-.06,1.48a24.37,24.37,0,0,0,.22,4.12,8.69,8.69,0,0,0,.8,2.67,2.46,2.46,0,0,0,.87,1c.11.14.51.17.45.22.12,0,.4,0,.34,0s0,0,.14-.1A8.14,8.14,0,0,0,341,311a31.76,31.76,0,0,0,1.75-4,79.75,79.75,0,0,0,3.93-20.74,108.07,108.07,0,0,0,.13-12,118.12,118.12,0,0,0-1.2-12.28c-.71-4.13-1.42-8.25-2.11-12.31s-1.76-7.93-2.6-11.74-1.94-7.44-2.84-10.91-2-6.68-2.9-9.68-1.88-5.69-2.69-8.1-1.62-4.48-2.24-6.19c-1.31-3.41-2.12-5.32-2.12-5.32h0a.6.6,0,0,1,.31-.77.59.59,0,0,1,.76.29s.89,1.92,2.3,5.31,3.32,8.28,5.35,14.25c1,3,2.06,6.23,3.08,9.69s2.07,7.12,3,10.94,1.83,7.83,2.69,11.87,1.45,8.18,2.19,12.3a112.55,112.55,0,0,1,1.17,12.57,109.67,109.67,0,0,1-.21,12.21,77.45,77.45,0,0,1-4.35,21.21,31.26,31.26,0,0,1-1.92,4.21,9.28,9.28,0,0,1-2.86,3.4,2.06,2.06,0,0,1-.72.29,1.7,1.7,0,0,1-.57,0,2.94,2.94,0,0,1-.7-.2,1.61,1.61,0,0,1-.52-.27,3.94,3.94,0,0,1-1.35-1.59,9.91,9.91,0,0,1-.86-3.14,27,27,0,0,1-.1-4.36c.08-1,.12-1.52.12-1.52a.58.58,0,0,1,.62-.54.6.6,0,0,1,.55.61Z" transform="translate(-9.1 -4)"/><path class="cls-11" d="M320.33,298.68s-.12,1.65-.31,4.12c-.09,1.23-.1,2.67-.09,4.16a13.6,13.6,0,0,0,.19,2.23,3.71,3.71,0,0,0,.55,1.52c.06,0,.23.2.19.13a.15.15,0,0,0-.15-.08s0,0,.14,0a2.07,2.07,0,0,0,.71-.44,10.14,10.14,0,0,0,1.47-1.58,28,28,0,0,0,2.24-3.43l.77-1.46c.12-.27.3-.84.42-1.14.26-.69.4-1.08.4-1.08l0,0a.58.58,0,0,1,.75-.35.6.6,0,0,1,.37.66l-.22,1.13c-.09.4-.12.69-.31,1.39-.17.5-.37,1.06-.63,1.65a23.78,23.78,0,0,1-2.15,3.89,11.8,11.8,0,0,1-1.76,2,4.35,4.35,0,0,1-1.38.86,2.77,2.77,0,0,1-1.09.15,2.83,2.83,0,0,1-.75-.23,1.73,1.73,0,0,1-.33-.21,4.47,4.47,0,0,1-1.38-2.95,16.61,16.61,0,0,1-.16-2.58,31.22,31.22,0,0,1,.43-4.37,34.06,34.06,0,0,1,.91-4.13.59.59,0,0,1,1.15.21Z" transform="translate(-9.1 -4)"/><path class="cls-11" d="M306.8,208s1.64,6.35,3.84,15.94,4.9,22.43,7.05,35.39c.55,3.23,1,6.49,1.46,9.69s.83,6.38,1,9.47c.13,1.55.26,3.06.24,4.57a27.64,27.64,0,0,1-.13,4.46l-.1,1.08a5,5,0,0,1-.08.62l-.14.49a7.71,7.71,0,0,1-.44,1.11,11,11,0,0,1-.56,1,22.42,22.42,0,0,1-2.54,3.07c-.85.9-1.65,1.74-2.32,2.56a4.38,4.38,0,0,0-1.17,2.33c0,.17.05.32.07.48,0,0,.05.17,0,0l.09.16.18.3a.91.91,0,0,0,.6.26,4.08,4.08,0,0,0,1.91-.47,16.46,16.46,0,0,0,2.71-1.68c.59-.45.88-.71.88-.71a.59.59,0,0,1,.79.87s-.32.3-.93.79a16.67,16.67,0,0,1-2.86,1.94,5.4,5.4,0,0,1-2.63.69,2.33,2.33,0,0,1-1.73-.91l-.19-.3-.1-.15a1.34,1.34,0,0,1-.12-.31,2.68,2.68,0,0,1-.18-1,5.67,5.67,0,0,1,1.39-3.36c.71-1,1.53-1.82,2.35-2.73a21.76,21.76,0,0,0,2.28-2.87,6.5,6.5,0,0,0,.73-1.56l.13-.5,0-.42.06-1a26.64,26.64,0,0,0,0-4.2c0-1.45-.16-2.94-.29-4.46-.22-3-.68-6.17-1.09-9.35s-.95-6.4-1.51-9.63c-1.06-6.44-2.22-12.88-3.39-18.91s-2.28-11.64-3.22-16.46l-3.25-16a.58.58,0,0,1,.45-.69A.59.59,0,0,1,306.8,208Z" transform="translate(-9.1 -4)"/><path class="cls-12" d="M255.09,161.67s.07.65.18,1.87.24,3,.34,5.31.17,5.06.19,8.25c0,1.6-.05,3.3-.09,5.09s-.24,3.66-.36,5.63c-.07,1-.14,2-.22,3s-.26,2-.4,3.1c-.33,2.09-.47,4.29-1,6.5s-.93,4.48-1.42,6.8-1.11,4.61-1.69,7c-2.2,9.49-4.13,19.71-5.58,30a225.87,225.87,0,0,0-2.51,30.35,122.7,122.7,0,0,0,2.31,26.35,80.47,80.47,0,0,0,2.9,10.13c.5,1.49,1.16,2.8,1.67,4.06s1.18,2.31,1.68,3.31a43.14,43.14,0,0,0,2.85,4.37l1.09,1.48,0,0a.6.6,0,0,1-.12.82.58.58,0,0,1-.81-.11l-1.17-1.5a43.4,43.4,0,0,1-3-4.43c-.54-1-1.18-2.13-1.81-3.37s-1.27-2.61-1.81-4.12a69.44,69.44,0,0,1-3.15-10.31,124.25,124.25,0,0,1-2.58-26.73,227.43,227.43,0,0,1,2.29-30.65c1.47-10.36,3.55-20.61,5.84-30.13q.88-3.57,1.76-7c.49-2.28,1-4.5,1.45-6.67s.67-4.33,1-6.39c.15-1,.29-2.06.43-3.06s.16-2,.24-3c.38-3.87.5-7.43.63-10.59s.09-5.92,0-8.18-.13-4.05-.21-5.26-.13-1.87-.13-1.87h0a.58.58,0,0,1,1.16-.09Z" transform="translate(-9.1 -4)"/><path class="cls-10" d="M297.43,189.49s.56,1,1.28,2.5,1.59,3.57,2.42,5.64c.37,1.05.76,2.1,1.11,3.08.19.49.32,1,.47,1.44.06.28.3.83.42,1.18.57,1.59.88,2.68.88,2.68l0,.07a.58.58,0,0,1-.4.72.59.59,0,0,1-.65-.25s-.6-.94-1.4-2.41c-.21-.42-.38-.68-.66-1.3-.19-.43-.42-.89-.61-1.37-.4-1-.82-2-1.24-3-.78-2.09-1.54-4.19-2-5.8s-.73-2.71-.73-2.71a.6.6,0,0,1,.45-.71A.61.61,0,0,1,297.43,189.49Z" transform="translate(-9.1 -4)"/><path class="cls-13" d="M261.5,341.4l-.8.1a14.2,14.2,0,0,1-2.11.13c-.89,0-1.93,0-3-.11l-1.72-.12a6.89,6.89,0,0,1-.93-.09c-.28-.05-.57-.09-.85-.15l-3.34-.72a9.15,9.15,0,0,1-1.53-.51l-1.36-.52c-1.68-.67-2.75-1.18-2.75-1.18a.58.58,0,0,1-.27-.78.58.58,0,0,1,.62-.32h.08s1.15.2,2.8.59l1.32.33c.47.11.93.27,1.48.35l3.37.58c.29.05.57.12.85.18s.53.06.78.1l1.63.18c1.06.1,2,.3,2.89.42s1.59.19,2.09.25l.8.11a.59.59,0,0,1,0,1.17Z" transform="translate(-9.1 -4)"/><path class="cls-13" d="M286.78,322.83s.24.6.76,1.63a40.15,40.15,0,0,0,2.37,4.1,28.78,28.78,0,0,0,1.83,2.57c.65.92,1.49,1.75,2.25,2.69a36.83,36.83,0,0,0,2.7,2.58,25,25,0,0,0,3.09,2.29,21.1,21.1,0,0,0,3.31,1.92,23.93,23.93,0,0,0,3.45,1.39,28.5,28.5,0,0,0,3.36.9,17.22,17.22,0,0,0,3.1.48,22.79,22.79,0,0,0,2.66.23l2.07,0h1.88a.58.58,0,0,1,.58.59.58.58,0,0,1-.52.57l-1.86.2-2.14.19a17.65,17.65,0,0,1-2.8,0,18.94,18.94,0,0,1-3.32-.33,23,23,0,0,1-3.64-.81,27.53,27.53,0,0,1-3.73-1.44,23.3,23.3,0,0,1-3.62-2,23.72,23.72,0,0,1-3.28-2.51,37.48,37.48,0,0,1-2.83-2.8,31.11,31.11,0,0,1-2.28-2.94,31.86,31.86,0,0,1-1.77-2.8,31.5,31.5,0,0,1-2.12-4.47,17.33,17.33,0,0,1-.6-1.8v0a.6.6,0,0,1,.43-.71A.58.58,0,0,1,286.78,322.83Z" transform="translate(-9.1 -4)"/><path class="cls-11" d="M195.64,313.51a31.31,31.31,0,0,0,1.46,3.95,5.73,5.73,0,0,0,1,1.49,2.33,2.33,0,0,0,1.27.71l.17,0s-.1,0,0,0a1.82,1.82,0,0,0,.39-.42,8.43,8.43,0,0,0,.82-1.59l.37-.94c.14-.32.23-.62.35-.92.27-.6.47-1.27.71-1.89l.09-.19a.29.29,0,0,0,.21.49h0a.32.32,0,0,0,.34-.31.32.32,0,0,0-.31-.34.32.32,0,0,0-.33.23.13.13,0,0,0,0,.06.28.28,0,0,1,.28-.28.27.27,0,0,1,.28.28.63.63,0,0,1,0,.19l-.26-.42a.28.28,0,0,1,.27.19.34.34,0,0,1-.06.34l.08-.19a12.75,12.75,0,0,1,0,2.14c0,.36-.07.73-.12,1.06l-.19,1a7.92,7.92,0,0,1-.77,2.16,3.42,3.42,0,0,1-1,1.1,2.22,2.22,0,0,1-1.95.28l.16,0a4.36,4.36,0,0,1-2.45-1.42,6.56,6.56,0,0,1-1.21-2.24,10.51,10.51,0,0,1-.45-2.3,14.3,14.3,0,0,1,0-2.27v0a.38.38,0,0,1,.43-.32A.38.38,0,0,1,195.64,313.51Z" transform="translate(-9.1 -4)"/><path class="cls-11" d="M188.12,307.22s.27,1.91.7,4.76c.22,1.41.47,3.06.89,4.74a14.61,14.61,0,0,0,.78,2.48,3.59,3.59,0,0,0,1.21,1.73c.05.05.31.1.2.11.4,0,0,0,.19,0a1.77,1.77,0,0,0,.58-.64,11,11,0,0,0,1-2.35,44.37,44.37,0,0,0,1.11-4.72c.28-1.41.47-2.6.59-3.44s.21-1.31.21-1.31a.28.28,0,0,1,.32-.24.31.31,0,0,1,.24.27,46.57,46.57,0,0,1,0,4.88,32.07,32.07,0,0,1-.67,5,10.59,10.59,0,0,1-1,2.87,3.65,3.65,0,0,1-1.32,1.47,2.52,2.52,0,0,1-1.2.29,2.78,2.78,0,0,1-1.17-.32,5.4,5.4,0,0,1-2.26-2.76,17,17,0,0,1-.85-2.86,28.87,28.87,0,0,1-.51-5.07,29.61,29.61,0,0,1,.28-4.91.38.38,0,0,1,.43-.31A.39.39,0,0,1,188.12,307.22Z" transform="translate(-9.1 -4)"/><path class="cls-11" d="M184.32,320.69l.16.05a.7.7,0,0,0,.33,0c.21,0,.27-.2.5-.73a28.58,28.58,0,0,0,.86-4.64c.24-1.79.51-3.6.77-5s.53-2.29.53-2.29a.29.29,0,0,1,.35-.2.27.27,0,0,1,.2.21,20.29,20.29,0,0,1,.39,2.34,25.94,25.94,0,0,1,0,5.19,11.94,11.94,0,0,1-1.64,5.18,2.69,2.69,0,0,1-1,.85,1.54,1.54,0,0,1-1.16.07,1.28,1.28,0,0,1-.53-.34l-.12-.13a.38.38,0,0,1,.39-.63Z" transform="translate(-9.1 -4)"/><path class="cls-11" d="M179.37,290.83l.25,4.86c.15,2.9.42,6.75.87,10.57a68.7,68.7,0,0,0,1.84,10.36c.23.66.37,1.31.61,1.82a6.54,6.54,0,0,0,.63,1.32,7,7,0,0,0,.72,1,.28.28,0,0,1,.06.39.28.28,0,0,1-.39.06l-.3-.23a3.74,3.74,0,0,1-.79-.72,7.53,7.53,0,0,1-1-1.32,14.85,14.85,0,0,1-1-1.84,39.39,39.39,0,0,1-2.65-10.59,56.74,56.74,0,0,1-.31-10.86,42.86,42.86,0,0,1,.64-4.88v0a.38.38,0,0,1,.44-.29A.36.36,0,0,1,179.37,290.83Z" transform="translate(-9.1 -4)"/><path class="cls-14" d="M317.49,89.54a5.63,5.63,0,0,0-.75-.12,9,9,0,0,0-2,0,7.28,7.28,0,0,0-1.28.29c-.45.12-.88.37-1.35.55a9.68,9.68,0,0,0-1.3.89,8.06,8.06,0,0,0-1.18,1.16,11.88,11.88,0,0,0-2,2.73,12.15,12.15,0,0,0-.77,1.4l-.64,1.3c-.7,1.66-1.2,2.79-1.2,2.79l0,0a.58.58,0,0,1-.77.3.57.57,0,0,1-.34-.64l.16-.86c.06-.27.13-.6.22-1a8,8,0,0,1,.32-1.26,19.31,19.31,0,0,1,1.22-3.07A14.42,14.42,0,0,1,308,90.82a8.51,8.51,0,0,1,1.5-1.37,10.83,10.83,0,0,1,1.7-1,7.54,7.54,0,0,1,1.8-.58,9.1,9.1,0,0,1,1.67-.17,8,8,0,0,1,2.43.43,5.1,5.1,0,0,1,.87.39.58.58,0,1,1-.45,1.07Z" transform="translate(-9.1 -4)"/><path class="cls-15" d="M300.77,59.14,303.7,59c.88,0,1.89-.17,3-.28s2.23-.3,3.36-.5a24.81,24.81,0,0,0,3.27-.8c.49-.19,1-.28,1.46-.48s.9-.33,1.27-.52a16.51,16.51,0,0,0,1.84-.95l.69-.39.06,0a.6.6,0,0,1,.8.23.59.59,0,0,1-.11.71l-.63.59a11.83,11.83,0,0,1-1.82,1.39A18.54,18.54,0,0,1,314,59.36a28.81,28.81,0,0,1-3.52,1,33.55,33.55,0,0,1-3.61.41,24.84,24.84,0,0,1-3.15,0,19.17,19.17,0,0,1-3.05-.44.59.59,0,0,1,.13-1.16Z" transform="translate(-9.1 -4)"/><path class="cls-15" d="M301.55,66.77l2.92-.33c1.75-.22,4.07-.49,6.33-1a24.12,24.12,0,0,0,3.25-.83,18.79,18.79,0,0,0,2.67-1.06,10.53,10.53,0,0,0,1.71-1.05l.62-.45.09-.07a.58.58,0,0,1,.79.84l-.57.68a4.76,4.76,0,0,1-.71.73,10.9,10.9,0,0,1-1,.82,16,16,0,0,1-2.87,1.51,28.52,28.52,0,0,1-3.5,1,30.38,30.38,0,0,1-6.7.59,21.59,21.59,0,0,1-3-.26.59.59,0,0,1,0-1.17Z" transform="translate(-9.1 -4)"/><path class="cls-15" d="M303.67,73.05l2.74-.19a55.59,55.59,0,0,0,5.91-.7,21.63,21.63,0,0,0,3-.7l1.34-.44,1.15-.51a11.09,11.09,0,0,0,1.59-1l.59-.41.09-.06a.57.57,0,0,1,.81.14.59.59,0,0,1,0,.7l-.53.64A8.89,8.89,0,0,1,318.73,72,14.28,14.28,0,0,1,316,73.42a24.35,24.35,0,0,1-3.31.91,27.12,27.12,0,0,1-3.38.35,23.08,23.08,0,0,1-2.93-.05,19.71,19.71,0,0,1-2.84-.42.59.59,0,0,1,.11-1.16Z" transform="translate(-9.1 -4)"/><path class="cls-16" d="M247.69,67.4S237,85.29,237.55,94.72c.49,8.34,11.67,7.43,11.67,7.43,5-.64,4.92-3.6,5-5.81s-1-24.19-1.41-26.76C252.4,67.49,249.1,66,247.69,67.4Z" transform="translate(-9.1 -4)"/><path class="cls-11" d="M248.19,67.7s-1.28,2.48-3.07,6.26c-.91,1.89-1.86,4.13-2.88,6.53a60.43,60.43,0,0,0-2.66,7.65,25.43,25.43,0,0,0-.84,3.94,11.36,11.36,0,0,0-.13,1.91v.47s0,.24,0,.14l0,.25.14,1a6.08,6.08,0,0,0,1.41,2.78,7.78,7.78,0,0,0,2.49,1.7,15.71,15.71,0,0,0,4.66,1.15c1.19.11,1.85.1,1.85.1a.58.58,0,0,1,.1,1.16,14.37,14.37,0,0,1-2,.1,15.77,15.77,0,0,1-5.26-.89,9.78,9.78,0,0,1-3.19-2,7.69,7.69,0,0,1-2.1-3.83l-.15-1,0-.25a1.52,1.52,0,0,1,0-.36V94a12.12,12.12,0,0,1,.11-2.18,26.63,26.63,0,0,1,.83-4.27,57.71,57.71,0,0,1,2.87-7.89c1.06-2.44,2.23-4.63,3.22-6.51,2-3.72,3.65-6.06,3.65-6.06a.58.58,0,0,1,.81-.16A.6.6,0,0,1,248.19,67.7Z" transform="translate(-9.1 -4)"/><path class="cls-17" d="M268.58,56.91c-.76,2.73,2.89,3.65,6.93,4.76,4.38,1.21,9.58,2.5,10.16-.17C286.89,55.8,270.62,49.6,268.58,56.91Z" transform="translate(-9.1 -4)"/><path class="cls-17" d="M235,56.25c.65,2.76-3,3.52-7.11,4.48-4.43,1-9.68,2.12-10.14-.57C216.7,54.41,233.2,48.86,235,56.25Z" transform="translate(-9.1 -4)"/><path class="cls-18" d="M238.68,38.72s.39.3,1,.75l1.22.8,1.63.93c.63.29,1.29.63,2,.94l2.31.82c.83.19,1.67.44,2.54.61s1.83.17,2.62.28h2.83c.92,0,1.77-.14,2.62-.2a44.44,44.44,0,0,0,4.67-.78c1.35-.33,2.48-.63,3.25-.89l1.19-.41h0a.6.6,0,0,1,.75.37.59.59,0,0,1-.25.69,23.53,23.53,0,0,1-4.5,1.93,34.18,34.18,0,0,1-4.88,1.15c-.93.1-1.9.23-2.86.29l-2.84.06c-1.1-.11-2-.25-3-.38s-1.89-.5-2.79-.74-1.7-.7-2.48-1-1.45-.81-2.09-1.18a22.77,22.77,0,0,1-2.83-2.18c-.64-.62-.95-1-.95-1a.6.6,0,0,1,.07-.83A.59.59,0,0,1,238.68,38.72Z" transform="translate(-9.1 -4)"/><path class="cls-18" d="M239.53,30.76s.45.3,1.2.77,1.91,1.08,3.28,1.78c.7.3,1.45.67,2.27,1a23.79,23.79,0,0,0,2.59.77,10.37,10.37,0,0,0,2.78.33,11,11,0,0,0,1.41,0c.52-.07,1.05-.15,1.51-.24a46.05,46.05,0,0,0,5.81-1.63,30.73,30.73,0,0,1,5.41-1.32,12.22,12.22,0,0,1,2.33,0,8.8,8.8,0,0,1,1.78.39A5,5,0,0,1,271,33l.36.19a.58.58,0,0,1-.44,1.06l-.1,0-.33-.11a5,5,0,0,0-.93-.26,7,7,0,0,0-1.5-.16,15.9,15.9,0,0,0-2,.21,35.91,35.91,0,0,0-5,1.55A46.1,46.1,0,0,1,255,37.28a12.31,12.31,0,0,1-1.61.24,12.48,12.48,0,0,1-1.73,0,12.19,12.19,0,0,1-3.24-.46,16.52,16.52,0,0,1-2.83-1c-.86-.38-1.63-.83-2.36-1.2a28.27,28.27,0,0,1-3.25-2.22c-.75-.61-1.12-1-1.12-1a.59.59,0,0,1,0-.83A.59.59,0,0,1,239.53,30.76Z" transform="translate(-9.1 -4)"/><path class="cls-19" d="M254.91,10.66c-.67-3.34-22.17.48-22.28,5.65S255.6,14.09,254.91,10.66Z" transform="translate(-9.1 -4)"/><path class="cls-19" d="M268.4,10.19c-.31-3-8.45-3.28-9-.92C258.36,13.31,268.71,13.17,268.4,10.19Z" transform="translate(-9.1 -4)"/><path class="cls-18" d="M214.16,87.17l1.91.22a23.7,23.7,0,0,0,4,.18,11.72,11.72,0,0,0,2-.29,9,9,0,0,0,1.71-.56,6.64,6.64,0,0,0,1.22-.59c.29-.16.48-.24.48-.24l0,0a.29.29,0,0,1,.38.15.28.28,0,0,1,0,.25s-.1.18-.3.49a5.21,5.21,0,0,1-1,1.19,6.27,6.27,0,0,1-1.88,1.2,8,8,0,0,1-2.5.62,9.7,9.7,0,0,1-4.57-.81,8.19,8.19,0,0,1-1.77-1.11.38.38,0,0,1,0-.55A.41.41,0,0,1,214.16,87.17Z" transform="translate(-9.1 -4)"/><path class="cls-18" d="M217.17,93.16s.59-.29,1.43-.66,2-.75,3-1.13c.55-.18,1-.44,1.56-.6a13.53,13.53,0,0,1,1.31-.6c.67-.45,1.27-.77,1.26-.77l.07,0a.3.3,0,0,1,.39.12.34.34,0,0,1,0,.22s-.05.15-.17.43a11.19,11.19,0,0,1-.6,1.14,13.16,13.16,0,0,1-1.3,1.22,13.23,13.23,0,0,1-1.75.94,10.49,10.49,0,0,1-1.87.52,7.19,7.19,0,0,1-1.67.15,6.66,6.66,0,0,1-1.64-.2.41.41,0,0,1-.29-.49A.44.44,0,0,1,217.17,93.16Z" transform="translate(-9.1 -4)"/><path class="cls-18" d="M277.21,87.2a7.78,7.78,0,0,1-1.64,1.31,9.51,9.51,0,0,1-4.44,1.33,8,8,0,0,1-2.55-.32,6.39,6.39,0,0,1-2-1A6.83,6.83,0,0,1,265.08,87a.28.28,0,1,1,.37-.43l.51.19a6.93,6.93,0,0,0,1.27.45,8.8,8.8,0,0,0,1.77.35,11.31,11.31,0,0,0,2,.06A24.55,24.55,0,0,0,275,87l1.87-.44a.37.37,0,0,1,.47.27A.39.39,0,0,1,277.21,87.2Z" transform="translate(-9.1 -4)"/><path class="cls-18" d="M274.46,94.52a6.68,6.68,0,0,1-1.62.33,8,8,0,0,1-1.68,0,9.41,9.41,0,0,1-1.9-.38,7.19,7.19,0,0,1-3.2-1.93,11.49,11.49,0,0,1-.69-1.09c-.14-.27-.2-.42-.2-.42a.29.29,0,0,1,.17-.37.26.26,0,0,1,.21,0l.07,0a13.79,13.79,0,0,1,1.32.67,13.52,13.52,0,0,1,1.35.51c.54.12,1,.33,1.6.47,1.11.3,2.25.64,3.12.91s1.47.55,1.47.55a.41.41,0,0,1,.22.52A.37.37,0,0,1,274.46,94.52Z" transform="translate(-9.1 -4)"/><path class="cls-20" d="M236.62,120.5s10.56-9.61,21.19-1.11c-2.88,2-7.57,4-14.45,3.46a14.78,14.78,0,0,1-6.85-2.15Z" transform="translate(-9.1 -4)"/><path class="cls-21" d="M244.46,109.44c7.21-.12,15.18-4.47,16.12-.65.82,3.34.16,6.1.93,7.08a14.49,14.49,0,0,1-3.7,3.52c-10.63-8.5-21.19,1.11-21.19,1.11l-.11.2c-5.61-3.46-7.39-10-4.63-12.35C235.69,105.1,237.22,109.59,244.46,109.44Z" transform="translate(-9.1 -4)"/><path class="cls-4" d="M262.56,202.88c-2.33,2.48-.45,22.52,13.95,22.81,17,.33,14.12-22.63,11.56-23.78S266,199.25,262.56,202.88Z" transform="translate(-9.1 -4)"/><path class="cls-15" d="M319.28,224.48l2.89-.79,2.95-.77c1.09-.24,2.21-.61,3.36-.91s2.25-.67,3.31-1,2-.7,2.82-1a11.17,11.17,0,0,0,1.07-.48l.81-.39.74-.32.12-.06a.58.58,0,0,1,.76.3.57.57,0,0,1-.18.69l-.67.53-.81.59a5.94,5.94,0,0,1-1.08.71l-1.35.67a11.29,11.29,0,0,1-1.53.7c-1.09.36-2.24.83-3.42,1.15a44.09,44.09,0,0,1-6.58,1.28,27.9,27.9,0,0,1-3,.22h0a.6.6,0,0,1-.59-.6A.59.59,0,0,1,319.28,224.48Z" transform="translate(-9.1 -4)"/><path class="cls-15" d="M321.39,231.9l.8-.18,2.06-.5c.86-.15,1.83-.51,2.9-.75s2.15-.65,3.25-1,2.2-.74,3.16-1.22c.48-.24,1-.44,1.41-.64a8.08,8.08,0,0,0,1.25-.61c1.46-.89,2.51-1.44,2.51-1.44l.09-.05a.58.58,0,0,1,.67.93s-.88.85-2.34,2a9.43,9.43,0,0,1-1.26.81c-.46.26-.93.57-1.45.84-1,.55-2.19.93-3.33,1.42-.57.22-1.18.34-1.76.51s-1.15.34-1.71.44a31,31,0,0,1-3.1.47c-.9.11-1.68.1-2.22.12a7.62,7.62,0,0,1-.83,0h0a.58.58,0,0,1-.52-.65A.61.61,0,0,1,321.39,231.9Z" transform="translate(-9.1 -4)"/><path class="cls-15" d="M322.4,240.39l3.09-.31a67,67,0,0,0,6.67-1,26.43,26.43,0,0,0,3.43-.89,20.55,20.55,0,0,0,2.83-1.13,13.68,13.68,0,0,0,1.81-1.11l.66-.49.08-.06a.58.58,0,0,1,.78.85s-.21.26-.6.7a10.49,10.49,0,0,1-1.83,1.61,17.69,17.69,0,0,1-3,1.58,28.24,28.24,0,0,1-3.69,1.1,31.23,31.23,0,0,1-7.05.61,21.87,21.87,0,0,1-3.21-.28.59.59,0,0,1-.48-.68A.62.62,0,0,1,322.4,240.39Z" transform="translate(-9.1 -4)"/><path class="cls-11" d="M179.52,290.2c.44,1.22.86,2.42,1.33,3.6.26.59.49,1.18.72,1.77a11,11,0,0,0,.79,1.7l.86,1.62c.09.18.35.5.51.75s.37.42.54.63a10.23,10.23,0,0,0,2.77,2.05,9.59,9.59,0,0,0,1.61.63,7.25,7.25,0,0,0,1.62.28,2.62,2.62,0,0,0,1.33-.21,1.13,1.13,0,0,0,.32-.28l0,0h0c-.1.27,0,.07,0,.13v-.05l0,0,.07-.23c.09-.2,0-.16,0-.23a4.4,4.4,0,0,0-.31-1.45,16.92,16.92,0,0,0-.74-1.64,23.69,23.69,0,0,0-2-3.18l0,0a.7.7,0,0,1-.13-.57,7.36,7.36,0,0,0,.18-1.2,5.32,5.32,0,0,0,0-1.26,4.65,4.65,0,0,0-.31-1.22,6.15,6.15,0,0,0-.57-1.15l0-.09a.26.26,0,0,1,.13-.36.28.28,0,0,1,.33.08,6.26,6.26,0,0,1,.9,1.15,6.16,6.16,0,0,1,.59,1.37,8.13,8.13,0,0,1,.26,1.46,5.64,5.64,0,0,1,0,1.53l-.14-.61a28.11,28.11,0,0,1,2.43,3.18,11,11,0,0,1,1,1.83,5.87,5.87,0,0,1,.52,2.3,3,3,0,0,1-.1.73l-.07.23v.1l0,.14h0l-.1.17a3,3,0,0,1-1.05,1.05,4.69,4.69,0,0,1-2.41.56,9.32,9.32,0,0,1-4.18-1.11,10.94,10.94,0,0,1-3.34-2.64,8.86,8.86,0,0,1-1.2-1.76l-.78-1.88a25.14,25.14,0,0,1-1.21-3.78c-.17-.63-.27-1.28-.41-1.93s-.23-1.28-.32-1.92a.39.39,0,0,1,.33-.42A.38.38,0,0,1,179.52,290.2Z" transform="translate(-9.1 -4)"/><path class="cls-11" d="M261.13,103.33s0,1.06,0,2.65c0,.79,0,1.71,0,2.69s.11,2,.14,3.06.19,2.06.3,3,.33,1.82.48,2.58c.48,1.41.75,2.44.75,2.44l0,.13a.58.58,0,0,1-1,.45s-.59-.94-1.39-2.47c-.26-.8-.57-1.73-.85-2.76s-.35-2.13-.47-3.23-.09-2.21,0-3.24a26.12,26.12,0,0,1,.27-2.8,18.17,18.17,0,0,1,.58-2.68v0a.59.59,0,0,1,1.15.18Z" transform="translate(-9.1 -4)"/><path class="cls-22" d="M227.63,82.42a5.08,5.08,0,1,1-5-5.17A5.07,5.07,0,0,1,227.63,82.42Z" transform="translate(-9.1 -4)"/><path class="cls-22" d="M264,83.14a5.08,5.08,0,1,0,5.18-5A5.08,5.08,0,0,0,264,83.14Z" transform="translate(-9.1 -4)"/><path class="cls-11" d="M328,301.9l0,.06,0,0c-.47,2.43-1,4.83-1.26,7.23a18.89,18.89,0,0,0-.12,3.5,4.9,4.9,0,0,0,.31,1.49c.18.43.35.58.62.65l.22.08c.05,0,0,0,.05,0s0,0,.07,0a2.33,2.33,0,0,0,.55-.22,4.84,4.84,0,0,0,1.21-.95,10.91,10.91,0,0,0,1.12-1.3c.35-.47.7-.95,1-1.45a27.54,27.54,0,0,0,1.77-3.14,19.08,19.08,0,0,0,1.33-3.31v0a.58.58,0,0,1,.72-.4.6.6,0,0,1,.42.63,20.7,20.7,0,0,1-2.57,7.28,17,17,0,0,1-1.05,1.65,11.56,11.56,0,0,1-1.27,1.56,7,7,0,0,1-1.68,1.36,4.94,4.94,0,0,1-1.17.48,3.34,3.34,0,0,1-1.5-.1,3,3,0,0,1-1.89-1.91,7,7,0,0,1-.43-2.15,17.56,17.56,0,0,1,.28-3.94,39.1,39.1,0,0,1,2.1-7.29l0-.06,0-.06a.58.58,0,0,1,1.1.37Z" transform="translate(-9.1 -4)"/><path class="cls-23" d="M210,71c-3.58,3.63-4.15,22.82.41,25.87s21.74,2.83,23.29-.84,5-22.35-1.34-25.69C225.77,66.87,213.12,67.83,210,71Z" transform="translate(-9.1 -4)"/><path class="cls-23" d="M258.44,70.38c-3.59,3.63-4.15,22.82.41,25.87s21.94,2.89,24.11-.45c1.85-2.88,3-23.35-1.44-25.66C274.93,66.72,261.56,67.22,258.44,70.38Z" transform="translate(-9.1 -4)"/><path class="cls-24" d="M235.84,79.6s.29-.24.78-.56a12.85,12.85,0,0,1,2.18-1.14,15.78,15.78,0,0,1,3.31-1,18.56,18.56,0,0,1,4-.31,19.57,19.57,0,0,1,2,.19,14.47,14.47,0,0,1,1.94.41,12.52,12.52,0,0,1,1.76.59,8.65,8.65,0,0,1,1.5.7,11.54,11.54,0,0,1,2.06,1.33c.46.36.71.59.71.59a1.19,1.19,0,0,1-1,2.06l-.14,0s-.31,0-.82-.17-1.21-.33-2.06-.5-1.81-.35-2.85-.5A31,31,0,0,0,246,81a42.16,42.16,0,0,0-6.22.33l-2.11.27-.79.11a1.17,1.17,0,1,1-1-2.11Z" transform="translate(-9.1 -4)"/><path class="cls-24" d="M222,100.08h0c-4.23,0-9.66-.61-12.2-2.3-2.32-1.55-3.21-5.82-3.54-9.13-.69-6.77.33-15.79,2.95-18.44,2.32-2.34,8.06-3.18,12.27-3.18a25.21,25.21,0,0,1,11.4,2.32c7.6,4,3.08,24.17,1.84,27.1C233.29,99.82,224.62,100.08,222,100.08Zm-.52-30.83c-4.83,0-9.22,1-10.69,2.52-1.87,1.9-3,10-2.33,16.65.4,3.9,1.36,6.71,2.57,7.51,1.73,1.16,6.13,1.93,11,1.93,6.63,0,10.29-1.35,10.68-2.27,1.59-3.77,4.62-21.42-.83-24.28A23.44,23.44,0,0,0,221.47,69.25Z" transform="translate(-9.1 -4)"/><path class="cls-24" d="M271.07,99.53h0c-4.5,0-10.23-.62-12.84-2.36-2.31-1.55-3.2-5.82-3.54-9.13-.68-6.77.34-15.79,3-18.44,2.13-2.16,7.49-2.92,11.8-2.92,5,0,9.55.9,12.58,2.48,1.21.63,2.09,2.06,2.71,4.39,1.74,6.59,1,20-.85,22.85S273.6,99.53,271.07,99.53Zm-1.62-30.64c-4.78,0-8.88.91-10.23,2.27-1.87,1.9-3,10-2.32,16.65.39,3.9,1.35,6.7,2.56,7.51,1.79,1.19,6.45,2,11.61,2h0c6.23,0,10.29-1.09,11-2.11,1.23-1.91,2.29-14.56.57-21.09-.6-2.26-1.31-2.84-1.59-3C278.32,69.73,274,68.89,269.45,68.89Z" transform="translate(-9.1 -4)"/><path class="cls-25" d="M216.15,72c-3-1.21-6.37,7.79-4.15,9.07,1.61.94,3.12-1.27,4.06-3.44S218.12,72.81,216.15,72Z" transform="translate(-9.1 -4)"/><path class="cls-25" d="M265.57,71.14c-3-1.21-6.37,7.79-4.15,9.07,1.61.94,3.12-1.27,4.06-3.44S267.54,71.94,265.57,71.14Z" transform="translate(-9.1 -4)"/><path class="cls-25" d="M219.7,75.4c-1.85-.75-4,4.84-2.58,5.64,1,.58,1.94-.79,2.52-2.14S220.92,75.9,219.7,75.4Z" transform="translate(-9.1 -4)"/><path class="cls-25" d="M268.82,75.72c-1.85-.75-4,4.85-2.58,5.65,1,.58,1.94-.79,2.52-2.15S270,76.22,268.82,75.72Z" transform="translate(-9.1 -4)"/><path class="cls-6" d="M232.43,422.66c-1.45-1.62-3.38-2.73-5-4.2a18.06,18.06,0,0,1-4.11-5.18c-.54-1.11-2-.27-1.85.78a13,13,0,0,0,3.21,6.26c1.68,2,3.73,4,6.21,4.94C232.48,425.83,233.38,423.73,232.43,422.66Z" transform="translate(-9.1 -4)"/><path class="cls-6" d="M222.2,426a7.91,7.91,0,0,1-2.9-2.43c-.12-.17-.4,0-.4.16a5.09,5.09,0,0,0,2.46,4.27C222.61,428.87,223.72,426.67,222.2,426Z" transform="translate(-9.1 -4)"/><path class="cls-6" d="M292.9,413.88c-1.37-1.84-3.48-2.51-5.35-3.75a50.76,50.76,0,0,1-4.83-4c-.8-.69-2.56-.34-2.39,1a9.36,9.36,0,0,0,3.38,6c1.9,1.7,4.75,4.07,7.44,3.8C292.5,416.79,293.91,415.24,292.9,413.88Z" transform="translate(-9.1 -4)"/><path class="cls-6" d="M293.19,421.83a18.81,18.81,0,0,0-2.56-.87,2.58,2.58,0,0,1-1-.44c-.48-.32-1-.41-1.48-.69a.71.71,0,0,0-1.05.61,2.87,2.87,0,0,0,.2,2.05,5,5,0,0,0,1.29,1.45,4.47,4.47,0,0,0,4.57.64A1.44,1.44,0,0,0,293.19,421.83Z" transform="translate(-9.1 -4)"/><path class="cls-6" d="M216.44,168.63a1.21,1.21,0,0,0-.85-.86c-1.78-.38-3.06.58-4.21,1.83a2,2,0,0,0,2.35,3C215.34,171.82,216.76,170.6,216.44,168.63Z" transform="translate(-9.1 -4)"/><path class="cls-6" d="M223,162.19a1.21,1.21,0,0,0-1.76-.71,2.44,2.44,0,0,0-1.07.94,3.7,3.7,0,0,0-.36.68c-.14.34-.39.38.07.14h0a1.23,1.23,0,0,0-.33,2c.7.8,1.75.42,2.44-.15A2.88,2.88,0,0,0,223,162.19Z" transform="translate(-9.1 -4)"/><path class="cls-6" d="M221.93,168.4a2.76,2.76,0,0,0-1.42,2.77c.15,1.21,1.93,2.12,2.61.7.23-.48.75-.76,1-1.28A1.61,1.61,0,0,0,221.93,168.4Z" transform="translate(-9.1 -4)"/><path class="cls-6" d="M204,287.17a1.32,1.32,0,0,1-.39-.52,1.09,1.09,0,0,0-2.14.29,2.9,2.9,0,0,0,.76,2C203.17,290.18,205.19,288.25,204,287.17Z" transform="translate(-9.1 -4)"/><path class="cls-6" d="M205.11,281c-.05-.17-.09-.34-.13-.52a1.41,1.41,0,0,0-2.7,0c-.05.18-.09.35-.13.52C201.56,283.46,205.7,283.46,205.11,281Z" transform="translate(-9.1 -4)"/><path class="cls-6" d="M208.87,282.25a1.16,1.16,0,0,0-1.62,0,2.07,2.07,0,0,0-.54,1.71,1.35,1.35,0,0,0,2.7,0A2.07,2.07,0,0,0,208.87,282.25Z" transform="translate(-9.1 -4)"/><path class="cls-6" d="M321.63,183.3c-.11-.38-.52-.8-.6-1.1-.65-2.43-4.58-2-4.44.6a3.9,3.9,0,0,0,1.21,2.72,2.28,2.28,0,0,0,2.23.59,2.09,2.09,0,0,0,1.37-1.05A2.51,2.51,0,0,0,321.63,183.3Z" transform="translate(-9.1 -4)"/><path class="cls-6" d="M316.08,188.31a1.69,1.69,0,0,0,0,3.38A1.69,1.69,0,0,0,316.08,188.31Z" transform="translate(-9.1 -4)"/><path class="cls-24" d="M303.34,81.15h-.18l-18.83-3a1.11,1.11,0,0,1-.92-1.27,1.12,1.12,0,0,1,1.27-.92l18.83,3a1.1,1.1,0,0,1,.92,1.27A1.11,1.11,0,0,1,303.34,81.15Z" transform="translate(-9.1 -4)"/><path class="cls-18" d="M301.24,82.88a11.59,11.59,0,0,1,1.86-2.78,12.47,12.47,0,0,1,2.9-2.53,10.8,10.8,0,0,1,4.8-1.64,11.81,11.81,0,0,1,2.95.08l1.4.25c.48.12,1,.31,1.51.46l.78.25c.44.21.51.26.78.4l1.37.72c.46.35.92.76,1.38,1.15.23.2.47.4.69.61l.54.68a17.66,17.66,0,0,1,3.23,6.29,25.51,25.51,0,0,1,.94,7.12,30,30,0,0,1-.9,7.09,27.1,27.1,0,0,1-2.65,6.43,15.31,15.31,0,0,1-1.91,2.75l-1.05,1.24-1.19,1.06c-.41.33-.76.71-1.19,1l-1.28.8a12.06,12.06,0,0,1-1.3.76l-1.23.5a18.77,18.77,0,0,1-4.79,1.18,27.64,27.64,0,0,1-3.75.19,23.87,23.87,0,0,1-3.26-.23.59.59,0,0,1,.16-1.16,27.54,27.54,0,0,0,6.62-.32A19.53,19.53,0,0,0,313,114l1.21-.54c.28-.13.69-.45,1.05-.67l1.12-.75a11,11,0,0,0,1-.92l1-1c.31-.38.61-.76.91-1.15a15.78,15.78,0,0,0,1.68-2.52,25,25,0,0,0,2.38-5.93,28.79,28.79,0,0,0,.77-6.57,25.32,25.32,0,0,0-.8-6.52,15.59,15.59,0,0,0-2.78-5.55l-.45-.6-.52-.46-1-.92-1.34-.76-.56-.32-.65-.23c-.43-.14-.83-.32-1.28-.44l-1.4-.31A10.18,10.18,0,0,0,304.09,81a12.25,12.25,0,0,0-1.4,1.74,7.77,7.77,0,0,0-.41.66.59.59,0,0,1-.78.25.58.58,0,0,1-.27-.74Z" transform="translate(-9.1 -4)"/><path class="cls-24" d="M202.8,78.93a1.1,1.1,0,0,1-.32-2.16l4.57-1.39a1.11,1.11,0,1,1,.64,2.12l-4.57,1.39A1.22,1.22,0,0,1,202.8,78.93Z" transform="translate(-9.1 -4)"/><path class="cls-26" d="M154.7,29.36c.81-.67-.28-10.18-2.37-9S152.78,30.93,154.7,29.36Z" transform="translate(-9.1 -4)"/><path class="cls-26" d="M166,29.49c-.65-2.73-9.25.14-9.5,1.61S166.59,32.11,166,29.49Z" transform="translate(-9.1 -4)"/><path class="cls-27" d="M132.79,151.46a50.4,50.4,0,0,0,14.44-8.27c.13,4.47,1,7.59,2.88,8.87l.82.53c-3.36,3.68-9.42-2.58-9.42-2.58-2,7.3-8.92,5.52-8.92,5.52l-.35-.06C132.46,154,132.65,152.63,132.79,151.46Z" transform="translate(-9.1 -4)"/><path class="cls-26" d="M71.37,82s-2.91,23.89-2.92,28c0,0-5.62,6-5.26,14.35.41,9.23,18.16,23.89,37.08,28.88l-.14.51s-6,3.35-10.57.92c-3-1.6-5-6.06-5-6.06s-2.45,4.73-7.68,4.1c-7.46-.89-8.71-9.56-8.71-9.56s-.89,6.91-6.62,5.25c-4.54-1.29-5.37-9.93-5.37-9.93s-3.31,5.68-7.54,1.06S49,114,54.83,81.8,78.1,27.1,107.71,22.07s44.64,12,44.64,12,21.62.69,27.35,14.83,4.6,62.56,6.18,72.36c2.17,13.41,9.36,19,1.77,22.26-5.36,2.24-10.62-4.09-10.62-4.09s1.21,9.48-4.91,10.58c-5.37,1-12-4.69-12-4.69s-.59,12.22-9.2,7.29l-.82-.53c-1.92-1.28-2.75-4.4-2.88-8.87-.41-12.1,4.09-33.92,4.82-55-1,1.33-2.42,1.91-4.26.52-5.81-4.41-5.6-15.6-5.6-15.6s-1.54,11.57-7,7.64c-9.73-7.06-6.54-23.36-4.65-30.26C130.54,50.53,110.7,79.05,71.37,82Z" transform="translate(-9.1 -4)"/><path class="cls-28" d="M152.05,88.23c-1,1.33-2.42,1.91-4.26.52-5.81-4.41-5.6-15.6-5.6-15.6s-1.54,11.57-7,7.64c-9.73-7.06-6.54-23.36-4.65-30.26,0,0-19.84,28.52-59.17,31.46,0,0-2.91,23.89-2.92,28,0,0-5.62,6-5.26,14.35.41,9.23,18.16,23.89,37.08,28.88a40.86,40.86,0,0,0,4.83,1.06L103,165.49l-.12.71s.46,5.94,10.77,7.14a19.69,19.69,0,0,0,16.54-6.27s.26-1.38.64-3.43c.41-2.27,1-5.35,1.39-8.17.22-1.45.41-2.84.55-4a50.4,50.4,0,0,0,14.44-8.27C146.82,131.09,151.32,109.27,152.05,88.23Z" transform="translate(-9.1 -4)"/><path class="cls-29" d="M69.19,262.92h0C60.32,280.55,49.3,295.81,45,298.54c-.67.41-9.4-7.63-14.21-11.68A44.53,44.53,0,0,0,23,281.45l-.15-.07s8.58-18.2,20.94-46.48c11.52-26.34,15.77-51,29.65-63.72a28.17,28.17,0,0,1,29.47-5.71l.09,0-.12.71s.46,5.94,10.77,7.14a19.69,19.69,0,0,0,16.54-6.27s.26-1.38.64-3.43c3.4-.78,23.75-4.79,35.51,5.41,25.62,22.22,38,124.45,37.26,133.29a26.25,26.25,0,0,1-2.82,1.54c-5.19,2.45-16.85,6.29-28.63-1.11a48.5,48.5,0,0,0-1.59,7.36l-.57-.07s-18.57,9.9-51.77,8.41c-23.58-1.06-43.42-8.14-51.43-15.07-2.54-2.15-3.88-4.32-3.8-6.27C63.18,293.43,66.1,278.29,69.19,262.92Z" transform="translate(-9.1 -4)"/><path class="cls-6" d="M150.72,316.15c12.54-2.53,19.29-6.09,19.29-6.09l.57.07a48.5,48.5,0,0,1,1.59-7.36l1.09.62c-3.65-38.39-12-76.77-23.74-113.64.71,17,5.74,38.81,6.36,56.1C156.77,270.87,152.9,291.41,150.72,316.15Z" transform="translate(-9.1 -4)"/><path class="cls-6" d="M85.33,186.86C77.17,201.49,61.4,217.58,72.2,232.3a359.31,359.31,0,0,0-7,38.18c1-1.7,1.86-3.48,2.78-5.25,2-8.69,4.89-17.34,7.38-26,1.14-4,.76-9.2,1.6-13.19C67.54,216.75,78.32,199.44,85.33,186.86Z" transform="translate(-9.1 -4)"/><path class="cls-28" d="M175,315.23c-.87,1-1.92,1.75-2.92,1.4-1.73-.61-1.89-3.5-1.53-6.5a48.5,48.5,0,0,1,1.59-7.36c11.78,7.4,23.44,3.56,28.63,1.11.67,10.89-1.68,24.63-5.52,24.75-2.25.05-3.05-9.17-3.05-9.17s-2.48,11.82-6.32,10.81c-1.89-.49-2.25-11.72-2.25-11.72s-2.73,10-5,8.78c-3.24-1.81-1.38-15.72-1.38-15.72A16.53,16.53,0,0,1,175,315.23Z" transform="translate(-9.1 -4)"/><path class="cls-30" d="M111.86,337.06c-.22,7.26-3.3,111.39-5.23,141.89l-.88-.06c-11.56,4.47-26-.06-26-.06-2.83-11.22-13.51-174.72-13.51-174.72l.6-.71c8,6.93,27.85,14,51.43,15.07,33.2,1.49,51.77-8.41,51.77-8.41l.57.07c-.36,3-.2,5.89,1.53,6.5,1,.35,2-.38,2.92-1.4-.22,7.82-3.68,128.37-5.84,163h-.08c-11.34,5.39-28.93,2-28.93,2l-9.61-140C126.49,340.08,118.51,338.51,111.86,337.06Z" transform="translate(-9.1 -4)"/><path class="cls-6" d="M175,317.8c0-1.23.06-2.1.07-2.57-.87,1-1.92,1.75-2.92,1.4-1.73-.61-1.89-3.5-1.53-6.5l-.57-.07s-18.57,9.9-51.77,8.41c-23.58-1.06-43.42-8.14-51.43-15.07l-.6.71s0,.31.05.88C93.72,329.16,140.7,328.53,175,317.8Z" transform="translate(-9.1 -4)"/><path class="cls-31" d="M169.11,478.23h.08c-.33,5.38-.63,8.69-.87,9.19-3,6-34.63,5.47-35.56,1.55-.69-2.89,7.42-8.71,7.42-8.71S157.77,483.62,169.11,478.23Z" transform="translate(-9.1 -4)"/><path class="cls-31" d="M105.75,478.89l.88.06c-.3,4.8-.56,7.76-.79,8.26C104,491.3,75,490.64,73,486.84s6.75-8,6.75-8S94.19,483.36,105.75,478.89Z" transform="translate(-9.1 -4)"/><path class="cls-28" d="M23,281.89l.06-.44a44.53,44.53,0,0,1,7.78,5.41C35.61,290.91,44.34,299,45,298.54c-8.57,11.9-19.38,17-21.72,14.26-1.95-2.3,3.68-9.26,4.29-10-.71.66-10.55,9.67-13.62,7s5.91-11.58,6.86-12.51c-1.05.73-10.93,7.72-11.69,3-.66-4,9.95-11.75,9.95-11.75s-7.45-1.47-6.73-4.61C13,281.18,21.58,281.79,23,281.89Z" transform="translate(-9.1 -4)"/><path class="cls-32" d="M86.25,186.43c-3.42,6.4-6.7,12.89-9.6,19.5-.69,1.66-1.38,3.32-1.91,5a20.84,20.84,0,0,0-.65,2.49c0,.37-.08.76,0,1.1l.14,1.35.14,1.35.27,1.25a17.16,17.16,0,0,0,.69,2.47,15.81,15.81,0,0,0,1,2.34,10.66,10.66,0,0,0,1.36,2l0,0a1.07,1.07,0,0,1,.25.93c-2.44,12-5,24-7.57,35.95l-3.69,18c-.61,3-1.22,6-1.78,9-.26,1.49-.62,3-.8,4.49l-.32,2.24L63.63,297c0,.23,0,.72,0,1.07v0a.59.59,0,0,1-1.17.06,10.39,10.39,0,0,1-.08-1.22l.12-1.15.26-2.32c.13-1.56.44-3.05.65-4.57.47-3,.95-6.07,1.52-9.08,1.08-6,2.21-12.05,3.39-18.07,2.48-12,4.93-24,7.51-36l.3,1a12,12,0,0,1-1.72-2.49,17.69,17.69,0,0,1-1.15-2.65,19.63,19.63,0,0,1-.76-2.78,17.91,17.91,0,0,1-.41-2.79L72,214.71a10.63,10.63,0,0,1,.1-1.61,21.2,21.2,0,0,1,.77-2.77c.6-1.78,1.34-3.46,2.08-5.14,3-6.68,6.61-13,10.27-19.33a.58.58,0,0,1,.79-.22A.59.59,0,0,1,86.25,186.43Z" transform="translate(-9.1 -4)"/><path class="cls-32" d="M171.59,302.84s-1-7.17-2.66-17.89c-.76-5.37-1.84-11.61-2.92-18.3-.52-3.35-1.09-6.8-1.75-10.3l-1.91-10.62c-.57-3.57-1.37-7.09-2-10.58s-1.4-6.92-2.07-10.24l-4.23-18c-.65-2.63-1.43-5-2-7.1s-1.15-4-1.59-5.47c-.89-3-1.39-4.77-1.39-4.77l0,0a.59.59,0,0,1,1.12-.35s.56,1.72,1.56,4.74c.49,1.51,1.1,3.34,1.79,5.44s1.55,4.46,2.24,7.09,1.41,5.49,2.18,8.51,1.64,6.2,2.38,9.51,1.41,6.77,2.14,10.26,1.53,7,2.13,10.61c1.23,7.14,2.58,14.27,3.55,21s1.93,13,2.61,18.38,1.19,9.9,1.55,13.05l.52,4.95a.57.57,0,0,1-.51.64A.6.6,0,0,1,171.59,302.84Z" transform="translate(-9.1 -4)"/><path class="cls-33" d="M101,333.93s1.88.26,4.67.78c1.39.28,3,.55,4.76,1l2.65.56,2.77.55c3.69.8,7.36,1.54,10.13,2.1,1.38.31,2.52.43,3.32.59l1.27.22.07,0a.57.57,0,0,1,.47.67.58.58,0,0,1-.59.48l-1.32,0c-.83-.07-2.07,0-3.48-.22s-3.09-.33-4.84-.66-3.64-.62-5.49-1l-2.76-.61-2.68-.64c-1.72-.4-3.31-.89-4.68-1.25-2.74-.77-4.54-1.36-4.54-1.36a.59.59,0,0,1-.37-.75A.58.58,0,0,1,101,333.93Z" transform="translate(-9.1 -4)"/><path class="cls-34" d="M131,50.86s-.71,1.18-2.16,3.08a67,67,0,0,1-6.62,7.36l-2.34,2.18-2.62,2.22a66.56,66.56,0,0,1-6,4.41L108,72.23l-3.51,2c-1.17.69-2.43,1.22-3.67,1.81s-2.46,1.21-3.76,1.66a80.72,80.72,0,0,1-7.77,2.63l-3.88,1L81.56,82a52.84,52.84,0,0,1-7.35.91,24.28,24.28,0,0,1-6.81,0,5.91,5.91,0,0,1-3.15-1.45,3.71,3.71,0,0,1-.93-3.21,10.37,10.37,0,0,1,1.94-4.14A21.86,21.86,0,0,1,67.06,72l.7-.71a.44.44,0,0,1,.6,0,.43.43,0,0,1,0,.58,21.66,21.66,0,0,0-2,3A9,9,0,0,0,65,78.5a1.82,1.82,0,0,0,.58,1.6,4.42,4.42,0,0,0,2.14.72,22.72,22.72,0,0,0,6.19-.43,68.61,68.61,0,0,0,7-1.26l3.69-.81,3.7-1.11c2.53-.66,5-1.7,7.44-2.62,1.23-.46,2.41-1.08,3.61-1.6s2.41-1.06,3.54-1.71l3.4-1.83,3.24-2c1.07-.62,2.07-1.33,3-2s2-1.28,2.88-2l2.66-2,2.39-2c1.51-1.29,2.87-2.52,4.06-3.62s2.18-2.12,3-3c1.61-1.7,2.46-2.71,2.46-2.71a.55.55,0,0,1,.78-.07A.55.55,0,0,1,131,50.86Z" transform="translate(-9.1 -4)"/><path class="cls-34" d="M142.74,73.15s.35,1.83,1,4.45c.17.66.36,1.36.59,2.09s.48,1.48.77,2.23a16.22,16.22,0,0,0,2.37,4.23,6.92,6.92,0,0,0,1.65,1.56c.52.28.67.38,1,.25a2.11,2.11,0,0,0,.62-.42l.17-.15c-.08.13.08-.11.11-.14l.37-.49a13.09,13.09,0,0,0,1-1.71c.58-1.18,1-2.26,1.29-3l.46-1.19a.42.42,0,0,1,.54-.26A.46.46,0,0,1,155,81s0,.49,0,1.33a17,17,0,0,1-.5,3.5,11.16,11.16,0,0,1-.87,2.38l-.29.54a2.41,2.41,0,0,1-.22.38l-.24.31a4.38,4.38,0,0,1-1.37,1.19,4.08,4.08,0,0,1-4.09-.19A10,10,0,0,1,145,88.27a12.41,12.41,0,0,1-1.71-2.62,14.69,14.69,0,0,1-1.07-2.73,21.18,21.18,0,0,1-.84-5,18.75,18.75,0,0,1,.29-4.83h0a.58.58,0,0,1,.69-.43A.57.57,0,0,1,142.74,73.15Z" transform="translate(-9.1 -4)"/><path class="cls-34" d="M132.06,47.53s-.13.75-.41,2.06c-.07.32-.15.68-.23,1.08s-.14.79-.22,1.23c-.13.9-.28,1.91-.45,3s-.29,2.31-.4,3.57-.21,2.6-.24,4a39.35,39.35,0,0,0,.11,4.19,24.76,24.76,0,0,0,.63,4.2,17.67,17.67,0,0,0,1.33,3.91A14.49,14.49,0,0,0,134.32,78a18.5,18.5,0,0,0,1.34,1.32l.33.32-.12-.08h0l0,0,.05,0,.11.07.21.13c.27.18.61.41.69.37a1.66,1.66,0,0,0,1.86-.67A13.71,13.71,0,0,0,141.16,75c.42-1.23.61-2,.61-2a.42.42,0,0,1,.83.11,15.64,15.64,0,0,1-.18,2.14,22.14,22.14,0,0,1-.5,2.44,10.14,10.14,0,0,1-1.36,3.13,4.76,4.76,0,0,1-1.7,1.54,2.89,2.89,0,0,1-1.33.38,3.18,3.18,0,0,1-1.48-.16,4.14,4.14,0,0,1-1.1-.45l-.22-.11-.11-.06-.06,0h0l-.16-.11-.45-.34a14.38,14.38,0,0,1-1.75-1.49,16.27,16.27,0,0,1-2.85-3.88,20.59,20.59,0,0,1-1.69-4.59,15.11,15.11,0,0,1-.45-2.38c-.11-.79-.2-1.58-.23-2.36a28.89,28.89,0,0,1,.06-4.57,31.7,31.7,0,0,1,.54-4.19c.22-1.32.51-2.55.81-3.67s.62-2.15.93-3l.45-1.27c.16-.37.29-.71.42-1,.51-1.23.84-1.92.84-1.92a.56.56,0,0,1,.74-.27A.57.57,0,0,1,132.06,47.53Z" transform="translate(-9.1 -4)"/><path class="cls-21" d="M90.56,120.18a40,40,0,0,0,3.78,1.53c1.14.43,2.52.81,4,1.2a30.21,30.21,0,0,0,4.66.8,21.72,21.72,0,0,0,4.69.07,14.26,14.26,0,0,0,2.14-.25,11.38,11.38,0,0,0,1.9-.39l1.59-.43,1.19-.46,1.05-.38.07,0a.58.58,0,0,1,.49,1l-1,.6-1.2.66c-.48.21-1,.43-1.65.66a13.36,13.36,0,0,1-2,.6,11.48,11.48,0,0,1-2.32.43,24.25,24.25,0,0,1-5.12.07c-.87,0-1.71-.27-2.56-.39s-1.65-.37-2.42-.61a27.42,27.42,0,0,1-4.12-1.57A21.39,21.39,0,0,1,90,121.18a.59.59,0,0,1,.61-1Z" transform="translate(-9.1 -4)"/><path class="cls-35" d="M88.94,117.43l-.72,3.07c-.25.91-.43,2-.74,3.11s-.53,2.35-.73,3.56-.51,2.43-.59,3.58-.35,2.23-.38,3.16c-.11,1.85-.29,3.14-.29,3.14v0a.28.28,0,0,1-.32.24.28.28,0,0,1-.23-.21s-.31-1.25-.63-3.19a23.39,23.39,0,0,1-.12-3.34,12.18,12.18,0,0,1,.13-1.89c.09-.63.17-1.28.26-1.92a16.86,16.86,0,0,1,.41-1.9c.15-.62.32-1.23.49-1.81a28.47,28.47,0,0,1,1.2-3.1,17.44,17.44,0,0,1,1.59-2.85.37.37,0,0,1,.52-.09A.39.39,0,0,1,88.94,117.43Z" transform="translate(-9.1 -4)"/><path class="cls-35" d="M118,118.23a22.36,22.36,0,0,1,1,3.46,35,35,0,0,1,.61,3.63q.11,1,.15,2.07c0,.71.12,1.43.07,2.15a36.09,36.09,0,0,1-.27,4.23,31.76,31.76,0,0,1-.68,3.64c-.65,2.09-1.17,3.42-1.17,3.42a.28.28,0,0,1-.54-.11v0s0-1.44.26-3.51c.11-1,.06-2.26.16-3.55s0-2.69,0-4.07-.09-2.77-.09-4.08-.08-2.52-.15-3.57c-.08-2.11-.14-3.52-.14-3.52a.39.39,0,0,1,.37-.39A.4.4,0,0,1,118,118.23Z" transform="translate(-9.1 -4)"/><path class="cls-36" d="M109.07,109.05c-.14,3.21-3.79,5.65-8.14,5.45s-7.77-3-7.63-6.16,3.79-5.65,8.15-5.46S109.22,105.84,109.07,109.05Z" transform="translate(-9.1 -4)"/><path class="cls-37" d="M120.58,84c3-2.66,14.79,2.59,14.71,7.25-.06,3.61-4.56.89-7.88-.43C125.52,90,117.46,86.68,120.58,84Z" transform="translate(-9.1 -4)"/><path class="cls-37" d="M90.3,82.56c-2.8-2.92-14.17.69-14.51,5.34-.26,3.6,4.46,1.29,7.89.28C85.62,87.6,93.16,85.54,90.3,82.56Z" transform="translate(-9.1 -4)"/><path class="cls-35" d="M120.67,108l.4.23c.22.15.6.28,1,.51a4.79,4.79,0,0,0,.68.3c.25.08.48.22.75.31s.55.16.83.26a3.62,3.62,0,0,0,.86.22,7.52,7.52,0,0,0,1.73.28c.28,0,.56.07.82.1a3.1,3.1,0,0,0,.75,0,15.25,15.25,0,0,1,1.63,0h0a.22.22,0,0,1,.19.23.2.2,0,0,1-.12.17,12.37,12.37,0,0,1-1.58.65,4,4,0,0,1-.81.22c-.3,0-.62.08-1,.09a8.56,8.56,0,0,1-1,0l-1-.18a7,7,0,0,1-2-.68,4.12,4.12,0,0,1-.81-.51,4.72,4.72,0,0,1-.67-.52,5.42,5.42,0,0,1-.87-.94,2.81,2.81,0,0,1-.25-.4v0a.28.28,0,0,1,.17-.37A.29.29,0,0,1,120.67,108Z" transform="translate(-9.1 -4)"/><path class="cls-35" d="M85.16,106.65a2.57,2.57,0,0,1-.34.42,6.45,6.45,0,0,1-1.11.94,9.34,9.34,0,0,1-1.82,1,8.17,8.17,0,0,1-2.35.45H78.32a7.11,7.11,0,0,1-1.15-.25c-.37-.09-.71-.22-1-.32a3.64,3.64,0,0,1-.86-.43,16.7,16.7,0,0,1-1.61-1.11.21.21,0,0,1,0-.3.21.21,0,0,1,.2-.07h0a18.29,18.29,0,0,1,1.8.45,3,3,0,0,0,.83.22c.3,0,.62,0,.94.09a7.94,7.94,0,0,0,1,.11l1,0a3.11,3.11,0,0,0,1-.11c.33-.07.66-.12,1-.17l.9-.27a4.53,4.53,0,0,0,.81-.27c.48-.22.92-.35,1.19-.51a5,5,0,0,0,.47-.22.28.28,0,0,1,.38.38Z" transform="translate(-9.1 -4)"/><path class="cls-35" d="M84.39,109.92a2,2,0,0,1-.2.35,4.12,4.12,0,0,1-.69.84,7.16,7.16,0,0,1-1.23.93,5.94,5.94,0,0,1-1.71.57l-.92.1a3.21,3.21,0,0,1-.88-.1,4.17,4.17,0,0,1-1.47-.48,9.25,9.25,0,0,1-1.22-.82.2.2,0,0,1,0-.29.19.19,0,0,1,.17-.08h0a10.89,10.89,0,0,1,1.34.15,4.34,4.34,0,0,0,1.26,0,2.28,2.28,0,0,0,.69,0l.7-.12c.48,0,.91-.29,1.36-.36s.86-.29,1.18-.5.65-.29.84-.41l.34-.18a.3.3,0,0,1,.4.13.31.31,0,0,1,0,.21Z" transform="translate(-9.1 -4)"/><path class="cls-35" d="M119.25,109.78s.11.09.27.25a3.88,3.88,0,0,0,.62.57,14.77,14.77,0,0,0,2.07,1.3c.8.42,1.66.85,2.33,1.15.33.15.61.32.81.4s.22.1.17.12,0,0,0,0-.09,0-.16.16.13.24.12.25,0,0,0,0a.19.19,0,0,1-.18-.23.2.2,0,0,1,.23-.18h.08s.15,0,.15.25-.12.14-.13.17,0,0-.06,0l-.33,0a5.62,5.62,0,0,1-1,0,9.48,9.48,0,0,1-1.34-.2,7,7,0,0,1-1.48-.54,6.16,6.16,0,0,1-1.34-.9,3.42,3.42,0,0,1-.52-.56,5.23,5.23,0,0,1-.39-.57,3.17,3.17,0,0,1-.44-1.3.27.27,0,0,1-.15-.34.27.27,0,0,1,.34-.15l.07,0Z" transform="translate(-9.1 -4)"/><path class="cls-38" d="M96.63,104.25l-.42.37a7.73,7.73,0,0,0-1,1,5.63,5.63,0,0,0-.82,1.58,6.2,6.2,0,0,0-.17.89c0,.2,0,.46,0,.61a1.57,1.57,0,0,1,0,.37,6.89,6.89,0,0,0,2.24,3.26c.46.42.86.78,1.15,1l.46.37h0a.3.3,0,0,1,0,.41.29.29,0,0,1-.26.11,7.76,7.76,0,0,1-2.19-.69,7.54,7.54,0,0,1-2-1.36,7.1,7.1,0,0,1-.93-1.13,5.88,5.88,0,0,1-.63-1.47,6.88,6.88,0,0,1-.13-.91,6.59,6.59,0,0,1,0-.67,4.57,4.57,0,0,1,.4-1.54,4.93,4.93,0,0,1,1.65-2,4.65,4.65,0,0,1,2.26-.89.4.4,0,0,1,.4.38.4.4,0,0,1-.13.3Z" transform="translate(-9.1 -4)"/><path class="cls-39" d="M103.25,114.43c-.42-.29,3.63-2.26,4.31-1.59S104.69,115.44,103.25,114.43Z" transform="translate(-9.1 -4)"/><path class="cls-22" d="M86.39,103.2a4.92,4.92,0,1,0-5.26,4.56A4.91,4.91,0,0,0,86.39,103.2Z" transform="translate(-9.1 -4)"/><path class="cls-22" d="M76.78,94.54s.18.41.44,1a11.49,11.49,0,0,0,1.09,2,3.53,3.53,0,0,0,.73.84,3.58,3.58,0,0,0,.78.58,3.38,3.38,0,0,0,.67.33,2,2,0,0,1,.28.13.5.5,0,0,1-.08,1A3.87,3.87,0,0,1,78,99.83a5.63,5.63,0,0,1-1.19-1.15,6.4,6.4,0,0,1-.72-1.43,5.12,5.12,0,0,1-.29-1.31,4.56,4.56,0,0,1,0-1.31.52.52,0,0,1,.61-.41.5.5,0,0,1,.37.3Z" transform="translate(-9.1 -4)"/><path class="cls-22" d="M74.5,97.44s.29.34.71.86a11.26,11.26,0,0,0,1.62,1.62,5,5,0,0,0,1.85.94,4.29,4.29,0,0,0,.74.12,2.09,2.09,0,0,1,.3,0,.49.49,0,0,1,.59.38.5.5,0,0,1-.39.59,3.65,3.65,0,0,1-1.32.34,3.85,3.85,0,0,1-1.46-.17,5.44,5.44,0,0,1-1.47-.77,7,7,0,0,1-1.1-1.16,5.4,5.4,0,0,1-.65-1.18,4.68,4.68,0,0,1-.35-1.26.52.52,0,0,1,.47-.56.48.48,0,0,1,.44.18Z" transform="translate(-9.1 -4)"/><path class="cls-22" d="M80.64,94.48s.15.42.36,1.06a12.55,12.55,0,0,0,.94,2.09,3.81,3.81,0,0,0,.68.89,3.54,3.54,0,0,0,.74.63,3.2,3.2,0,0,0,.64.37l.27.15a.5.5,0,0,1,.41.57.5.5,0,0,1-.56.42,3.89,3.89,0,0,1-2.67-.82,5.5,5.5,0,0,1-1.11-1.24,6.6,6.6,0,0,1-.62-1.47,5.8,5.8,0,0,1-.2-1.33,5.12,5.12,0,0,1,.12-1.31.52.52,0,0,1,1,0Z" transform="translate(-9.1 -4)"/><path class="cls-22" d="M129.29,105a4.92,4.92,0,1,0-5.26,4.55A4.92,4.92,0,0,0,129.29,105Z" transform="translate(-9.1 -4)"/><path class="cls-22" d="M119.68,96.32s.18.41.44,1a11.42,11.42,0,0,0,1.09,2,3.53,3.53,0,0,0,.73.84,4.74,4.74,0,0,0,1.45.91l.27.13a.5.5,0,0,1,.46.54.49.49,0,0,1-.53.45,3.59,3.59,0,0,1-1.37,0,4,4,0,0,1-1.35-.57,5.72,5.72,0,0,1-1.2-1.16A6.14,6.14,0,0,1,119,99a5.53,5.53,0,0,1-.3-1.31,4.76,4.76,0,0,1,0-1.31.53.53,0,0,1,.61-.41.54.54,0,0,1,.37.3Z" transform="translate(-9.1 -4)"/><path class="cls-22" d="M117.4,99.21s.29.34.71.86a11.75,11.75,0,0,0,1.61,1.63,4,4,0,0,0,.94.6,3.8,3.8,0,0,0,.92.33,3.65,3.65,0,0,0,.73.13l.31,0a.51.51,0,0,1,.59.39.51.51,0,0,1-.39.59,4.26,4.26,0,0,1-1.33.34,4.06,4.06,0,0,1-1.45-.18,5.93,5.93,0,0,1-1.48-.76,7,7,0,0,1-1.09-1.17,5.4,5.4,0,0,1-.65-1.18,4.68,4.68,0,0,1-.35-1.26.52.52,0,0,1,.47-.56.51.51,0,0,1,.44.18Z" transform="translate(-9.1 -4)"/><path class="cls-22" d="M123.54,96.25s.15.42.36,1.06a11.17,11.17,0,0,0,.94,2.09,4.07,4.07,0,0,0,.67.89,3.5,3.5,0,0,0,.74.63,3.67,3.67,0,0,0,.65.38l.26.15a.5.5,0,0,1,.42.56.49.49,0,0,1-.56.42,3.63,3.63,0,0,1-1.37-.15,3.76,3.76,0,0,1-1.3-.67,5.45,5.45,0,0,1-1.11-1.23,6.87,6.87,0,0,1-.62-1.48,5.65,5.65,0,0,1-.2-1.33,4.59,4.59,0,0,1,.12-1.3.52.52,0,0,1,1,0Z" transform="translate(-9.1 -4)"/><path class="cls-6" d="M132.74,151.87c0-.13,0-.28,0-.41A55.11,55.11,0,0,1,111.72,155a40.56,40.56,0,0,1-6.62-.7l-.92,5C114,160.54,123.28,158.78,132.74,151.87Z" transform="translate(-9.1 -4)"/><path class="cls-40" d="M112.76,106.09l-.19-.21-.51-.49a10.21,10.21,0,0,0-.91-.74,14.52,14.52,0,0,0-1.26-.83,11.23,11.23,0,0,0-1.59-.8c-.61-.2-1.2-.52-1.88-.69s-1.36-.38-2.07-.52l-2.22-.26c-.62-.1-1.53,0-2.27-.09a12.5,12.5,0,0,0-2.17.11,11.16,11.16,0,0,0-2,.27,8.51,8.51,0,0,0-1.74.44,10,10,0,0,0-2.43,1.06,8.47,8.47,0,0,0-.79.53l0,0a.58.58,0,0,1-.85-.79,4.84,4.84,0,0,1,.86-.87,10,10,0,0,1,2.61-1.59,10.2,10.2,0,0,1,1.91-.67,9.58,9.58,0,0,1,2.23-.47,13.81,13.81,0,0,1,2.37-.18c.81,0,1.48-.07,2.43,0l2.46.35c.8.17,1.57.44,2.32.66a12.22,12.22,0,0,1,2.08.91,14.89,14.89,0,0,1,1.72,1.08,10.85,10.85,0,0,1,1.3,1.12,11.59,11.59,0,0,1,.89,1,6.78,6.78,0,0,1,.66,1,.59.59,0,0,1-.26.79A.58.58,0,0,1,112.76,106.09Z" transform="translate(-9.1 -4)"/><path class="cls-41" d="M69.14,102c-1.57,1.9-2.39,13.06,10.38,13.8,10.09.59,12-11.18,11.08-12.19C88.69,101.54,71,99.81,69.14,102Z" transform="translate(-9.1 -4)"/><path class="cls-40" d="M80.24,116.69h0c-.26,0-.51,0-.77,0-7-.4-9.91-3.79-11.12-6.57-1.48-3.41-.91-7.3.15-8.59.48-.57,1.67-1.33,6.52-1.33,5.52,0,14.57,1.13,16.2,2.91.86.94.3,4.15-.76,6.56C89.3,112.27,86.43,116.69,80.24,116.69ZM75,101.83c-4.58,0-5.23.72-5.24.73-.57.69-1.22,3.85.1,6.87,1,2.35,3.52,5.22,9.68,5.57a8.8,8.8,0,0,0,8.31-4.08c1.94-2.88,2.29-6.23,2-6.82C89.06,103.19,81.49,101.83,75,101.83Z" transform="translate(-9.1 -4)"/><path class="cls-41" d="M135.06,107.09c1.24,2.13.18,13.28-12.53,11.88-10-1.11-10-13-8.9-13.88C115.87,103.35,133.62,104.59,135.06,107.09Z" transform="translate(-9.1 -4)"/><path class="cls-40" d="M124.65,119.92a19.19,19.19,0,0,1-2.21-.13c-6.46-.71-8.75-5.52-9.55-8.33-.75-2.65-.84-6.19.23-7,.84-.65,3-1,6.42-1,4.5,0,14.85.81,16.24,3.22.74,1.28.82,4.88-1,8C133.42,117.07,130.54,119.92,124.65,119.92Zm-5.11-14.81c-3.62,0-5.1.4-5.4.63-.27.5-.47,4,1.12,7.29a8.8,8.8,0,0,0,7.36,5.11c6.41.7,9.43-2,10.74-4.29,1.5-2.61,1.44-5.56,1-6.35C133.74,106.46,126.45,105.11,119.54,105.11Z" transform="translate(-9.1 -4)"/><path class="cls-25" d="M73.17,102.51c-1.65-.72-3.68,4.28-2.46,5,.89.55,1.77-.67,2.33-1.88S74.26,103,73.17,102.51Z" transform="translate(-9.1 -4)"/><path class="cls-25" d="M76.14,102.74c-1.42-.62-3.17,3.68-2.11,4.33.77.47,1.52-.57,2-1.61S77.09,103.15,76.14,102.74Z" transform="translate(-9.1 -4)"/><path class="cls-25" d="M118.9,106c-1.65-.72-3.68,4.28-2.46,5,.89.55,1.77-.67,2.33-1.88S120,106.43,118.9,106Z" transform="translate(-9.1 -4)"/><path class="cls-25" d="M121.88,106.23c-1.42-.63-3.17,3.68-2.11,4.32.76.47,1.52-.57,2-1.61S122.82,106.64,121.88,106.23Z" transform="translate(-9.1 -4)"/><path class="cls-6" d="M166.51,177.67a7,7,0,0,0-2.46-2.39.73.73,0,0,0-1,.66A11.61,11.61,0,0,0,164,179a6.63,6.63,0,0,0,1.83,2.93,1,1,0,0,0,1.72-.62A4.93,4.93,0,0,0,166.51,177.67Z" transform="translate(-9.1 -4)"/><path class="cls-6" d="M170.59,186.48c-.27-.59-.75-1-1-1.57a1.13,1.13,0,0,0-2.05.17,3.66,3.66,0,0,0-.17,2.6C168.2,190.08,171.66,188.77,170.59,186.48Z" transform="translate(-9.1 -4)"/><path class="cls-6" d="M165,185a16.29,16.29,0,0,0-1.64-2.65c-1.11-2.06-4-.8-3.67,1.36a4.56,4.56,0,0,0,2.08,3.54C163.27,188,165.67,187,165,185Z" transform="translate(-9.1 -4)"/><path class="cls-6" d="M178.1,286.41a1.6,1.6,0,0,0-2.23-.1,4.12,4.12,0,0,0-1.06,3,3.69,3.69,0,0,0,1.63,3,1.29,1.29,0,0,0,1.76-.38,4.65,4.65,0,0,0,.89-2.67A4.55,4.55,0,0,0,178.1,286.41Z" transform="translate(-9.1 -4)"/><path class="cls-6" d="M180.4,297.59a.85.85,0,0,0-1.31-.23c-1.41,1-2,2.95-.48,4.18a1.25,1.25,0,0,0,1.29,0C181.49,300.61,181,299,180.4,297.59Z" transform="translate(-9.1 -4)"/><path class="cls-6" d="M184.82,294a3.8,3.8,0,0,0-.87-1.83,1.66,1.66,0,0,0-2-.34,2.63,2.63,0,0,0-1.48,2.56c.07,1.08.81,2.37,2.09,2.28a2.42,2.42,0,0,0,1.12-.25A2.22,2.22,0,0,0,184.82,294Z" transform="translate(-9.1 -4)"/><path class="cls-6" d="M48.09,286.78a2.25,2.25,0,0,0-2.71-.47c-1.42.89-2.51,2.84-1.54,4.47a2.05,2.05,0,0,0,2.27,1A3.72,3.72,0,0,0,48.57,289,2.38,2.38,0,0,0,48.09,286.78Z" transform="translate(-9.1 -4)"/><path class="cls-6" d="M41.41,281.94a2.92,2.92,0,0,0-.55,3.81,1.42,1.42,0,0,0,2.42.11,8.78,8.78,0,0,0,.81-.9,3.7,3.7,0,0,0,.41-1.57C44.69,281.74,42.54,280.93,41.41,281.94Z" transform="translate(-9.1 -4)"/><path class="cls-6" d="M46.63,278a22.19,22.19,0,0,0-1.19,2.33,1.71,1.71,0,0,0,2,2.17,3.76,3.76,0,0,0,2.74-2.82C50.83,277.63,47.69,276,46.63,278Z" transform="translate(-9.1 -4)"/><path class="cls-6" d="M73.65,284.21a1.17,1.17,0,0,0-1.65-.07,3.77,3.77,0,0,0-.54,4.44,1.36,1.36,0,0,0,2.33.1A3.77,3.77,0,0,0,73.65,284.21Z" transform="translate(-9.1 -4)"/><path class="cls-6" d="M77.87,289.6s0,0,0,0a1.17,1.17,0,0,0-1.84.16,2.4,2.4,0,0,0,0,2.91,1.68,1.68,0,0,0,2.35.11,2.14,2.14,0,0,0,.62-1.56A1.44,1.44,0,0,0,77.87,289.6Z" transform="translate(-9.1 -4)"/><path class="cls-6" d="M79.37,282.72c-.16-.62-.44-1.12-.59-1.74a.79.79,0,0,0-.61-.62c-.66-.07-1,.42-1.26.94a2.37,2.37,0,0,0,0,2.35A1.36,1.36,0,0,0,79.37,282.72Z" transform="translate(-9.1 -4)"/><path class="cls-6" d="M79.43,269.81a5.78,5.78,0,0,0-1.58-2.53,1.35,1.35,0,0,0-2.24.49,2.13,2.13,0,0,1-.32.74c-1.19,1.39-1,3.61.92,4.24C77.88,273.3,80.07,271.68,79.43,269.81Z" transform="translate(-9.1 -4)"/><path class="cls-6" d="M85.9,408.1a22,22,0,0,0-2.12-3.3,8.86,8.86,0,0,0-2.41-2.32,1.46,1.46,0,0,0-2.22,1.14,6.68,6.68,0,0,0,1.1,3.66,9.71,9.71,0,0,0,3,3.29A1.9,1.9,0,0,0,85.9,408.1Z" transform="translate(-9.1 -4)"/><path class="cls-6" d="M84.45,414.78a3.08,3.08,0,0,0-1.54-1.69,6.52,6.52,0,0,0-2.15-.9.7.7,0,0,0-.7.49A3.06,3.06,0,0,0,81,415.5a2.55,2.55,0,0,0,3.06.61A1,1,0,0,0,84.45,414.78Z" transform="translate(-9.1 -4)"/><path class="cls-6" d="M150.32,406.75a5.2,5.2,0,0,0-2.73-2.25c-1.23-.22-2.39-.35-3.63-.47a1.35,1.35,0,0,0-1.37,1.65c1,2.87,4.17,4.73,7.1,3.11A1.52,1.52,0,0,0,150.32,406.75Z" transform="translate(-9.1 -4)"/><path class="cls-6" d="M150.86,411.52a3.25,3.25,0,0,0-2.15.15,11,11,0,0,1-1.12.26,1.37,1.37,0,0,0-1,1.63c.57,2.35,5.1,3.34,5.83.56A2.1,2.1,0,0,0,150.86,411.52Z" transform="translate(-9.1 -4)"/><path class="cls-6" d="M75.19,316.25c-1.37-.44-3.06,1.18-2.14,2.54.41.59,1,1.3,1.83,1a2.07,2.07,0,0,0,1-.56A1.81,1.81,0,0,0,75.19,316.25Z" transform="translate(-9.1 -4)"/><path class="cls-6" d="M74.73,325.59c0,.43.15.87.08,1.27-.17,1.06,1.08,1.49,1.86,1.19a2.63,2.63,0,0,0,1.61-2.3C78.53,323.49,74.9,323.3,74.73,325.59Z" transform="translate(-9.1 -4)"/><path class="cls-6" d="M79.42,318.42c-3-.14-3.25,4.59-.21,4.72S82.47,318.56,79.42,318.42Z" transform="translate(-9.1 -4)"/><path class="cls-6" d="M145.61,471.53a2.44,2.44,0,0,0-1.75,3,5.68,5.68,0,0,0,1.55,2.71,1.15,1.15,0,0,0,1.93-.42C147.81,475.12,148.61,471.17,145.61,471.53Z" transform="translate(-9.1 -4)"/><path class="cls-6" d="M152.6,474.54c-.2-1.44-2.6-1.58-2.9-.13a5,5,0,0,0,.85,4.14c.64.88,1.81.14,1.94-.7A11.14,11.14,0,0,0,152.6,474.54Z" transform="translate(-9.1 -4)"/><path class="cls-6" d="M157.46,473.08a.65.65,0,0,0-.79.06c-1.29,1-.6,2.64-.11,3.86.31.78,1.36.49,1.62-.14A3.17,3.17,0,0,0,157.46,473.08Z" transform="translate(-9.1 -4)"/><path class="cls-6" d="M162.15,471.84a.75.75,0,0,0-1.06,0c-1.49,1.28-.86,3.07.15,4.42.46.61,1.26.09,1.36-.49C162.83,474.3,163.3,473,162.15,471.84Z" transform="translate(-9.1 -4)"/><path class="cls-6" d="M83.63,474.47a.58.58,0,0,0-1-.05,3.9,3.9,0,0,0-.45,3.34.45.45,0,0,0,.73.23A2.64,2.64,0,0,0,83.63,474.47Z" transform="translate(-9.1 -4)"/><path class="cls-6" d="M88.47,473.89a2.29,2.29,0,0,0-1,0A1.87,1.87,0,0,0,86,475.6a2.94,2.94,0,0,0,1.18,2.54,1.14,1.14,0,0,0,1.18.06,3,3,0,0,0,1.41-2.43A1.89,1.89,0,0,0,88.47,473.89Z" transform="translate(-9.1 -4)"/><path class="cls-6" d="M93.6,474.48a1.81,1.81,0,0,0-1.8-.56,2.54,2.54,0,0,0-.58,4.62,1.72,1.72,0,0,0,2.57-.91c0-.18,0-.2,0,0a3.7,3.7,0,0,0,.39-1.26A2.25,2.25,0,0,0,93.6,474.48Z" transform="translate(-9.1 -4)"/><path class="cls-6" d="M100.59,473.84a2.15,2.15,0,0,0-3.52-1.1,3.56,3.56,0,0,0-.81,3.86,2,2,0,0,0,3.86.17A5,5,0,0,0,100.59,473.84Z" transform="translate(-9.1 -4)"/><path class="cls-42" d="M140,126.92a8,8,0,0,0-2.93-4.48,8.8,8.8,0,0,0-6.08-2.93c-3.65-.06-6.23,2.87-6.88,6.27-.74,3.86.51,7.8,4.12,9.78a8.57,8.57,0,0,0,10-.86,7.9,7.9,0,0,0,2.32-5.61A4,4,0,0,0,140,126.92Z" transform="translate(-9.1 -4)"/><path class="cls-42" d="M80.73,121.64A6.71,6.71,0,0,0,76.47,117a5.21,5.21,0,0,0-4.9-1.54c-2.33.44-3.47,2.83-3.74,4.94-.62,4.86,4.14,9.82,9.08,8.31A5.8,5.8,0,0,0,80.73,121.64Z" transform="translate(-9.1 -4)"/><path class="cls-43" d="M174.25,71.52c-.26-8.91-2.44-36.34-18.14-30.22a.16.16,0,0,0,0,.29c19.88,3.66,16,31.59,15.42,47-.4,10.31-1.06,20.63-.76,30.95.16,5.48-.1,11.84,3.68,16.23.34.4,1.11,0,.93-.49C168.84,115.85,174.84,91.69,174.25,71.52Z" transform="translate(-9.1 -4)"/><path class="cls-43" d="M64.78,87.13c-.07-.1-.22,0-.26.06-2.63,6.63-3.61,14.32-5.75,21.21-2.77,8.94-4.09,17-1,25.93a.31.31,0,0,0,.6-.14c-1.52-11.8,2.54-23,5.81-34.09C65.36,96.26,67.47,90.68,64.78,87.13Z" transform="translate(-9.1 -4)"/><path class="cls-43" d="M68.06,134.6a.75.75,0,0,0-1.43-.07,6.75,6.75,0,0,0,0,2.65,4.86,4.86,0,0,0,.4,1.73.24.24,0,0,0,.08.06h0a.12.12,0,0,0,.08,0h.08a0,0,0,0,0,0,0s.06,0,.08-.06a4.9,4.9,0,0,0,.56-1.68A6.75,6.75,0,0,0,68.06,134.6Z" transform="translate(-9.1 -4)"/><path class="cls-43" d="M145.78,41.54c-.2,0-.17.36,0,.36,11.39-.21,9.46,26.07,8.39,33.09-.08.52.78.67.91.17C157.09,67.75,159.14,39.46,145.78,41.54Z" transform="translate(-9.1 -4)"/><path class="cls-43" d="M163.09,69.83c0-.06-.1,0-.1,0-.19,22.12-9.57,41.82-5.23,64.24.14.73,1.2.46,1.11-.26C156.19,112.38,165.22,91.51,163.09,69.83Z" transform="translate(-9.1 -4)"/><path class="cls-43" d="M130.4,32c-25.09-5.71-47.83-.36-61.52,22.75-.15.26.24.52.4.26,14.16-23.38,36.1-25.4,61.07-22.75A.13.13,0,0,0,130.4,32Z" transform="translate(-9.1 -4)"/><path class="cls-43" d="M140.25,46a.09.09,0,0,0-.15,0c-1.28,2.84-.11,5.83.5,8.74,1,4.91.13,10.2.14,15.16a.87.87,0,0,0,1.68.3C144.63,62.8,144,52.78,140.25,46Z" transform="translate(-9.1 -4)"/><path class="cls-44" d="M159.78,57.61a.36.36,0,0,0-.61.13c-1.56,5.57-1.8,11.58-3.2,17.25a2.74,2.74,0,0,0,1.11,3.13,2.87,2.87,0,0,0,1.36.43,2.7,2.7,0,0,0,2.71-1.88C162.28,70.93,164.09,62.49,159.78,57.61Z" transform="translate(-9.1 -4)"/><path class="cls-44" d="M170.24,68.12c-.1-2.8-.13-6.08-2.06-8.28A1.41,1.41,0,0,0,166,60c-1.44,2-1.17,4.57-1.23,6.94-.06,2.58-.66,5.23,1.18,7.33a1.43,1.43,0,0,0,1.69.3C170.11,73.36,170.34,70.63,170.24,68.12Z" transform="translate(-9.1 -4)"/><path class="cls-44" d="M180,64.6c-.33-1.93-1-4.38-2.67-5.58a1.31,1.31,0,0,0-1.95.7,20.44,20.44,0,0,0-.34,4.7c0,1.07-.26,2.12-.3,3.18a7.13,7.13,0,0,0,.79,2.86,1.63,1.63,0,0,0,2.66.83,5.76,5.76,0,0,0,1.93-2.71A9.38,9.38,0,0,0,180,64.6Z" transform="translate(-9.1 -4)"/><path class="cls-44" d="M123.14,48.46a2.79,2.79,0,0,0-4-2.56c-4.06,1.72-7.75,9.21-12.61,11.1a20.94,20.94,0,0,0,2.73-5.17,4,4,0,0,0-5.56-4.68c-.46.2-.93.45-1.39.7a3.65,3.65,0,0,0,.35-2.6c-1.08-4.06-6-3.94-10.82-3.51.9-.76,1.81-1.49,2.71-2.19,1.11-.86,3.33-2,2.47-3.79l-.19-.38a2.42,2.42,0,0,0-2-1.29c-6-.35-12.76,4.6-15.9,9.5a4.28,4.28,0,0,0,2.25,6.32,11.25,11.25,0,0,0,7.51.14c1.92-.53,3.8-1.5,5.66-2.17l1.64-.37c-2.81,2.6-6.27,4.47-8.59,7.68a3.25,3.25,0,0,0,1,4.48c2.92,1.87,5.86,1.5,8.72.29-.11,1.65.68,3.56,2.47,3.92,5.18,1,9.51-.47,13.8-3.5C116.8,57.89,123.4,53.35,123.14,48.46Z" transform="translate(-9.1 -4)"/><path class="cls-44" d="M138.71,60.06a8.51,8.51,0,0,0-1.36-4.23.93.93,0,0,0-1.32-.06,10.23,10.23,0,0,0-1.69,11.12c1.16,2.19,4.86,1.54,4.84-1.08A50.45,50.45,0,0,0,138.71,60.06Z" transform="translate(-9.1 -4)"/><path class="cls-44" d="M149.85,60.22c-.72-1.8-3.12-.79-3.33.75-.36,2.57-1.26,6.36.81,8.38a1.9,1.9,0,0,0,2.64.12C152.65,67.19,150.93,62.92,149.85,60.22Z" transform="translate(-9.1 -4)"/><path class="cls-43" d="M125.59,36.66c-5,8.71-14.14,15.22-22,21.27-8.63,6.62-18.68,13.4-29.69,14.89-1.33.17-1.13,2.47.21,2.35,9.93-.84,18.58-6.69,26.46-12.38,9.28-6.69,20.12-15.61,25.31-26C125.93,36.65,125.69,36.48,125.59,36.66Z" transform="translate(-9.1 -4)"/><path class="cls-43" d="M110.8,38.9c-12.91,3.21-25.06,10.83-32.55,22-.39.59.44,1.31,1,.8,9.39-9.51,18.73-18.12,31.65-22.55C111,39.1,111,38.86,110.8,38.9Z" transform="translate(-9.1 -4)"/></g></g></svg>